M48
METRIC,TZ
VER,1
FMAT,2
;FILE_FORMAT=4:4
T01C0.254
T02C0.899
T03C1.4
T04C3.299
T06C3.3
DETECT,ON
ATC,ON
%
G90
T01
X241045Y860551
X331215Y1070863
X317499
X241045Y887729
X274065Y1016253
Y994917
X344931Y1071117
X450849Y1017523
X450341Y1027429
X439927Y1027683
X439673Y1017777
X396239Y1068831
X370839
X451103Y1007363
X439673Y1007871
X374395Y991615
Y978661
X391413
Y991615
X509015Y1019555
X605027Y967993
X578865
X539749Y958087
T02
X393699Y873759
Y848359
Y822959
X331469
Y848359
Y873759
X266699
Y848359
Y822959
X461517Y822451
Y847851
Y873251
X609599Y822959
Y848359
Y873759
X529589
Y848359
Y822959
T03
X327913Y722629
X362965
X432815
X397763
X588009Y722883
X553211
X518159
X668019Y909827
Y944879
Y979931
Y1014983
X246379Y1041907
Y1006855
T06
X246633Y715771
X679703Y717803
Y1110233
X245871Y1113535
M30
