G04 FAB 3000 Version 7.8.18 - Gerber/CAM Software*
G04 RS274-X Output*
%FSLAX44Y44*%
%MIA0B0*%
%MOMM*%
%SFA1.000000B1.000000*%

%IPPOS*%
%ADD19C,0.254000*%
%ADD20C,0.127000*%
%ADD21C,3.299990*%
%ADD22C,2.100000*%
%ADD23R,2.100000X2.100000*%
%ADD24R,2.100000X2.100000*%
%ADD25R,1.500000X1.500000*%
%ADD26C,1.500000*%
%ADD27C,0.660400*%
%ADD28C,0.025400*%
%ADD31C,0.076200*%
%ADD32C,6.999990*%
%ADD33C,0.100000*%
%ADD34C,0.050800*%
%ADD35C,0.067690*%
%LNcartercharger_0*%
%LPD*%
G54D33*
X578611Y1038605D02*
G01Y1060195D01*
X592581Y1038605D02*
G01Y1060195D01*
X494283Y1048003D02*
G01Y1066037D01*
X528319Y1048003D02*
G01Y1066037D01*
X387095Y1038351D02*
G01Y1072133D01*
X405129Y1038351D02*
G01Y1072133D01*
X361695Y1038351D02*
G01Y1072133D01*
X379729Y1038351D02*
G01Y1072133D01*
X572261Y1037843D02*
G01Y1059433D01*
X558291Y1037843D02*
G01Y1059433D01*
X614933Y1027683D02*
G01Y1061719D01*
X596899Y1027683D02*
G01Y1061719D01*
X578611Y1060195D02*
G01X592581D01*
X494283Y1066037D02*
G01X528319D01*
X558037Y1093215D02*
G01Y1119631D01*
X609599Y1093215D02*
G01Y1119631D01*
X558037D02*
G01X609599D01*
X558037Y1093215D02*
G01X609599D01*
X387095Y1072133D02*
G01X405129D01*
X459231D02*
G01Y1140205D01*
X532129Y1072133D02*
G01Y1140205D01*
X459231D02*
G01X532129D01*
X459231Y1072133D02*
G01X532129D01*
X558291Y1059433D02*
G01X572261D01*
X596899Y1061719D02*
G01X614933D01*
X361695Y1072133D02*
G01X379729D01*
X483869Y1030477D02*
G01X498093D01*
X483869Y1008887D02*
G01X498093D01*
X467867Y956309D02*
G01Y977899D01*
X481837Y956309D02*
G01Y977899D01*
X384301Y960881D02*
G01Y982471D01*
X398271Y960881D02*
G01Y982471D01*
X367283Y960881D02*
G01Y982471D01*
X381253Y960881D02*
G01Y982471D01*
X460247Y956309D02*
G01Y977899D01*
X446023Y956309D02*
G01Y977899D01*
X320547Y930655D02*
G01X342137D01*
X320547Y916685D02*
G01X342137D01*
X320547D02*
G01Y930655D01*
X342137Y916685D02*
G01Y930655D01*
X256285D02*
G01X277875D01*
X256285Y916685D02*
G01X277875D01*
X256285D02*
G01Y930655D01*
X277875Y916685D02*
G01Y930655D01*
Y896365D02*
G01Y910335D01*
X256285Y896365D02*
G01Y910335D01*
D02*
G01X277875D01*
X256285Y896365D02*
G01X277875D01*
X320547Y896873D02*
G01Y910843D01*
X342137Y896873D02*
G01Y910843D01*
X320547D02*
G01X342137D01*
X320547Y896873D02*
G01X342137D01*
X451103Y909065D02*
G01X472693D01*
X451103Y895095D02*
G01X472693D01*
X451103D02*
G01Y909065D01*
X472693Y895095D02*
G01Y909065D01*
X467867Y956309D02*
G01X481837D01*
X384301Y960881D02*
G01X398271D01*
X367283D02*
G01X381253D01*
X383031Y897127D02*
G01X404621D01*
X383031Y911097D02*
G01X404621D01*
Y897127D02*
G01Y911097D01*
X383031Y897127D02*
G01Y911097D01*
X446023Y956309D02*
G01X460247D01*
X404621Y916685D02*
G01Y930655D01*
X383031Y916685D02*
G01Y930655D01*
Y916685D02*
G01X404621D01*
X383031Y930655D02*
G01X404621D01*
X519429Y894587D02*
G01X540765D01*
X519429Y908557D02*
G01X540765D01*
Y894587D02*
G01Y908557D01*
X519429Y894587D02*
G01Y908557D01*
X494283Y1048003D02*
G01X528319D01*
X513079Y978915D02*
G01X527049D01*
X513079Y957325D02*
G01X527049D01*
D02*
G01Y978915D01*
X513079Y957325D02*
G01Y978915D01*
X498093Y1008887D02*
G01Y1030477D01*
X490727Y956309D02*
G01X504697D01*
X490727Y977899D02*
G01X504697D01*
X490727Y956309D02*
G01Y977899D01*
X504697Y956309D02*
G01Y977899D01*
X578611Y1038605D02*
G01X592581D01*
X558291Y1037843D02*
G01X572261D01*
X596899Y1027683D02*
G01X614933D01*
X621029Y893825D02*
G01Y907795D01*
X599693Y893825D02*
G01Y907795D01*
Y893825D02*
G01X621029D01*
X599693Y907795D02*
G01X621029D01*
X367283Y987805D02*
G01X381253D01*
X446023Y977899D02*
G01X460247D01*
X367283Y982471D02*
G01X381253D01*
X384301D02*
G01X398271D01*
X467867Y977899D02*
G01X481837D01*
X384301Y987805D02*
G01X398271D01*
X384301D02*
G01Y1009395D01*
X398271Y987805D02*
G01Y1009395D01*
X381253Y987805D02*
G01Y1009395D01*
X367283Y987805D02*
G01Y1009395D01*
G54D31*
X438149Y1045717D02*
G01X446531Y1037335D01*
X438149D02*
G01X446531Y1045717D01*
X438149Y1041399D02*
G01X446531D01*
X442467Y1037335D02*
G01Y1045717D01*
G54D33*
X483869Y1008887D02*
G01Y1030477D01*
X361695Y1038351D02*
G01X379729D01*
X387095D02*
G01X405129D01*
X367283Y1009395D02*
G01X381253D01*
X309879Y1032255D02*
G01X323849D01*
X309879Y1010919D02*
G01X323849D01*
D02*
G01Y1032255D01*
X309879Y1010919D02*
G01Y1032255D01*
X384301Y1009395D02*
G01X398271D01*
M02*