G04 FAB 3000 Version 7.8.18 - Gerber/CAM Software*
G04 RS274-X Output*
%FSLAX44Y44*%
%MIA0B0*%
%MOMM*%
%SFA1.000000B1.000000*%

%IPPOS*%
%ADD19C,0.254000*%
%ADD20C,0.127000*%
%ADD21C,3.299990*%
%ADD22C,2.100000*%
%ADD23R,2.100000X2.100000*%
%ADD24R,2.100000X2.100000*%
%ADD25R,1.500000X1.500000*%
%ADD26C,1.500000*%
%ADD27C,0.660400*%
%ADD28C,0.025400*%
%ADD32C,6.999990*%
%ADD34C,0.050800*%
%ADD35C,0.067690*%
%LNcartercharger_0*%
%LPD*%
G54D19*
X738631Y1155445D02*
G01Y1170685D01*
D02*
G01X748791Y1155445D01*
D02*
G01Y1170685D01*
X753871D02*
G01X764031D01*
D02*
G01X758951D01*
D02*
G01Y1155445D01*
Y778255D02*
G01Y763015D01*
X764031Y778255D02*
G01X758951D01*
X753871D02*
G01X764031D01*
X748791Y763015D02*
G01Y778255D01*
X738631D02*
G01X748791Y763015D01*
X738631D02*
G01Y778255D01*
X715771Y1170685D02*
G01X710691D01*
Y1155445D02*
G01X715771D01*
X710691Y763015D02*
G01X715771D01*
Y778255D02*
G01X710691D01*
X715771Y1155445D02*
G01X718311Y1157985D01*
D02*
G01Y1168145D01*
D02*
G01X715771Y1170685D01*
X723391D02*
G01Y1157985D01*
D02*
G01X725931Y1155445D01*
D02*
G01X731011D01*
D02*
G01X733551Y1157985D01*
D02*
G01Y1170685D01*
X715771Y763015D02*
G01X718311Y765555D01*
D02*
G01Y775715D01*
D02*
G01X715771Y778255D01*
X723391D02*
G01Y765555D01*
D02*
G01X725931Y763015D01*
D02*
G01X731011D01*
D02*
G01X733551Y765555D01*
D02*
G01Y778255D01*
X677671Y1152905D02*
G01X687831D01*
X677671Y760475D02*
G01X687831D01*
X692911Y1155445D02*
G01Y1170685D01*
D02*
G01X697991Y1165605D01*
D02*
G01X703071Y1170685D01*
D02*
G01Y1155445D01*
X710691Y1170685D02*
G01X708151Y1168145D01*
D02*
G01Y1157985D01*
D02*
G01X710691Y1155445D01*
X692911Y763015D02*
G01Y778255D01*
D02*
G01X697991Y773175D01*
D02*
G01X703071Y778255D01*
D02*
G01Y763015D01*
X710691Y778255D02*
G01X708151Y775715D01*
Y765555D02*
G01X710691Y763015D01*
X708151Y775715D02*
G01Y765555D01*
X304799Y1158747D02*
G01Y1173987D01*
D02*
G01X314959Y1158747D01*
D02*
G01Y1173987D01*
X320039D02*
G01X330199D01*
D02*
G01X325119D01*
D02*
G01Y1158747D01*
X325627Y776223D02*
G01Y760983D01*
X330707Y776223D02*
G01X325627D01*
X320547D02*
G01X330707D01*
X315467Y760983D02*
G01Y776223D01*
X305561D02*
G01X315467Y760983D01*
X305561D02*
G01Y776223D01*
X281939Y1173987D02*
G01X276859D01*
Y1158747D02*
G01X281939D01*
X277621Y760983D02*
G01X282701D01*
Y776223D02*
G01X277621D01*
X281939Y1158747D02*
G01X284479Y1161287D01*
D02*
G01Y1171447D01*
D02*
G01X281939Y1173987D01*
X289559D02*
G01Y1161287D01*
D02*
G01X292099Y1158747D01*
D02*
G01X297179D01*
D02*
G01X299719Y1161287D01*
D02*
G01Y1173987D01*
X282701Y760983D02*
G01X285241Y763523D01*
D02*
G01Y773683D01*
D02*
G01X282701Y776223D01*
X290321D02*
G01Y763523D01*
D02*
G01X292861Y760983D01*
D02*
G01X297941D01*
D02*
G01X300481Y763523D01*
D02*
G01Y776223D01*
X243839Y1156207D02*
G01X253999D01*
X244601Y758443D02*
G01X254761D01*
X259079Y1158747D02*
G01Y1173987D01*
D02*
G01X264159Y1168907D01*
D02*
G01X269239Y1173987D01*
D02*
G01Y1158747D01*
X276859Y1173987D02*
G01X274319Y1171447D01*
D02*
G01Y1161287D01*
D02*
G01X276859Y1158747D01*
X259841Y760983D02*
G01Y776223D01*
D02*
G01X264921Y771143D01*
D02*
G01X270001Y776223D01*
D02*
G01Y760983D01*
X277621Y776223D02*
G01X275081Y773683D01*
Y763523D02*
G01X277621Y760983D01*
X275081Y773683D02*
G01Y763523D01*
X647191Y1155445D02*
G01Y1170685D01*
D02*
G01X652271Y1165605D01*
D02*
G01X657351Y1170685D01*
D02*
G01Y1155445D01*
X647191Y763015D02*
G01Y778255D01*
D02*
G01X652271Y773175D01*
D02*
G01X657351Y778255D01*
D02*
G01Y763015D01*
X672591Y775715D02*
G01Y773175D01*
D02*
G01X670051Y770635D01*
D02*
G01X667511D01*
D02*
G01X670051D01*
D02*
G01X672591Y768095D01*
D02*
G01Y765555D01*
D02*
G01X670051Y763015D01*
D02*
G01X664971D01*
D02*
G01X662431Y765555D01*
X670051Y778255D02*
G01X672591Y775715D01*
X664971Y778255D02*
G01X670051D01*
X662431Y775715D02*
G01X664971Y778255D01*
X662431Y1168145D02*
G01X664971Y1170685D01*
D02*
G01X670051D01*
D02*
G01X672591Y1168145D01*
D02*
G01Y1165605D01*
D02*
G01X670051Y1163065D01*
D02*
G01X667511D01*
D02*
G01X670051D01*
X664971Y1155445D02*
G01X662431Y1157985D01*
X670051Y1155445D02*
G01X664971D01*
X672591Y1157985D02*
G01X670051Y1155445D01*
X672591Y1160525D02*
G01Y1157985D01*
X670051Y1163065D02*
G01X672591Y1160525D01*
X213359Y1158747D02*
G01Y1173987D01*
D02*
G01X218439Y1168907D01*
D02*
G01X223519Y1173987D01*
D02*
G01Y1158747D01*
X224281Y776223D02*
G01Y760983D01*
X219201Y771143D02*
G01X224281Y776223D01*
X214121D02*
G01X219201Y771143D01*
X214121Y760983D02*
G01Y776223D01*
X229361Y773683D02*
G01X231901Y776223D01*
D02*
G01X236981D01*
D02*
G01X239521Y773683D01*
X231901Y760983D02*
G01X229361Y763523D01*
X236981Y760983D02*
G01X231901D01*
X239521Y763523D02*
G01X236981Y760983D01*
X239521Y766063D02*
G01Y763523D01*
X236981Y768603D02*
G01X239521Y766063D01*
X234441Y768603D02*
G01X236981D01*
D02*
G01X234441D01*
X239521Y771143D02*
G01X236981Y768603D01*
X239521Y773683D02*
G01Y771143D01*
X228599Y1171447D02*
G01X231139Y1173987D01*
D02*
G01X236219D01*
D02*
G01X238759Y1171447D01*
D02*
G01Y1168907D01*
D02*
G01X236219Y1166367D01*
D02*
G01X233679D01*
D02*
G01X236219D01*
X231139Y1158747D02*
G01X228599Y1161287D01*
X236219Y1158747D02*
G01X231139D01*
X238759Y1161287D02*
G01X236219Y1158747D01*
X238759Y1163827D02*
G01Y1161287D01*
X236219Y1166367D02*
G01X238759Y1163827D01*
M02*