G04 FAB 3000 Version 7.8.18 - Gerber/CAM Software*
G04 RS274-X Output*
%FSLAX44Y44*%
%MIA0B0*%
%MOMM*%
%SFA1.000000B1.000000*%

%IPPOS*%
%ADD10R,1.300000X1.000000*%
%ADD11R,1.000000X1.300000*%
%ADD12R,1.100000X1.700000*%
%ADD13R,1.200000X2.599990*%
%ADD14R,1.700000X1.100000*%
%ADD15R,2.050010X3.049980*%
%ADD16R,0.280010X0.850010*%
%ADD17R,0.850010X0.280010*%
%ADD18R,1.949980X3.199990*%
%ADD19C,0.254000*%
%ADD20C,0.127000*%
%ADD21C,3.299990*%
%ADD22C,2.100000*%
%ADD23R,2.100000X2.100000*%
%ADD24R,2.100000X2.100000*%
%ADD25R,1.500000X1.500000*%
%ADD26C,1.500000*%
%ADD27C,0.660400*%
%ADD28C,0.025400*%
%ADD29C,0.200000*%
%ADD30C,0.152400*%
%ADD31C,0.076200*%
%ADD32C,6.999990*%
%ADD33C,0.100000*%
%ADD34C,0.050800*%
%ADD35C,0.067690*%
%LNcartercharger_0*%
%LPD*%
G36*
X448563Y1006855D02*
G01Y1002537D01*
X442721D01*
Y1006855D01*
X444245Y1008379D01*
X447039D01*
X448563Y1006855D01*
G37*
G36*
X455167Y1002537D02*
G01X450595D01*
Y1006855D01*
X452119Y1008379D01*
X455167D01*
Y1002537D01*
G37*
G36*
X440689Y1006855D02*
G01Y1002537D01*
X436117D01*
Y1008379D01*
X439165D01*
X440689Y1006855D01*
G37*
G54D10*
X490981Y1011681D03*
X316991Y1013713D03*
Y1029715D03*
G54D11*
X323341Y903985D03*
X275081Y903477D03*
X259079D03*
X275081Y923543D03*
X259079D03*
X323341D03*
X339343D03*
X385825D03*
X401827D03*
X339343Y903985D03*
X385825Y904239D03*
X401827D03*
G54D10*
X374395Y979677D03*
Y963675D03*
X391413Y979677D03*
Y963675D03*
Y990599D03*
X374395D03*
G36*
X432307Y1008379D02*
G01X424433D01*
Y1010919D01*
X432307D01*
Y1008379D01*
G37*
G36*
Y1003553D02*
G01X424433D01*
Y1005839D01*
X432307D01*
Y1003553D01*
G37*
G36*
Y1013459D02*
G01X424433D01*
Y1015745D01*
X432307D01*
Y1013459D01*
G37*
G36*
Y998473D02*
G01X424433D01*
Y1000759D01*
X432307D01*
Y998473D01*
G37*
G36*
Y1033525D02*
G01X424433D01*
Y1035811D01*
X432307D01*
Y1033525D01*
G37*
G36*
Y1028445D02*
G01X424433D01*
Y1030731D01*
X432307D01*
Y1028445D01*
G37*
G36*
Y1018539D02*
G01X424433D01*
Y1020825D01*
X432307D01*
Y1018539D01*
G37*
G36*
Y1023619D02*
G01X424433D01*
Y1025905D01*
X432307D01*
Y1023619D01*
G37*
G54D10*
X374395Y1006601D03*
G54D14*
X370839Y1068831D03*
Y1041653D03*
X396239Y1068831D03*
Y1041653D03*
G54D10*
X391413Y1006601D03*
G54D18*
X524763Y1106169D03*
G54D12*
Y1057147D03*
G54D10*
X565403Y1056639D03*
G54D14*
X605789Y1058163D03*
Y1031239D03*
G54D13*
Y1106423D03*
X561847D03*
G54D10*
X565403Y1040637D03*
X585723Y1057401D03*
Y1041399D03*
G54D18*
X466343Y1106169D03*
G54D10*
X490981Y1027683D03*
G54D12*
X497839Y1057147D03*
G54D11*
X538225Y901699D03*
X522223D03*
X453897Y902207D03*
X469899D03*
X602487Y900937D03*
X618489D03*
G36*
X466851Y1003553D02*
G01X458977D01*
Y1005839D01*
X466851D01*
Y1003553D01*
G37*
G36*
X439419Y990853D02*
G01X436879D01*
Y998981D01*
X439419D01*
Y990853D01*
G37*
G36*
X454405D02*
G01X452119D01*
Y998981D01*
X454405D01*
Y990853D01*
G37*
G54D10*
X520191Y960119D03*
Y976121D03*
X453135Y975105D03*
Y959103D03*
X474979Y975105D03*
Y959103D03*
X497585D03*
Y975105D03*
G36*
X466851Y998473D02*
G01X458977D01*
Y1000759D01*
X466851D01*
Y998473D01*
G37*
G36*
X449325Y990599D02*
G01X447293D01*
Y997965D01*
X449325D01*
Y990599D01*
G37*
G36*
X443991D02*
G01X441959D01*
Y997965D01*
X443991D01*
Y990599D01*
G37*
G36*
X440689Y1014729D02*
G01Y1011681D01*
X439165Y1010157D01*
X436117D01*
Y1016253D01*
X439165D01*
X440689Y1014729D01*
G37*
G36*
X443991Y1036319D02*
G01X441959D01*
Y1043685D01*
X443991D01*
Y1036319D01*
G37*
G36*
X449325D02*
G01X447293D01*
Y1043685D01*
X449325D01*
Y1036319D01*
G37*
G36*
X439419Y1035303D02*
G01X436879D01*
Y1043431D01*
X439419D01*
Y1035303D01*
G37*
G36*
X440689Y1022603D02*
G01Y1019555D01*
X439165Y1018031D01*
X436117D01*
Y1024127D01*
X439165D01*
X440689Y1022603D01*
G37*
G36*
X448563D02*
G01Y1019555D01*
X447039Y1018031D01*
X444245D01*
X442721Y1019555D01*
Y1022603D01*
X444245Y1024127D01*
X447039D01*
X448563Y1022603D01*
G37*
G36*
Y1027429D02*
G01X447039Y1025905D01*
X444245D01*
X442721Y1027429D01*
Y1031747D01*
X448563D01*
Y1027429D01*
G37*
G36*
X440689D02*
G01X439165Y1025905D01*
X436117D01*
Y1031747D01*
X440689D01*
Y1027429D01*
G37*
G36*
X448563Y1014729D02*
G01Y1011681D01*
X447039Y1010157D01*
X444245D01*
X442721Y1011681D01*
Y1014729D01*
X444245Y1016253D01*
X447039D01*
X448563Y1014729D01*
G37*
G36*
X455167Y1025905D02*
G01X452119D01*
X450595Y1027429D01*
Y1031747D01*
X455167D01*
Y1025905D01*
G37*
G36*
Y1018031D02*
G01X452119D01*
X450595Y1019555D01*
Y1022603D01*
X452119Y1024127D01*
X455167D01*
Y1018031D01*
G37*
G36*
Y1010157D02*
G01X452119D01*
X450595Y1011681D01*
Y1014729D01*
X452119Y1016253D01*
X455167D01*
Y1010157D01*
G37*
G36*
X466851Y1008379D02*
G01X458977D01*
Y1010919D01*
X466851D01*
Y1008379D01*
G37*
G36*
Y1028445D02*
G01X458977D01*
Y1030731D01*
X466851D01*
Y1028445D01*
G37*
G36*
Y1033525D02*
G01X458977D01*
Y1035811D01*
X466851D01*
Y1033525D01*
G37*
G36*
X454405Y1035303D02*
G01X452119D01*
Y1043431D01*
X454405D01*
Y1035303D01*
G37*
G36*
X466851Y1023619D02*
G01X458977D01*
Y1025905D01*
X466851D01*
Y1023619D01*
G37*
G36*
Y1018539D02*
G01X458977D01*
Y1020825D01*
X466851D01*
Y1018539D01*
G37*
G36*
Y1013459D02*
G01X458977D01*
Y1015745D01*
X466851D01*
Y1013459D01*
G37*
M02*