G04 FAB 3000 Version 7.8.18 - Gerber/CAM Software*
G04 RS274-X Output*
%FSLAX44Y44*%
%MIA0B0*%
%MOMM*%
%SFA1.000000B1.000000*%

%IPPOS*%
%ADD10R,1.300000X1.000000*%
%ADD11R,1.000000X1.300000*%
%ADD12R,1.100000X1.700000*%
%ADD13R,1.200000X2.599990*%
%ADD14R,1.700000X1.100000*%
%ADD15R,2.050010X3.049980*%
%ADD16R,0.280010X0.850010*%
%ADD17R,0.850010X0.280010*%
%ADD18R,1.949980X3.199990*%
%ADD19C,0.254000*%
%ADD20C,0.127000*%
%ADD21C,3.299990*%
%ADD22C,2.100000*%
%ADD23R,2.100000X2.100000*%
%ADD24R,2.100000X2.100000*%
%ADD25R,1.500000X1.500000*%
%ADD26C,1.500000*%
%ADD27C,0.660400*%
%ADD28C,0.025400*%
%ADD30C,0.152400*%
%ADD31C,0.076200*%
%ADD32C,6.999990*%
%ADD33C,0.100000*%
%ADD34C,0.050800*%
%ADD35C,0.067690*%
%LNcartercharger_0*%
%LPD*%
G36*
X307847Y1008633D02*
G01X308101Y1007617D01*
X308609Y1006855D01*
X309371Y1006347D01*
X310387Y1006093D01*
X323341D01*
X324357Y1006347D01*
X325119Y1006855D01*
X325881Y1007617D01*
Y1008633D01*
Y1011427D01*
X355599D01*
X365251D01*
Y1001775D01*
X363981D01*
X362711Y1001521D01*
X361695Y1001013D01*
X357377Y996441D01*
X356615Y995425D01*
X356361Y994155D01*
Y962151D01*
X356615Y960881D01*
X357377Y959865D01*
X366267Y950721D01*
X367283Y950213D01*
X368553Y949959D01*
X441705D01*
X451611Y940053D01*
Y911097D01*
X448817D01*
X447801D01*
X447039Y910335D01*
X446531Y909573D01*
X446277Y908557D01*
Y901953D01*
X445007Y901445D01*
X444499Y902207D01*
X420369Y926337D01*
X419099Y927099D01*
X417575Y927607D01*
X409447D01*
Y930147D01*
X409193Y931163D01*
X408685Y931925D01*
X407923Y932433D01*
X406907Y932687D01*
X404875D01*
Y934719D01*
X404367Y935989D01*
X403605Y937259D01*
X402335Y938275D01*
X400811Y938529D01*
X278129D01*
Y990345D01*
X278383Y990599D01*
X279653Y992631D01*
X280161Y994917D01*
X279653Y997203D01*
X278383Y998981D01*
X276351Y1000251D01*
X276097Y1000505D01*
X275843Y1001775D01*
X291845Y1017777D01*
X307847D01*
Y1008633D01*
G37*
G36*
X570229Y1140967D02*
G01X569721Y1140459D01*
Y1088897D01*
X537971Y1057147D01*
X528827D01*
X528573Y1058671D01*
X527557Y1059941D01*
X526287Y1060703D01*
X524763Y1060957D01*
X523493Y1060703D01*
X522223Y1059941D01*
X521207Y1058671D01*
X520953Y1057147D01*
X511555D01*
Y1139443D01*
X511301Y1139697D01*
X514095Y1142491D01*
X568705D01*
X570229Y1140967D01*
G37*
G36*
X234187Y1022857D02*
G01X235203Y1022349D01*
X236219Y1022095D01*
X270255D01*
Y1020825D01*
X270001Y1020571D01*
X268731Y1018539D01*
X268223Y1016253D01*
X268731Y1013967D01*
X270001Y1012189D01*
X271779Y1010919D01*
X273557Y1010411D01*
X274065Y1009141D01*
X238759Y973835D01*
X238251Y972819D01*
X237997Y971549D01*
Y892555D01*
X236981Y891793D01*
X235711Y890015D01*
X235203Y887729D01*
X235711Y885443D01*
Y884935D01*
X234695Y884173D01*
X227837Y891285D01*
Y1027683D01*
X229107Y1027937D01*
X234187Y1022857D01*
G37*
G36*
X435863Y1140713D02*
G01X435609Y1139697D01*
Y1045971D01*
X434847Y1045463D01*
X434339Y1044701D01*
X434085Y1043685D01*
Y1039621D01*
X432815Y1038605D01*
X432561D01*
X429005D01*
X417575Y1050035D01*
Y1074165D01*
X417321Y1075435D01*
X416559Y1076451D01*
X411733Y1081277D01*
X422147Y1091691D01*
X422909Y1092707D01*
X423163Y1093977D01*
Y1136649D01*
X428497Y1141983D01*
X435101D01*
X435863Y1140713D01*
G37*
G36*
X242315Y867663D02*
G01X241553Y866393D01*
X241045Y866647D01*
X238759Y866139D01*
X236981Y864869D01*
X235711Y862837D01*
X235203Y861059D01*
X233933Y860551D01*
X224789Y869695D01*
Y883411D01*
X226059Y883919D01*
X242315Y867663D01*
G37*
G36*
X323341Y851661D02*
G01X322833Y850645D01*
X322579Y848359D01*
X322833Y845819D01*
X323595Y843787D01*
X325119Y842009D01*
X326897Y840485D01*
X327405D01*
X327151Y839215D01*
X270763D01*
X270509Y840485D01*
X271017D01*
X272795Y842009D01*
X274319Y843787D01*
X275081Y845819D01*
X275335Y848359D01*
X275081Y850645D01*
X274319Y852677D01*
X272795Y854455D01*
X271271Y855725D01*
X271779Y856995D01*
X318007D01*
X323341Y851661D01*
G37*
G36*
X504951Y996695D02*
G01X497331Y989075D01*
X483361D01*
X479551Y992885D01*
Y997457D01*
X480313Y997965D01*
X504443D01*
X504951Y996695D01*
G37*
G36*
X654557Y1141221D02*
G01X651255Y1138427D01*
X647191Y1133855D01*
X643889Y1128267D01*
X641603Y1122425D01*
X640079Y1116329D01*
X639571Y1110233D01*
X640079Y1103883D01*
X641603Y1097787D01*
X643889Y1091945D01*
X647191Y1086611D01*
X651255Y1081785D01*
X656081Y1077467D01*
X661415Y1074419D01*
X667257Y1071879D01*
X673607Y1070355D01*
X679703Y1069847D01*
X686053Y1070355D01*
X692149Y1071879D01*
X697991Y1074419D01*
X703325Y1077467D01*
X708151Y1081785D01*
X711707Y1085595D01*
X712977Y1085087D01*
Y1010919D01*
X703833Y1001775D01*
X658621D01*
X611631Y1048765D01*
X592581D01*
X592073Y1049019D01*
X579119D01*
X578611Y1048765D01*
X565657D01*
X565403Y1049019D01*
Y1052829D01*
X566927Y1053083D01*
X568197Y1053845D01*
X568959Y1055115D01*
X569213Y1056639D01*
X568959Y1058163D01*
X568197Y1059433D01*
X566927Y1060195D01*
X565403Y1060449D01*
Y1062735D01*
X595629Y1092961D01*
Y1140205D01*
X597915Y1142491D01*
X654049D01*
X654557Y1141221D01*
G37*
G36*
X474979Y890523D02*
G01Y777239D01*
X473709Y776731D01*
X445769Y804925D01*
Y846581D01*
X446785Y847089D01*
X448563Y845565D01*
X449833Y844549D01*
X451357Y844295D01*
X452119D01*
X452881Y842771D01*
X454405Y840739D01*
X456437Y839215D01*
X458977Y838199D01*
X461517Y837691D01*
X464311Y838199D01*
X466597Y839215D01*
X468883Y840739D01*
X470407Y842771D01*
X471423Y845311D01*
X471677Y847851D01*
X471423Y850391D01*
X470407Y852931D01*
X468883Y854963D01*
X466597Y856741D01*
X464311Y857757D01*
X461517Y858011D01*
X458977Y857757D01*
X456437Y856741D01*
X454405Y854963D01*
X453389Y853439D01*
X451611Y853185D01*
X450087Y854963D01*
Y891793D01*
X451357Y893063D01*
X458469D01*
Y883411D01*
X454151D01*
X453135Y883157D01*
X452373Y882649D01*
X451611Y881887D01*
Y880871D01*
Y865885D01*
Y864869D01*
X452373Y863853D01*
X453135Y863345D01*
X454151Y863091D01*
X469137D01*
X470153Y863345D01*
X470915Y863853D01*
X471423Y864869D01*
X471677Y865885D01*
Y880871D01*
X471423Y881887D01*
X470915Y882649D01*
X470153Y883157D01*
X469137Y883411D01*
X464819D01*
Y893063D01*
X472439D01*
X474979Y890523D01*
G37*
G36*
X213359Y1089913D02*
G01X217423Y1085087D01*
X222249Y1081023D01*
X227583Y1077721D01*
X233425Y1075435D01*
X233171Y1074165D01*
X232155D01*
X230885Y1073911D01*
X229869Y1073149D01*
X219201Y1062735D01*
X218693Y1061719D01*
X218439Y1060449D01*
Y868425D01*
X218693Y867155D01*
X219201Y866139D01*
X251713Y833627D01*
X252983Y832865D01*
X253999Y832611D01*
X264159D01*
Y831341D01*
X262127Y830579D01*
X260349Y829055D01*
X258825Y827277D01*
X258063Y825245D01*
X257809Y822959D01*
X258063Y820419D01*
X258825Y818387D01*
X260349Y816609D01*
X262127Y815085D01*
X262635Y814831D01*
Y770889D01*
X262889Y769365D01*
X263905Y768095D01*
X285749Y746251D01*
X286765Y745489D01*
X288289Y745235D01*
X313943D01*
X322325Y736853D01*
X321817Y735837D01*
X317499D01*
X316483Y735583D01*
X315467Y735075D01*
X314959Y734059D01*
X314705Y733043D01*
Y712215D01*
X314959Y711199D01*
X315467Y710183D01*
X316483Y709675D01*
X317499Y709421D01*
X338327D01*
X339343Y709675D01*
X340105Y710183D01*
X340867Y711199D01*
Y712215D01*
Y733043D01*
Y734059D01*
X340105Y735075D01*
X339343Y735583D01*
X338327Y735837D01*
X331723D01*
Y736853D01*
X331469Y738377D01*
X330707Y739647D01*
X318261Y751839D01*
X316991Y752601D01*
X315721Y753109D01*
X290067D01*
X270509Y772413D01*
Y814831D01*
X271017Y815085D01*
X272795Y816609D01*
X274319Y818387D01*
X275081Y820419D01*
X275335Y822959D01*
X275081Y825245D01*
X274319Y827277D01*
X272795Y829055D01*
X271017Y830579D01*
X268985Y831341D01*
Y832611D01*
X328929D01*
Y831341D01*
X326897Y830579D01*
X325119Y829055D01*
X323595Y827277D01*
X322833Y825245D01*
X322579Y822959D01*
X322833Y820419D01*
X323595Y818387D01*
X325119Y816609D01*
X326897Y815085D01*
X327405Y814831D01*
Y774699D01*
X327659Y773175D01*
X328675Y771905D01*
X355599Y744981D01*
X356869Y743965D01*
X358393Y743711D01*
X390143D01*
X393953Y739901D01*
Y735075D01*
X391413Y734059D01*
X388619Y732027D01*
X386587Y729233D01*
X385063Y725931D01*
X384809Y722629D01*
X385063Y719327D01*
X386587Y716025D01*
X388619Y713231D01*
X391413Y711199D01*
X394461Y709929D01*
X397763Y709421D01*
X401319Y709929D01*
X404367Y711199D01*
X407161Y713231D01*
X409193Y716025D01*
X410463Y719327D01*
X410971Y722629D01*
X410463Y725931D01*
X409193Y729233D01*
X407161Y732027D01*
X404367Y734059D01*
X401827Y735075D01*
Y741679D01*
X401573Y743203D01*
X400557Y744473D01*
X394715Y750315D01*
X393445Y751331D01*
X391921Y751585D01*
X359917D01*
X335279Y776223D01*
Y814831D01*
X335787Y815085D01*
X337565Y816609D01*
X339089Y818387D01*
X339851Y820419D01*
X340105Y822959D01*
X339851Y825245D01*
X339089Y827277D01*
X337565Y829055D01*
X335787Y830579D01*
X333755Y831341D01*
Y832611D01*
X381253D01*
X382523Y832865D01*
X383539Y833627D01*
X389127Y839215D01*
X390905Y838453D01*
X393699Y838199D01*
X396239Y838453D01*
X398525Y839469D01*
X400811Y840993D01*
X402335Y843279D01*
X403351Y845565D01*
X403605Y848359D01*
X403351Y850899D01*
X402335Y853185D01*
X400811Y855471D01*
X398525Y856995D01*
X396239Y858011D01*
X393699Y858265D01*
X390905Y858011D01*
X388619Y856995D01*
X386333Y855471D01*
X384809Y853185D01*
X383793Y850899D01*
X383539Y848359D01*
X383793Y845565D01*
X384555Y843787D01*
X379983Y839215D01*
X335533D01*
X335279Y840485D01*
X335787D01*
X337565Y842009D01*
X339089Y843787D01*
X339851Y845819D01*
X340105Y848359D01*
X339851Y850645D01*
X339089Y852677D01*
X337565Y854455D01*
X335787Y855979D01*
X333755Y856741D01*
X331469Y856995D01*
X328929Y856741D01*
X327913Y856233D01*
X321817Y862329D01*
X320801Y863091D01*
X319531Y863345D01*
X255777D01*
X237743Y881379D01*
X238505Y882395D01*
X238759Y882141D01*
X241045Y881633D01*
X243331Y882141D01*
X245363Y883411D01*
X246633Y885443D01*
X247141Y887729D01*
X246633Y890015D01*
X245363Y891793D01*
X244347Y892555D01*
Y970279D01*
X267461Y993139D01*
X268477Y992885D01*
X268731Y992631D01*
X270001Y990599D01*
X270255Y990345D01*
Y934465D01*
Y932687D01*
X270001D01*
X269239Y932433D01*
X268223Y931925D01*
X267715Y931163D01*
X267207D01*
X266445D01*
X265937Y931925D01*
X265175Y932433D01*
X264159Y932687D01*
X253999D01*
X253237Y932433D01*
X252221Y931925D01*
X251713Y931163D01*
X251459Y930147D01*
Y917193D01*
X251713Y916177D01*
X252221Y915415D01*
X253237Y914653D01*
X253999D01*
X256285D01*
Y911351D01*
X253999D01*
X253237Y910843D01*
X252729Y909827D01*
Y896873D01*
X253237Y895857D01*
X253999Y895603D01*
X264159D01*
X265175Y895857D01*
X265429Y896873D01*
Y909827D01*
X265175Y910843D01*
X264159Y911351D01*
X263905D01*
Y914653D01*
X264159D01*
X265175D01*
X265937Y915415D01*
X266445Y915923D01*
X267207Y916177D01*
X267715Y915923D01*
X268223Y915415D01*
X269239Y914653D01*
X270001D01*
X280161D01*
X281177D01*
X281939Y915415D01*
X282447Y916177D01*
X282701Y917193D01*
Y930147D01*
X283209Y930655D01*
X315213D01*
X315721Y930147D01*
Y917193D01*
X315975Y916177D01*
X316483Y915415D01*
X317499Y914653D01*
X318261D01*
X320547D01*
Y912875D01*
X318261D01*
X317499D01*
X316483Y912113D01*
X315975Y911351D01*
X315721Y910335D01*
Y897381D01*
X315975Y896365D01*
X316483Y895603D01*
X317499Y895095D01*
X318261Y894841D01*
X328421D01*
X329437Y895095D01*
X330199Y895603D01*
X330707Y896365D01*
X331469D01*
X331977D01*
X332485Y895603D01*
X332993Y895349D01*
X333247Y893825D01*
X328675Y888999D01*
X327659Y887729D01*
X327405Y886459D01*
Y882395D01*
X323849D01*
X322833Y882141D01*
X322579Y881125D01*
Y866139D01*
X322833Y865123D01*
X323849Y864869D01*
X338835D01*
X339851Y865123D01*
X340105Y866139D01*
Y881125D01*
X339851Y882141D01*
X338835Y882395D01*
X335279D01*
Y884681D01*
X341121Y890523D01*
X341883Y891793D01*
X342137Y893317D01*
Y894841D01*
X344423D01*
X345439Y895095D01*
X346201Y895603D01*
X346709Y896365D01*
X346963Y897381D01*
Y910335D01*
X346709Y911351D01*
X346201Y912113D01*
X345439Y912875D01*
X344423D01*
X334263D01*
X333501D01*
X332485Y912113D01*
X331977Y911351D01*
X331469D01*
X330707D01*
X330199Y912113D01*
X329437Y912875D01*
X328421D01*
X328167D01*
Y914653D01*
X328421D01*
X329437D01*
X330199Y915415D01*
X330707Y915923D01*
X331469Y916177D01*
X331977Y915923D01*
X332485Y915415D01*
X333501Y914653D01*
X334263D01*
X344423D01*
X345439D01*
X346201Y915415D01*
X346709Y916177D01*
X346963Y917193D01*
Y930147D01*
X347471Y930655D01*
X377697D01*
X378205Y930147D01*
Y917193D01*
X378459Y916177D01*
X378967Y915415D01*
X379983Y914653D01*
X380999D01*
X383031D01*
Y913129D01*
X380999D01*
X379983D01*
X378967Y912367D01*
X378459Y911605D01*
X378205Y910589D01*
Y897635D01*
X378459Y896619D01*
X378967Y895857D01*
X379983Y895349D01*
X380999Y895095D01*
X390905D01*
X391921Y895349D01*
X392683Y895857D01*
X393191Y896619D01*
X393953D01*
X394461D01*
X394969Y895857D01*
X395985Y895349D01*
X396493Y895095D01*
X396747Y894079D01*
Y893825D01*
X390905Y887729D01*
X389889Y886459D01*
X389635Y885189D01*
Y883665D01*
X386079D01*
X385063Y883411D01*
X384301Y882903D01*
X383793Y882141D01*
X383539Y881125D01*
Y866139D01*
X383793Y865123D01*
X384301Y864361D01*
X385063Y863853D01*
X386079Y863599D01*
X401065D01*
X402081Y863853D01*
X402843Y864361D01*
X403351Y865123D01*
X403605Y866139D01*
Y881125D01*
X403351Y882141D01*
X402843Y882903D01*
X402081Y883411D01*
X401065Y883665D01*
X399287D01*
X398779Y884935D01*
X403605Y889507D01*
X404367Y890777D01*
X404875Y892301D01*
Y895095D01*
X406907D01*
X407923Y895349D01*
X408685Y895857D01*
X409193Y896619D01*
X409447Y897635D01*
Y910589D01*
X409193Y911605D01*
X408685Y912367D01*
X407923Y913129D01*
X406907D01*
X396747D01*
X395985D01*
X394969Y912367D01*
X394461Y911605D01*
X393953D01*
X393191D01*
X392683Y912367D01*
X391921Y913129D01*
X390905D01*
X390651D01*
Y914653D01*
X390905D01*
X391921D01*
X392683Y915415D01*
X393191Y915923D01*
X393953Y916177D01*
X394461Y915923D01*
X394969Y915415D01*
X395985Y914653D01*
X396747D01*
X406907D01*
X407923D01*
X408685Y915415D01*
X409193Y916177D01*
X409447Y917193D01*
Y919733D01*
X416051D01*
X437895Y897889D01*
Y803147D01*
X438149Y801623D01*
X439165Y800353D01*
X470661Y768857D01*
Y708913D01*
X470915Y707389D01*
X471931Y706119D01*
X485901Y692149D01*
X487171Y691387D01*
X488695Y690879D01*
X597661D01*
X599185Y691387D01*
X600455Y692149D01*
X612139Y704087D01*
X613155Y705357D01*
X613409Y706627D01*
Y812799D01*
X616965D01*
X617981Y813053D01*
X618743Y813561D01*
X619251Y814323D01*
X619505Y815339D01*
Y830325D01*
X619251Y831341D01*
X618743Y832103D01*
X617981Y832611D01*
X616965Y832865D01*
X601979D01*
X600963Y832611D01*
X600201Y832103D01*
X599693Y831341D01*
X599439Y830325D01*
Y826769D01*
X539495D01*
Y830325D01*
X539241Y831341D01*
X538733Y832103D01*
X537971Y832611D01*
X536955Y832865D01*
X521969D01*
X520953Y832611D01*
X520191Y832103D01*
X519683Y831341D01*
X519429Y830325D01*
Y815339D01*
X519683Y814323D01*
X520191Y813561D01*
X520953Y813053D01*
X521969Y812799D01*
X536955D01*
X537971Y813053D01*
X538733Y813561D01*
X539241Y814323D01*
X539495Y815339D01*
Y818895D01*
X599439D01*
Y815339D01*
X599693Y814323D01*
X600201Y813561D01*
X600963Y813053D01*
X601979Y812799D01*
X605535D01*
Y708405D01*
X596137Y698753D01*
X490219D01*
X478535Y710437D01*
Y730249D01*
X479551Y730757D01*
X490219Y720089D01*
X491489Y719327D01*
X492759Y719073D01*
X504951D01*
Y712469D01*
X505205Y711453D01*
X505713Y710437D01*
X506729Y709929D01*
X507745Y709675D01*
X528573D01*
X529589Y709929D01*
X530351Y710437D01*
X531113Y711453D01*
Y712469D01*
Y733297D01*
Y734313D01*
X530351Y735329D01*
X529589Y735837D01*
X528573Y736091D01*
X507745D01*
X506729Y735837D01*
X505713Y735329D01*
X505205Y734313D01*
X504951Y733297D01*
Y726693D01*
X494537D01*
X482853Y738377D01*
Y892047D01*
X482345Y893571D01*
X481583Y894841D01*
X477519Y898905D01*
Y908557D01*
X477265Y909573D01*
X476757Y910335D01*
X475741Y911097D01*
X474979D01*
X464819D01*
Y933703D01*
X477265Y946149D01*
X477773Y947165D01*
X478027Y948435D01*
Y951483D01*
X481329D01*
X482345Y951737D01*
X483107Y952245D01*
X483869Y953007D01*
Y954023D01*
Y964183D01*
Y965199D01*
X483107Y965961D01*
X482345Y966469D01*
Y967231D01*
Y967739D01*
X483107Y968247D01*
X483869Y969009D01*
Y970025D01*
Y970279D01*
X488441D01*
Y970025D01*
X488695Y969009D01*
X489203Y968247D01*
X490219Y967739D01*
X491235Y967485D01*
X499617D01*
X501649Y965707D01*
X502665Y964945D01*
X503935Y964691D01*
X536447D01*
X536955Y963421D01*
X535431Y962405D01*
X534161Y960373D01*
X533653Y958087D01*
X534161Y955801D01*
X535431Y954023D01*
X536447Y953261D01*
Y914653D01*
X534923Y913129D01*
X534161Y912113D01*
X533907Y910843D01*
Y910589D01*
X533145D01*
X532129D01*
X531367Y909827D01*
X530859Y909319D01*
X530097Y909065D01*
X529335Y909319D01*
X528827Y909827D01*
X528065Y910589D01*
X527049D01*
X517143D01*
X516127D01*
X515365Y909827D01*
X514603Y909065D01*
Y908049D01*
Y898651D01*
X506729Y890523D01*
X505713Y889253D01*
X505459Y887983D01*
Y776223D01*
X505713Y774699D01*
X506729Y773429D01*
X515873Y764031D01*
X517143Y763269D01*
X518667Y763015D01*
X570483D01*
X584199Y749299D01*
Y735329D01*
X581659Y734313D01*
X578865Y732281D01*
X576833Y729487D01*
X575309Y726185D01*
X575055Y722883D01*
X575309Y719581D01*
X576833Y716279D01*
X578865Y713485D01*
X581659Y711453D01*
X584707Y710183D01*
X588009Y709675D01*
X591565Y710183D01*
X594613Y711453D01*
X597407Y713485D01*
X599439Y716279D01*
X600709Y719581D01*
X601217Y722883D01*
X600709Y726185D01*
X599439Y729487D01*
X597407Y732281D01*
X594613Y734313D01*
X592073Y735329D01*
Y750823D01*
X591819Y752347D01*
X590803Y753617D01*
X574801Y769619D01*
X573531Y770381D01*
X572007Y770635D01*
X520191D01*
X513333Y777747D01*
Y886205D01*
X519429Y892555D01*
X527049D01*
X528065Y892809D01*
X528827Y893317D01*
X529335Y894079D01*
X530097D01*
X530859D01*
X531367Y893317D01*
X532129Y892809D01*
X533145Y892555D01*
X540765D01*
X545337Y887983D01*
Y858265D01*
X539749Y852931D01*
X538225Y853185D01*
X536701Y855471D01*
X534415Y856995D01*
X532129Y858011D01*
X529589Y858265D01*
X526795Y858011D01*
X524509Y856995D01*
X522223Y855471D01*
X520699Y853185D01*
X519683Y850899D01*
X519429Y848359D01*
X519683Y845565D01*
X520699Y843279D01*
X522223Y840993D01*
X524509Y839469D01*
X526795Y838453D01*
X529589Y838199D01*
X532129Y838453D01*
X534415Y839469D01*
X536701Y840993D01*
X538225Y843279D01*
X538733Y844295D01*
X540765D01*
X542289Y844549D01*
X543559Y845565D01*
X551941Y853947D01*
X552703Y855217D01*
X552957Y856741D01*
Y889507D01*
X552703Y891031D01*
X551941Y892301D01*
X545591Y898651D01*
Y908049D01*
Y909065D01*
X544829Y909827D01*
X544067Y910589D01*
X543051D01*
X542543Y911859D01*
Y912113D01*
X542797Y913383D01*
Y953261D01*
X543813Y954023D01*
X545083Y955801D01*
X545591Y958087D01*
X545083Y960373D01*
X543813Y962405D01*
X542289Y963421D01*
X542797Y964691D01*
X574039D01*
X574547Y963675D01*
X576579Y962405D01*
X578865Y961897D01*
X581151Y962405D01*
X583183Y963675D01*
X584453Y965707D01*
X584707Y967993D01*
Y968247D01*
X585977Y968755D01*
X599439Y955293D01*
Y910081D01*
X597407D01*
X596391Y909827D01*
X595629Y909319D01*
X594867Y908303D01*
Y907287D01*
Y894333D01*
Y893317D01*
X595629Y892555D01*
X596391Y892047D01*
X597407Y891793D01*
X607313D01*
X608329Y892047D01*
X609091Y892555D01*
X609599Y893317D01*
X610361D01*
X611123D01*
X611631Y892555D01*
X612393Y892047D01*
X613409Y891793D01*
X621029D01*
X622553Y890269D01*
Y854963D01*
X620013Y852423D01*
X618489Y852677D01*
X618235Y853185D01*
X616711Y855471D01*
X614425Y856995D01*
X612139Y858011D01*
X609599Y858265D01*
X606805Y858011D01*
X604519Y856995D01*
X602233Y855471D01*
X600709Y853185D01*
X599693Y850899D01*
X599439Y848359D01*
X599693Y845565D01*
X600709Y843279D01*
X602233Y840993D01*
X604519Y839469D01*
X606805Y838453D01*
X609599Y838199D01*
X612139Y838453D01*
X614425Y839469D01*
X616711Y840993D01*
X618235Y843279D01*
X618743Y844295D01*
X621283D01*
X622807Y844549D01*
X624077Y845565D01*
X629157Y850645D01*
X629919Y851915D01*
X630173Y853439D01*
Y891793D01*
X629919Y893317D01*
X629157Y894587D01*
X625855Y897889D01*
Y907287D01*
Y908303D01*
X625093Y909319D01*
X624331Y909827D01*
X623315Y910081D01*
X613409D01*
X612393Y909827D01*
X611631Y909319D01*
X611123Y908557D01*
X610361Y908303D01*
X609599Y908557D01*
X609091Y909319D01*
X608329Y909827D01*
X607313Y910081D01*
Y956817D01*
X607059Y958341D01*
X606043Y959611D01*
X605027Y960627D01*
X605535Y961897D01*
X607313Y962405D01*
X609345Y963675D01*
X610107Y964691D01*
X647445D01*
X658367Y953769D01*
X656843Y951483D01*
X655319Y948181D01*
X655065Y944879D01*
X655319Y941577D01*
X656843Y938275D01*
X658875Y935481D01*
X661669Y933449D01*
X664717Y932179D01*
X668019Y931671D01*
X671575Y932179D01*
X674623Y933449D01*
X677417Y935481D01*
X679449Y938275D01*
X680719Y941577D01*
X681227Y944879D01*
X680719Y948181D01*
X679449Y951483D01*
X677417Y954277D01*
X674623Y956309D01*
X671575Y957579D01*
X668019Y958087D01*
X664717Y957579D01*
X663955Y957325D01*
X651255Y970279D01*
X649985Y970787D01*
X648969Y971041D01*
X610107D01*
X609345Y972057D01*
X607313Y973327D01*
X605027Y973835D01*
X602741Y973327D01*
X600963Y972057D01*
X599693Y970025D01*
X599185Y968247D01*
X597915Y967739D01*
X586993Y978915D01*
X585723Y979677D01*
X584199Y979931D01*
X529335D01*
Y981201D01*
X529081Y982217D01*
X528573Y982979D01*
X527557Y983487D01*
X526541Y983741D01*
X517905D01*
X513841Y987805D01*
X512571Y988821D01*
X511047Y989075D01*
X509777D01*
X509269Y990091D01*
X536193Y1017015D01*
X537209Y1018285D01*
X537463Y1019809D01*
Y1029715D01*
X544321Y1036827D01*
X556259D01*
Y1035557D01*
X556513Y1034541D01*
X557021Y1033779D01*
X557783Y1033271D01*
X558799Y1033017D01*
X571753D01*
X572769Y1033271D01*
X573785Y1033779D01*
X574293Y1034541D01*
X574547Y1035557D01*
Y1038605D01*
X576579D01*
Y1036319D01*
X576833Y1035303D01*
X577341Y1034541D01*
X578103Y1034033D01*
X579119Y1033779D01*
X592073D01*
X593089Y1034033D01*
X593851Y1034541D01*
X594613Y1035303D01*
Y1036319D01*
Y1046225D01*
X610615D01*
X656843Y999997D01*
X657605Y999489D01*
X658621Y999235D01*
X703833D01*
X704849Y999489D01*
X705611Y999997D01*
X714755Y1009141D01*
X716025Y1008887D01*
Y737615D01*
X714755Y737361D01*
X712215Y741425D01*
X708151Y746251D01*
X703325Y750315D01*
X697991Y753617D01*
X692149Y756157D01*
X686053Y757681D01*
X679703Y758189D01*
X673607Y757681D01*
X667257Y756157D01*
X661415Y753617D01*
X656081Y750315D01*
X651255Y746251D01*
X647191Y741425D01*
X643889Y736091D01*
X641603Y730249D01*
X640079Y724153D01*
X639571Y717803D01*
X640079Y711453D01*
X641603Y705357D01*
X643889Y699515D01*
X647191Y694181D01*
X651255Y689355D01*
X656081Y685291D01*
X660907Y682497D01*
X660653Y681227D01*
X268985D01*
X268477Y682243D01*
X270255Y683259D01*
X275081Y687323D01*
X279145Y692149D01*
X282447Y697737D01*
X284733Y703325D01*
X286257Y709675D01*
X286765Y715771D01*
X286257Y722121D01*
X284733Y728217D01*
X282447Y734059D01*
X279145Y739393D01*
X275081Y744219D01*
X270255Y748283D01*
X264667Y751585D01*
X259079Y754125D01*
X252729Y755649D01*
X246633Y756157D01*
X240283Y755649D01*
X234187Y754125D01*
X228345Y751585D01*
X223011Y748283D01*
X218185Y744219D01*
X214121Y739393D01*
X212343Y736853D01*
X211073Y737107D01*
Y1091183D01*
X212343Y1091437D01*
X213359Y1089913D01*
G37*
G36*
X661923Y1146047D02*
G01X661415D01*
X657605Y1143507D01*
X657097D01*
X656081Y1144015D01*
X655827D01*
Y1144269D01*
X655573Y1144523D01*
X655065Y1144777D01*
X654557D01*
X654049Y1145031D01*
X597915D01*
X596899Y1144777D01*
X596137Y1144269D01*
X593851Y1141983D01*
X593343Y1141221D01*
X593089Y1140205D01*
Y1093977D01*
X563625Y1064513D01*
X563371Y1064259D01*
X558799D01*
X557783Y1064005D01*
X557021Y1063497D01*
X556513Y1062735D01*
X556259Y1061719D01*
Y1060449D01*
X552703D01*
X551179Y1060195D01*
X549909Y1059433D01*
X529843Y1039367D01*
X528827Y1039875D01*
Y1045971D01*
X530351D01*
X531367Y1046225D01*
X532129Y1046733D01*
X532891Y1047749D01*
Y1048511D01*
Y1054607D01*
X537971D01*
X538987D01*
X539749Y1055369D01*
X571499Y1087119D01*
X572007Y1087881D01*
X572261Y1088897D01*
Y1139443D01*
X572515Y1139951D01*
X572769Y1140967D01*
X572515Y1141983D01*
X572007Y1142745D01*
X570483Y1144269D01*
X569721Y1144777D01*
X568705Y1145031D01*
X514095D01*
X513079Y1144777D01*
X512317Y1144269D01*
X509523Y1141475D01*
X509015Y1140713D01*
X508761Y1139697D01*
X509015Y1138681D01*
Y1138427D01*
Y1057147D01*
X509269Y1056131D01*
X509777Y1055369D01*
X510539Y1054607D01*
X511555D01*
X516889D01*
Y1048511D01*
Y1047749D01*
X517651Y1046733D01*
X518413Y1046225D01*
X519429Y1045971D01*
X520953D01*
Y1024889D01*
X516127Y1020317D01*
X514857Y1020571D01*
X514603Y1021841D01*
X513333Y1023873D01*
X511301Y1025143D01*
X509015Y1025651D01*
X506729Y1025143D01*
X504951Y1023873D01*
X504189Y1022857D01*
X468883D01*
X468121Y1023365D01*
X467105Y1023619D01*
X458723D01*
X457707Y1023365D01*
X456691Y1022857D01*
X456183Y1022095D01*
X455929Y1021079D01*
Y1020317D01*
X442975D01*
Y1014221D01*
X455929D01*
Y1013205D01*
X456183Y1012189D01*
X456437D01*
X456183Y1011935D01*
X455929Y1010919D01*
Y1008125D01*
X456183Y1007363D01*
X456437Y1007109D01*
X456183D01*
X455929Y1006093D01*
Y1003299D01*
X456183Y1002537D01*
X455929Y1002283D01*
X455421Y1001775D01*
X454913D01*
X454659D01*
X451865D01*
X450849Y1001521D01*
X449833Y1001013D01*
X449325Y1000251D01*
X449071Y999235D01*
Y990599D01*
X449325Y990091D01*
Y982725D01*
X446531D01*
X445515Y982471D01*
X444753Y981963D01*
X444245Y981201D01*
X443991Y980185D01*
Y970025D01*
X444245Y969009D01*
X444753Y968247D01*
X445515Y967739D01*
X446531Y967485D01*
X459739D01*
Y962405D01*
X459993Y960881D01*
X460755Y959611D01*
X463041Y957325D01*
X464311Y956563D01*
X465835Y956309D01*
Y954023D01*
X466089Y953007D01*
X466597Y952245D01*
X467359Y951737D01*
X468375Y951483D01*
X471677D01*
Y949705D01*
X459485Y937513D01*
X459231D01*
X458215Y937767D01*
Y941323D01*
X457961Y942593D01*
X457199Y943609D01*
X445515Y955293D01*
X444245Y956055D01*
X443229Y956309D01*
X401065D01*
X400303Y957579D01*
X400557Y958595D01*
Y960627D01*
X418083D01*
X419607Y961135D01*
X420877Y961897D01*
X431037Y972057D01*
X432053Y973327D01*
X432307Y974851D01*
Y995679D01*
X432561D01*
X433577Y995933D01*
X434593Y996441D01*
X435101Y997203D01*
X435355Y998219D01*
Y1001013D01*
X435101Y1002029D01*
X434847D01*
X435101Y1002283D01*
X435355Y1003299D01*
Y1006093D01*
X435101Y1007109D01*
X434847D01*
X435101Y1007363D01*
X435355Y1008125D01*
Y1010919D01*
X435101Y1011935D01*
X434847Y1012189D01*
X435101D01*
X435355Y1013205D01*
Y1015999D01*
X435101Y1017015D01*
X434847Y1017269D01*
X435101D01*
X435355Y1018285D01*
Y1021079D01*
X435101Y1022095D01*
X434847D01*
X435101Y1022349D01*
X435355Y1023365D01*
Y1026159D01*
X435101Y1026921D01*
X434847Y1027175D01*
X435101D01*
X435355Y1028191D01*
Y1030985D01*
X435101Y1031747D01*
X435355Y1032001D01*
X435863Y1032509D01*
X436371D01*
X436625D01*
X439419D01*
X440435Y1032763D01*
X441451Y1033271D01*
X441959Y1034033D01*
X442213Y1035049D01*
Y1036827D01*
X449071D01*
Y1035049D01*
X449325Y1034033D01*
X449833Y1033271D01*
X450849Y1032763D01*
X451865Y1032509D01*
X454659D01*
X454913D01*
X456183Y1032255D01*
X456691Y1031493D01*
X457707Y1030731D01*
X458723D01*
X467105D01*
X468121D01*
X468883Y1031493D01*
X469645Y1032255D01*
Y1033271D01*
Y1036065D01*
Y1037081D01*
X468883Y1037843D01*
X468121Y1038351D01*
X467105Y1038605D01*
X466089D01*
Y1044701D01*
X488441Y1067053D01*
X489203Y1068069D01*
X489457Y1069339D01*
Y1137665D01*
X489203Y1138935D01*
X488441Y1139951D01*
X482091Y1146301D01*
X482599Y1147317D01*
X661669D01*
X661923Y1146047D01*
G37*
G36*
X482853Y1136395D02*
G01Y1070609D01*
X460501Y1048511D01*
X459993Y1047495D01*
X459739Y1046225D01*
Y1038605D01*
X458723D01*
X458469D01*
X457199Y1039621D01*
Y1043685D01*
X456945Y1044701D01*
X456437Y1045463D01*
X456183Y1046479D01*
X478535Y1068577D01*
X479043Y1069339D01*
X479297Y1070355D01*
Y1138173D01*
X480313Y1138681D01*
X482853Y1136395D01*
G37*
G36*
X476503Y1070355D02*
G01X453135Y1046987D01*
Y1039367D01*
X438149D01*
Y1139697D01*
X438911Y1140459D01*
X476503D01*
Y1070355D01*
G37*
G36*
X417829Y1005331D02*
G01X415797Y1003045D01*
X415035Y1002029D01*
X414781Y1000759D01*
Y981201D01*
X408431Y974851D01*
X374395D01*
X373125Y974597D01*
X372109Y973835D01*
X371347Y972819D01*
X371093Y971549D01*
Y971295D01*
X367791D01*
X366775Y971041D01*
X366013Y970533D01*
X365505Y969517D01*
X365251Y968501D01*
Y962659D01*
X364235Y962151D01*
X362965Y963421D01*
Y992885D01*
X365505Y995425D01*
X400303D01*
X401573Y995679D01*
X402589Y996441D01*
X405637Y999235D01*
X406399Y1000505D01*
X406653Y1001521D01*
Y1004823D01*
X408177Y1006347D01*
X417321D01*
X417829Y1005331D01*
G37*
G36*
X411225Y1072895D02*
G01Y1048765D01*
X411479Y1047495D01*
X411987Y1046479D01*
X421639Y1036827D01*
Y1036065D01*
Y1033271D01*
X420369Y1032255D01*
X409701D01*
X408431Y1033525D01*
Y1053845D01*
X408177Y1054861D01*
X407669Y1055623D01*
X400811Y1062481D01*
X400049Y1062989D01*
X399033Y1063243D01*
X387857D01*
X387603D01*
X387349Y1063497D01*
Y1063751D01*
X387095Y1064005D01*
X386841D01*
Y1064259D01*
X386587D01*
X386333Y1064513D01*
X386079D01*
X385825Y1064767D01*
X385571D01*
X385317D01*
X381507D01*
X381253D01*
X380999D01*
X380745Y1064513D01*
X380491D01*
X380237Y1064259D01*
X379983D01*
Y1064005D01*
X379729D01*
X379475Y1063751D01*
Y1063497D01*
X379221Y1063243D01*
X378967D01*
X362457D01*
X362203D01*
X361949Y1063497D01*
Y1063751D01*
X361695Y1064005D01*
X361441D01*
Y1064259D01*
X361187D01*
X360933Y1064513D01*
X360679D01*
X360425Y1064767D01*
X360171D01*
X359917D01*
X306831D01*
X306323Y1066037D01*
X317499Y1077213D01*
X406907D01*
X411225Y1072895D01*
G37*
G36*
X423671Y1146301D02*
G01X417575Y1140205D01*
X416813Y1139189D01*
X416559Y1137919D01*
Y1095247D01*
X407923Y1086611D01*
X314959D01*
X313689Y1086357D01*
X312673Y1085595D01*
X300989Y1074165D01*
X258317D01*
Y1075435D01*
X264159Y1077721D01*
X269493Y1081023D01*
X274319Y1085087D01*
X278383Y1089913D01*
X281685Y1095247D01*
X283971Y1101089D01*
X285495Y1107439D01*
X286003Y1113535D01*
X285495Y1119885D01*
X283971Y1125981D01*
X281685Y1131823D01*
X278383Y1137157D01*
X274319Y1141983D01*
X269493Y1146047D01*
Y1146301D01*
X270001Y1147317D01*
X423163D01*
X423671Y1146301D01*
G37*
G36*
X385825Y1061465D02*
G01X386587Y1060957D01*
X387603Y1060703D01*
X399033D01*
X405891Y1053845D01*
Y1032255D01*
X408685Y1029715D01*
X428497D01*
Y1024635D01*
X236219D01*
X229361Y1031493D01*
Y1055369D01*
X236219Y1062227D01*
X359917D01*
X360425Y1061465D01*
X361187Y1060957D01*
X362203Y1060703D01*
X379221D01*
X380237Y1060957D01*
X380999Y1061465D01*
X381507Y1062227D01*
X385317D01*
X385825Y1061465D01*
G37*
%LNcartercharger_1*%
%LPC*%
G36*
X280161Y911351D02*
G01X270001D01*
X269239Y910843D01*
X268731Y909827D01*
Y896873D01*
X269239Y895857D01*
Y894587D01*
X263905Y888999D01*
X262889Y887729D01*
X262635Y886205D01*
Y882395D01*
X259079D01*
X258063Y882141D01*
X257809Y881125D01*
Y866139D01*
X258063Y865123D01*
X259079Y864869D01*
X274065D01*
X275081Y865123D01*
X275335Y866139D01*
Y881125D01*
X275081Y882141D01*
X274065Y882395D01*
X270509D01*
Y884681D01*
X276859Y891031D01*
X277621Y892301D01*
X278129Y893825D01*
Y895603D01*
X280161D01*
X281177Y895857D01*
X281431Y896873D01*
Y909827D01*
X281177Y910843D01*
X280161Y911351D01*
G37*
G36*
X393699Y832865D02*
G01X390905Y832611D01*
X388619Y831595D01*
X386333Y830071D01*
X384809Y827785D01*
X383793Y825499D01*
X383539Y822959D01*
X383793Y820165D01*
X384809Y817879D01*
X386333Y815593D01*
X388619Y814069D01*
X390905Y813053D01*
X392429Y812799D01*
X429005Y776223D01*
Y735075D01*
X426211Y734059D01*
X423671Y732027D01*
X421385Y729233D01*
X420115Y725931D01*
X419607Y722629D01*
X420115Y719327D01*
X421385Y716025D01*
X423671Y713231D01*
X426211Y711199D01*
X429513Y709929D01*
X432815Y709421D01*
X436371Y709929D01*
X439419Y711199D01*
X442213Y713231D01*
X444245Y716025D01*
X445515Y719327D01*
X446023Y722629D01*
X445515Y725931D01*
X444245Y729233D01*
X442213Y732027D01*
X439419Y734059D01*
X436879Y735075D01*
Y777747D01*
X436371Y779271D01*
X435609Y780541D01*
X400811Y815593D01*
X402335Y817879D01*
X403351Y820165D01*
X403605Y822959D01*
X403351Y825499D01*
X402335Y827785D01*
X400811Y830071D01*
X398525Y831595D01*
X396239Y832611D01*
X393699Y832865D01*
G37*
%LNcartercharger_2*%
%LPD*%
G54D11*
X453897Y902207D03*
G54D28*
X457453Y1017269D02*
G01X457707D01*
D02*
G01X457453D01*
D02*
G01X457707D01*
X458469D02*
G01X458215D01*
D02*
G01X458469D01*
D02*
G01X458215D01*
X458469D02*
G01X458723D01*
D02*
G01X458469D01*
D02*
G01X458723D01*
X457961D02*
G01X458215D01*
G54D19*
X446023Y893317D02*
G01X454913Y902207D01*
G54D28*
X455929Y1017269D02*
G01Y1017523D01*
X456945Y1017015D02*
G01Y1017269D01*
D02*
G01X456691D01*
D02*
G01X456945D01*
Y1017523D02*
G01Y1017269D01*
D02*
G01X457199D01*
X457453D02*
G01X457199D01*
D02*
G01X457453D01*
X456691D03*
X456437D03*
G54D15*
X445769D03*
G54D20*
X454913Y902207D02*
G01Y941323D01*
X443229Y953007D02*
G01X454913Y941323D01*
G54D28*
Y1017269D02*
G01X454659D01*
D02*
G01X454913D01*
X454659D02*
G01X454913D01*
X454405D02*
G01X454659D01*
X454913D03*
X455421D02*
G01Y1017523D01*
D02*
G01X455675Y1017269D01*
D02*
G01X455421D01*
X455675D02*
G01Y1017523D01*
G54D16*
X453135Y1039367D03*
Y994917D03*
G54D19*
Y974089D02*
G01Y994917D01*
G54D20*
D03*
G54D27*
X450341Y1027429D03*
X450849Y1017523D03*
X451103Y1007363D03*
G54D28*
X453897Y1017269D02*
G01X453643D01*
D02*
G01X453897D01*
X453643D02*
G01X453897D01*
X453643D02*
G01X453389D01*
D02*
G01X453643D01*
D02*
G01X453389D01*
Y1017523D02*
G01X453135D01*
X453389Y1017269D02*
G01Y1017523D01*
X453135Y1017269D02*
G01X453389D01*
X453897D02*
G01X454151D01*
D02*
G01X453897D01*
X454151Y1017015D02*
G01X454405D01*
D02*
G01Y1017269D01*
D02*
G01X454151D01*
D02*
G01X454405D01*
G54D19*
X446023Y853439D02*
G01X451357Y848359D01*
G54D28*
X452119Y1017269D02*
G01X452373D01*
D02*
G01X452119D01*
X451865D02*
G01X452119D01*
D02*
G01X451865D01*
X452627D02*
G01X452881D01*
X453135Y1017523D02*
G01Y1017269D01*
X452881D02*
G01X452627D01*
X452881Y1017523D02*
G01Y1017269D01*
X452627D02*
G01X452373D01*
D02*
G01X452627D01*
D02*
G01X452373D01*
X450595D03*
X450341Y1017523D02*
G01Y1017269D01*
D02*
G01Y1017523D01*
X451103Y1017269D03*
X451357D02*
G01Y1017523D01*
X451611Y1017269D02*
G01X451357D01*
D02*
G01X451611D01*
D02*
G01X451357D01*
X451611D02*
G01X451865D01*
X450849D03*
X448563D02*
G01Y1017523D01*
X448309Y1017269D02*
G01X448563D01*
D02*
G01X448309Y1017523D01*
X449071Y1017269D02*
G01Y1017523D01*
D02*
G01Y1017269D01*
X449325D02*
G01Y1017523D01*
D02*
G01Y1017269D01*
X449579D02*
G01Y1017523D01*
D02*
G01Y1017269D01*
X449833Y1017523D02*
G01Y1017269D01*
G54D19*
X446023Y853439D02*
G01Y893317D01*
G54D28*
X447039Y1017269D02*
G01X447293D01*
D02*
G01X447039D01*
D03*
X447293Y1017523D02*
G01Y1017269D01*
D02*
G01X447547D01*
D02*
G01X447801D01*
D02*
G01X447547D01*
D02*
G01X447801D01*
X448055D02*
G01Y1017523D01*
X448309D02*
G01Y1017269D01*
X447293Y1017015D02*
G01Y1017269D01*
G54D11*
X538225Y901699D03*
G54D19*
X537209D02*
G01X549147Y889507D01*
X529081Y1033017D02*
G01X552703Y1056639D01*
X520191Y976121D02*
G01X584199D01*
X529589Y848359D02*
G01X540765D01*
X518667Y766825D02*
G01X572007D01*
X529589Y822959D02*
G01X609599D01*
X533399Y1031239D02*
G01X542797Y1040637D01*
X488695Y694943D02*
G01X597661D01*
G54D20*
X503935Y967993D02*
G01X578865D01*
X537209Y910843D02*
G01X539749Y913383D01*
G54D27*
Y958087D03*
G54D19*
X338327Y893317D02*
G01Y903985D01*
X274065Y893825D02*
G01Y903477D01*
X331469Y886459D02*
G01X338327Y893317D01*
X266699Y886205D02*
G01X274065Y893825D01*
G54D20*
X221487Y868425D02*
G01Y1060449D01*
X224535Y889761D02*
G01Y1059179D01*
X241045Y887729D02*
G01Y971549D01*
G54D19*
X400811Y923543D02*
G01X417575D01*
X393699Y817117D02*
G01X432815Y777747D01*
X391413Y964691D02*
G01X418083D01*
X417575Y923543D02*
G01X441705Y899413D01*
G54D20*
X391159Y1014729D02*
G01X428497D01*
X406907Y1009649D02*
G01X428497D01*
X409955Y971549D02*
G01X418083Y979931D01*
X414273Y1048765D02*
G01X428497Y1034541D01*
X409447Y1083309D02*
G01X419861Y1093977D01*
G54D19*
X266699Y873759D02*
G01Y886205D01*
Y770889D02*
G01Y822959D01*
Y770889D02*
G01X288289Y749045D01*
G54D25*
X266699Y873759D03*
G54D26*
Y848359D03*
Y822959D03*
G54D27*
X241045Y887729D03*
Y860551D03*
G54D21*
X246633Y715771D03*
G54D20*
X266445Y848359D02*
G01X266699D01*
X253491D02*
G01X266445D01*
X241045Y860551D02*
G01X253491Y848359D01*
X224535Y889761D02*
G01X254253Y860043D01*
X221487Y868425D02*
G01X253999Y835913D01*
G54D19*
X288289Y749045D02*
G01X315721D01*
G54D20*
X254253Y860043D02*
G01X319531D01*
G54D19*
X327913Y722629D02*
G01Y736853D01*
X315721Y749045D02*
G01X327913Y736853D01*
X331469Y873759D02*
G01Y886459D01*
Y774699D02*
G01Y822959D01*
Y774699D02*
G01X358393Y747521D01*
G54D20*
X319531Y860043D02*
G01X331469Y848359D01*
G54D24*
X327913Y722629D03*
G54D25*
X331469Y873759D03*
G54D26*
Y848359D03*
Y822959D03*
G54D22*
X362965Y722629D03*
G54D10*
X497585Y975105D03*
Y959103D03*
G54D12*
X497839Y1057147D03*
G54D19*
X490981Y1011681D02*
G01X513079D01*
X474979Y974089D02*
G01X497585D01*
X480313Y1001775D02*
G01X509523D01*
X492759Y722883D02*
G01X518159D01*
X498855Y985011D02*
G01X533399Y1019809D01*
X481837Y985011D02*
G01X498855D01*
D02*
G01X511047D01*
G54D20*
X462787Y1019555D02*
G01X509015D01*
X497585Y974089D02*
G01X503935Y967993D01*
G54D19*
X274319Y934719D02*
G01X338581D01*
G54D20*
X302259Y1070863D02*
G01X314959Y1083309D01*
X303529Y1067815D02*
G01X316229Y1080261D01*
X233425Y1067815D02*
G01X303529D01*
X290575Y1021079D02*
G01X361187D01*
G54D11*
X618489Y900937D03*
G54D19*
X617473D02*
G01X626363Y891793D01*
X609599Y848359D02*
G01X621283D01*
G54D20*
X605027Y967993D02*
G01X648969D01*
G54D19*
X626363Y853439D02*
G01Y891793D01*
X621283Y848359D02*
G01X626363Y853439D01*
G54D23*
X668019Y1014983D03*
G54D22*
Y979931D03*
Y944879D03*
Y909827D03*
G54D21*
X679703Y717803D03*
Y1110233D03*
G54D20*
X648969Y967993D02*
G01X668019Y948689D01*
Y944879D02*
G01Y948689D01*
G54D11*
X323341Y923543D03*
X339343D03*
Y903985D03*
X323341D03*
G54D19*
X338327Y923543D02*
G01Y934465D01*
X324357Y903985D02*
G01Y923543D01*
G54D20*
X374395Y964691D02*
G01Y971549D01*
X363981Y998727D02*
G01X374395D01*
X359663Y962151D02*
G01X368553Y953007D01*
G54D27*
X374395Y991615D03*
Y978661D03*
G54D20*
X359663Y962151D02*
G01Y994155D01*
D02*
G01X363981Y998727D01*
G54D19*
X338327Y934465D02*
G01X338581Y934719D01*
G54D20*
X374395Y998727D02*
G01Y1005585D01*
G54D10*
X316991Y1013713D03*
Y1029715D03*
G54D14*
X370839Y1041653D03*
Y1068831D03*
G54D19*
X316991Y1013713D02*
G01X317753Y1014729D01*
G54D20*
X361187Y1021079D02*
G01X362457Y1019555D01*
G54D27*
X370839Y1068831D03*
X344931Y1071117D03*
X331215Y1070863D03*
X317499D03*
G54D20*
X374395Y1005585D03*
X317753Y1014729D02*
G01X355599D01*
D03*
G54D19*
X428497Y974851D02*
G01Y999743D01*
X418083Y964691D02*
G01X428497Y974851D01*
G54D20*
X419861Y1093977D02*
G01Y1137919D01*
D02*
G01X427227Y1145031D01*
X421893Y1004569D02*
G01X428497D01*
X418083Y1000759D02*
G01X421893Y1004569D01*
X418083Y979931D02*
G01Y1000759D01*
G54D17*
X428497Y999743D03*
Y1004569D03*
Y1009649D03*
Y1014729D03*
Y1019555D03*
Y1024635D03*
Y1029715D03*
Y1034541D03*
G54D19*
X432815Y722629D02*
G01Y777747D01*
G54D22*
Y722629D03*
G54D16*
X438149Y994917D03*
Y1039367D03*
G54D27*
X439927Y1027683D03*
X439673Y1017777D03*
G54D28*
X445769Y1017523D02*
G01Y1017269D01*
X446023D03*
X446277Y1017015D02*
G01Y1017269D01*
X446531D02*
G01Y1017015D01*
Y1017269D03*
X446785D03*
X445769D02*
G01Y1017523D01*
G54D27*
X439673Y1007871D03*
G54D19*
X441705Y803147D02*
G01Y899413D01*
X397763Y722629D02*
G01Y741679D01*
X391921Y747521D02*
G01X397763Y741679D01*
X393699Y817117D02*
G01Y822959D01*
Y885189D02*
G01X400811Y892301D01*
G54D22*
X397763Y722629D03*
G54D25*
X393699Y873759D03*
G54D26*
Y848359D03*
Y822959D03*
G54D20*
X381253Y835913D02*
G01X393699Y848359D01*
G54D19*
Y873759D02*
G01Y885189D01*
X400811Y892301D02*
G01Y904239D01*
G54D11*
X469899Y902207D03*
G54D19*
X468883D02*
G01X478789Y892047D01*
Y736853D02*
G01Y892047D01*
X474471Y708913D02*
G01Y770381D01*
Y708913D02*
G01X488695Y694943D01*
X461263Y848359D02*
G01X461517Y847851D01*
X478789Y736853D02*
G01X492759Y722883D01*
G54D20*
X461517Y873251D02*
G01Y935227D01*
G54D22*
X553211Y722883D03*
X588009D03*
G54D26*
X609599Y848359D03*
G54D25*
Y822959D03*
G54D19*
X597661Y694943D02*
G01X609599Y706627D01*
D02*
G01Y822959D01*
X588009Y722883D02*
G01Y750823D01*
X572007Y766825D02*
G01X588009Y750823D01*
X540765Y848359D02*
G01X549147Y856741D01*
G54D26*
X609599Y873759D03*
G54D19*
X549147Y856741D02*
G01Y889507D01*
G54D20*
X462787Y1034541D02*
G01Y1046225D01*
X478535Y1145031D02*
G01X486155Y1137665D01*
Y1069339D02*
G01Y1137665D01*
X462787Y1046225D02*
G01X486155Y1069339D01*
G54D10*
X474979Y959103D03*
G54D19*
X465835Y960119D02*
G01X474979D01*
X460755Y974089D02*
G01X463549Y971295D01*
G54D20*
X461517Y935227D02*
G01X474979Y948435D01*
D02*
G01Y960119D01*
G54D19*
X463549Y962405D02*
G01X465835Y960119D01*
X463549Y962405D02*
G01Y971295D01*
G54D10*
X474979Y975105D03*
G54D19*
X462787Y986027D02*
G01X474979Y974089D01*
G54D11*
X522223Y901699D03*
G54D20*
X537209D02*
G01Y910843D01*
G54D26*
X529589Y873759D03*
Y848359D03*
G54D25*
Y822959D03*
G54D24*
X518159Y722883D03*
G54D19*
X509269Y776223D02*
G01X518667Y766825D01*
X509269Y776223D02*
G01Y887983D01*
D02*
G01X523239Y901699D01*
G54D10*
X520191Y960119D03*
Y976121D03*
G54D12*
X524763Y1057147D03*
G54D27*
X509015Y1019555D03*
G54D20*
X507745Y1021079D02*
G01X509015Y1019555D01*
G54D19*
X513079Y1011681D02*
G01X524763Y1023365D01*
X533399Y1019809D02*
G01Y1031239D01*
X511047Y985011D02*
G01X520191Y976121D01*
X529081Y1021587D02*
G01Y1033017D01*
X509523Y1001775D02*
G01X529081Y1021587D01*
X524763Y1023365D02*
G01Y1057147D01*
G54D18*
Y1106169D03*
G54D26*
X461517Y822451D03*
Y847851D03*
G54D25*
Y873251D03*
G54D19*
X441705Y803147D02*
G01X474471Y770381D01*
X451357Y848359D02*
G01X461263D01*
G54D10*
X453135Y959103D03*
X391413Y963675D03*
Y979677D03*
G54D11*
X385825Y923543D03*
G54D19*
X386841Y904239D02*
G01Y923543D01*
G54D27*
X391413Y978661D03*
G54D19*
X400811Y923543D02*
G01Y934719D01*
G54D11*
X385825Y904239D03*
X401827D03*
Y923543D03*
G54D10*
X391413Y990599D03*
G54D27*
Y991615D03*
G54D10*
Y1006601D03*
G54D20*
X391159Y1014729D02*
G01X391413Y1014475D01*
Y1006601D02*
G01Y1014475D01*
X403351Y1006093D02*
G01X406907Y1009649D01*
X403351Y1001521D02*
G01Y1006093D01*
X400303Y998727D02*
G01X403351Y1001521D01*
X414273Y1048765D02*
G01Y1074165D01*
X408177Y1080261D02*
G01X414273Y1074165D01*
G54D27*
X396239Y1068831D03*
G54D14*
D03*
Y1041653D03*
G54D11*
X259079Y923543D03*
G54D27*
X274065Y994917D03*
G54D19*
Y934465D02*
G01Y994917D01*
Y934465D02*
G01X274319Y934719D01*
X260095Y903477D02*
G01Y923543D01*
X274065D02*
G01Y934465D01*
G54D11*
X259079Y903477D03*
X275081D03*
Y923543D03*
G54D20*
X241045Y971549D02*
G01X290575Y1021079D01*
G54D22*
X246379Y1006855D03*
G54D27*
X274065Y1016253D03*
G54D21*
X245871Y1113535D03*
G54D23*
X246379Y1041907D03*
G54D20*
X224535Y1059179D02*
G01X233425Y1067815D01*
X221487Y1060449D02*
G01X232155Y1070863D01*
D02*
G01X302259D01*
G54D19*
X274065Y1016253D02*
G01Y1030731D01*
X584199Y976121D02*
G01X603249Y956817D01*
G54D27*
X578865Y967993D03*
X605027D03*
G54D20*
X539749Y913383D02*
G01Y958087D01*
G54D19*
X603249Y900937D02*
G01Y956817D01*
G54D11*
X602487Y900937D03*
G54D10*
X585723Y1041399D03*
G54D19*
X565403Y1040637D02*
G01X567181Y1042415D01*
X542797Y1040637D02*
G01X565403D01*
X552703Y1056639D02*
G01X565403D01*
X567181Y1042415D02*
G01X585723D01*
G54D14*
X605789Y1058163D03*
Y1031239D03*
G54D13*
Y1106423D03*
X561847D03*
G54D10*
X565403Y1056639D03*
Y1040637D03*
X585723Y1057401D03*
G54D17*
X462787Y1014729D03*
Y1009649D03*
Y1004569D03*
Y999743D03*
G54D19*
X453135Y974089D02*
G01X460755D01*
G54D28*
X459231Y1017269D02*
G01X459485D01*
X458977D02*
G01X459231D01*
X458977D02*
G01X458723D01*
D02*
G01X458977D01*
D02*
G01X458723D01*
G54D17*
X462787Y1019555D03*
Y1024635D03*
Y1029715D03*
Y1034541D03*
G54D10*
X453135Y975105D03*
G54D18*
X466343Y1106169D03*
G54D20*
X427227Y1145031D02*
G01X478535D01*
G54D19*
X462787Y986027D02*
G01Y999743D01*
Y1004569D02*
G01X471423D01*
G54D28*
X459739Y1017269D02*
G01X459993D01*
D02*
G01X459739D01*
X459993Y1017523D02*
G01Y1017269D01*
X459739D02*
G01X459485D01*
D02*
G01X459739D01*
D02*
G01X459485D01*
G54D19*
X462787Y1009649D02*
G01X472439D01*
X475741Y991361D02*
G01Y1000251D01*
X471423Y1004569D02*
G01X475741Y1000251D01*
X462787Y1014729D02*
G01X476757D01*
X472439Y1009649D02*
G01X480313Y1001775D01*
X475741Y991361D02*
G01X481837Y985011D01*
X476757Y1014729D02*
G01X479805Y1011681D01*
G54D10*
X490981Y1027683D03*
G54D19*
X479805Y1011681D02*
G01X490981D01*
G54D10*
D03*
G54D20*
X253999Y835913D02*
G01X381253D01*
G54D19*
X338581Y934719D02*
G01X400811D01*
X358393Y747521D02*
G01X391921D01*
G54D20*
X362457Y1019555D02*
G01X428497D01*
X368553Y953007D02*
G01X443229D01*
X374395Y971549D02*
G01X409955D01*
X374395Y998727D02*
G01X400303D01*
X355599Y1014729D02*
G01X391159D01*
X316229Y1080261D02*
G01X408177D01*
X314959Y1083309D02*
G01X409447D01*
G54D10*
X374395Y1006601D03*
Y990599D03*
Y979677D03*
Y963675D03*
M02*