G04 FAB 3000 Version 7.8.18 - Gerber/CAM Software*
G04 RS274-X Output*
%FSLAX44Y44*%
%MIA0B0*%
%MOMM*%
%SFA1.000000B1.000000*%

%IPPOS*%
%ADD10R,1.300000X1.000000*%
%ADD11R,1.000000X1.300000*%
%ADD12R,1.100000X1.700000*%
%ADD13R,1.200000X2.599990*%
%ADD14R,1.700000X1.100000*%
%ADD15R,2.050010X3.049980*%
%ADD16R,0.280010X0.850010*%
%ADD17R,0.850010X0.280010*%
%ADD18R,1.949980X3.199990*%
%ADD19C,0.254000*%
%ADD20C,0.127000*%
%ADD21C,3.299990*%
%ADD22C,2.100000*%
%ADD23R,2.100000X2.100000*%
%ADD24R,2.100000X2.100000*%
%ADD25R,1.500000X1.500000*%
%ADD26C,1.500000*%
%ADD27C,0.660400*%
%ADD28C,0.025400*%
%ADD29C,0.200000*%
%ADD30C,0.152400*%
%ADD31C,0.076200*%
%ADD32C,6.999990*%
%ADD33C,0.100000*%
%ADD34C,0.050800*%
%ADD35C,0.067690*%
%LNcartercharger_0*%
%LPD*%
G54D19*
X204295Y1154349D02*
G01X722295D01*
X508507Y1082293D02*
G01X518667D01*
G54D29*
X459231Y1140205D02*
G01X532129D01*
X459231Y1072133D02*
G01X532129D01*
G54D19*
X438657Y1070355D02*
G01X443737D01*
X441197Y1085595D02*
G01X438657Y1083055D01*
G54D31*
X438149Y1057909D02*
G01X446531D01*
X438149Y1053591D02*
G01X446531Y1061973D01*
X438149D02*
G01X446531Y1053591D01*
G54D19*
X483107Y694943D02*
G01X623061D01*
X483107Y766825D02*
G01X623061D01*
X500125Y822197D02*
G01X502665Y819657D01*
D02*
G01Y817117D01*
D02*
G01X500125Y814577D01*
Y839977D02*
G01X502665Y837437D01*
D02*
G01Y832357D01*
D02*
G01X500125Y829817D01*
X507237Y790955D02*
G01X499617Y783335D01*
D02*
G01X509777D01*
X423417Y1072895D02*
G01X425957Y1070355D01*
D02*
G01X431037D01*
D02*
G01X433577Y1072895D01*
X391159Y1098549D02*
G01X388873Y1096009D01*
D02*
G01Y1085849D01*
D02*
G01X391159Y1083563D01*
X423417Y1085595D02*
G01Y1072895D01*
X433577D02*
G01Y1085595D01*
X398779Y1096009D02*
G01X396239Y1098549D01*
D02*
G01X391159D01*
Y1083563D02*
G01X396239D01*
D02*
G01X398779Y1085849D01*
X406399Y1098549D02*
G01X403859Y1096009D01*
X411479Y1098549D02*
G01X406399D01*
X414019Y1096009D02*
G01X411479Y1098549D01*
X414019Y1093469D02*
G01Y1096009D01*
X403859Y1083563D02*
G01X414019Y1093469D01*
Y1083563D02*
G01X403859D01*
X479805Y928369D02*
G01X482345Y930909D01*
X475487Y999489D02*
G01X483107D01*
Y989329D02*
G01X475487D01*
X480567D02*
G01X485647Y984249D01*
X486917Y933957D02*
G01X479297D01*
D02*
G01X476757Y936497D01*
Y941577D02*
G01X479297Y944117D01*
D02*
G01X486917D01*
X481837D02*
G01X476757Y949197D01*
G54D29*
X469391Y967231D02*
G01X480313D01*
G36*
X455167Y1046225D02*
G01X451357D01*
Y1048765D01*
X455167D01*
Y1046225D01*
G37*
G54D19*
X443737Y1070355D02*
G01X441197D01*
D02*
G01Y1085595D01*
G54D30*
X457961Y1041653D02*
G01X465073D01*
X442975D02*
G01X448309D01*
G54D31*
X445769Y1029715D02*
G01X451865D01*
D02*
G01X454151Y1027683D01*
X442467Y1053591D02*
G01Y1061973D01*
G54D29*
X459231Y1126235D02*
G01Y1140205D01*
Y1072133D02*
G01Y1086103D01*
G54D19*
X416559Y957833D02*
G01X401319D01*
X411479Y962913D02*
G01X416559Y967993D01*
X414019Y973073D02*
G01X416559Y975613D01*
D02*
G01Y980693D01*
D02*
G01X414019Y983233D01*
X413511Y932433D02*
G01X421131D01*
Y922273D02*
G01X413511D01*
X362203Y980693D02*
G01X364743Y983233D01*
Y1003553D02*
G01X362203Y1006093D01*
X364743Y998473D02*
G01Y1003553D01*
X362203Y995933D02*
G01X364743Y998473D01*
Y988313D02*
G01X362203Y990853D01*
X364743Y983233D02*
G01Y988313D01*
G54D29*
X368807Y998727D02*
G01X379983D01*
X368807Y971549D02*
G01X379983D01*
G36*
X439927Y985519D02*
G01X436117D01*
Y988059D01*
X439927D01*
Y985519D01*
G37*
G54D19*
X475487Y984249D02*
G01Y999489D01*
G54D30*
X457961Y992631D02*
G01X465073D01*
X426211D02*
G01X433323D01*
G54D31*
X454151Y1023365D02*
G01X451865Y1021333D01*
D02*
G01X445769D01*
G54D30*
X442975Y992631D02*
G01X448309D01*
G54D29*
X507491Y1064513D02*
G01X515365D01*
G54D19*
X483361Y1121663D02*
G01Y1106423D01*
D02*
G01X493521D01*
X498601D02*
G01X503681D01*
D02*
G01X501141D01*
D02*
G01Y1121663D01*
D02*
G01X498601Y1119123D01*
X500887Y1089913D02*
G01X495807D01*
D02*
G01X493267Y1087373D01*
D02*
G01Y1077213D01*
D02*
G01X495807Y1074673D01*
D02*
G01X500887D01*
D02*
G01X503427Y1077213D01*
X516127Y1074673D02*
G01Y1089913D01*
D02*
G01X508507Y1082293D01*
X503427Y1087373D02*
G01X500887Y1089913D01*
X487425Y1042415D02*
G01X489965Y1039875D01*
D02*
G01X495045D01*
X505205D02*
G01X502665Y1042415D01*
D02*
G01Y1044955D01*
X510285Y1039875D02*
G01X505205D01*
X512825Y1042415D02*
G01X510285Y1039875D01*
X512825Y1044955D02*
G01Y1042415D01*
X495045Y1039875D02*
G01X497585Y1042415D01*
X487425Y1052575D02*
G01Y1042415D01*
X502665Y1044955D02*
G01X505205Y1047495D01*
D02*
G01X502665Y1050035D01*
X505205Y1047495D02*
G01X510285D01*
D02*
G01X512825Y1044955D01*
Y1050035D02*
G01X510285Y1047495D01*
X497585Y1052575D02*
G01X495045Y1055115D01*
D02*
G01X489965D01*
D02*
G01X487425Y1052575D01*
X502665Y1050035D02*
G01Y1052575D01*
G54D29*
X507491Y1049527D02*
G01X515365D01*
G54D19*
X512825Y1052575D02*
G01Y1050035D01*
X510285Y1055115D02*
G01X512825Y1052575D01*
X505205Y1055115D02*
G01X510285D01*
X502665Y1052575D02*
G01X505205Y1055115D01*
X559815Y1070609D02*
G01Y1085849D01*
X567435D02*
G01X569975Y1083309D01*
D02*
G01Y1078229D01*
X575055Y1085849D02*
G01Y1078229D01*
X608583Y1085595D02*
G01X606043Y1088135D01*
X600963D02*
G01X598423Y1085595D01*
D02*
G01Y1075435D01*
X623823D02*
G01Y1085595D01*
D02*
G01X621283Y1088135D01*
X616203D02*
G01X613663Y1085595D01*
G54D29*
X532129Y1072133D02*
G01Y1086103D01*
G54D19*
X613663Y1085595D02*
G01Y1083055D01*
X640079Y1049781D02*
G01X712215D01*
X576579Y1028953D02*
G01X579119Y1031493D01*
D02*
G01X581659D01*
D02*
G01X584199Y1028953D01*
D02*
G01X586739Y1031493D01*
D02*
G01X589279D01*
D02*
G01X591819Y1028953D01*
G54D29*
X580135Y1049273D02*
G01X591057D01*
X598423Y1040637D02*
G01Y1048511D01*
X559815D02*
G01X570991D01*
X613409Y1040637D02*
G01Y1048511D01*
G54D19*
X415035Y821943D02*
G01X427735D01*
D02*
G01X430275Y819403D01*
Y816863D02*
G01X427735Y814323D01*
X417575Y839723D02*
G01X427735Y829563D01*
D02*
G01X430275D01*
X288543Y821435D02*
G01X301243D01*
X296163Y839215D02*
G01X301243D01*
X304291Y790701D02*
G01X299211D01*
D02*
G01X301751D01*
Y778001D02*
G01X299211Y775461D01*
D02*
G01X296671D01*
G54D29*
X380999Y886459D02*
G01X406399D01*
X380999Y810259D02*
G01X406399D01*
X393953Y898651D02*
G01Y909573D01*
G54D19*
X415035Y824483D02*
G01Y819403D01*
D02*
G01Y821943D01*
Y829563D02*
G01Y839723D01*
D02*
G01X417575D01*
X424179Y900429D02*
G01Y910589D01*
D02*
G01X421639Y913129D01*
D02*
G01X414019D01*
G54D29*
X406399Y810259D02*
G01Y886459D01*
G54D19*
X421639Y897889D02*
G01X424179Y900429D01*
X414019Y897889D02*
G01X421639D01*
X414019Y913129D02*
G01Y897889D01*
X218439Y1076959D02*
G01X290321D01*
X229615Y1101089D02*
G01X224535D01*
D02*
G01X227075D01*
D02*
G01Y1088389D01*
D02*
G01X224535Y1085849D01*
X237235Y1101089D02*
G01X234695Y1098549D01*
X237235Y1085849D02*
G01Y1101089D01*
X239775Y1085849D02*
G01X237235D01*
X234695D02*
G01X239775D01*
X221995D02*
G01X219455Y1088389D01*
X224535Y1085849D02*
G01X221995D01*
X380999Y1098549D02*
G01X378459Y1096009D01*
X380999Y1083563D02*
G01Y1098549D01*
X383539Y1083563D02*
G01X380999D01*
X378459D02*
G01X383539D01*
X370839D02*
G01X373379Y1085849D01*
X365759Y1083563D02*
G01X370839D01*
X363473Y1085849D02*
G01X365759Y1083563D01*
X363473Y1096009D02*
G01Y1085849D01*
X365759Y1098549D02*
G01X363473Y1096009D01*
X370839Y1098549D02*
G01X365759D01*
X373379Y1096009D02*
G01X370839Y1098549D01*
X651509Y1073911D02*
G01X646429D01*
D02*
G01X648969D01*
D02*
G01Y1061211D01*
X659129Y1073911D02*
G01X656589Y1071371D01*
X664209Y1073911D02*
G01X659129D01*
X666749Y1071371D02*
G01X664209Y1073911D01*
X666749Y1068831D02*
G01Y1071371D01*
X656589Y1058671D02*
G01X666749Y1068831D01*
Y1058671D02*
G01X656589D01*
X643889D02*
G01X641349Y1061211D01*
X646429Y1058671D02*
G01X643889D01*
X648969Y1061211D02*
G01X646429Y1058671D01*
G54D29*
X318769Y810259D02*
G01X344169D01*
X318769Y886459D02*
G01X344169D01*
G54D19*
X353059Y824229D02*
G01Y819149D01*
D02*
G01Y821689D01*
Y839469D02*
G01X355599Y834389D01*
G54D29*
X344169Y810259D02*
G01Y886459D01*
X331469Y898397D02*
G01Y909319D01*
G54D19*
X357377Y912113D02*
G01X349757D01*
Y896873D02*
G01X357377D01*
X349757Y912113D02*
G01Y896873D01*
G54D29*
X318769Y810259D02*
G01Y886459D01*
G54D19*
X303783Y909827D02*
G01X301243Y907287D01*
X308863Y909827D02*
G01X303783D01*
X311403Y907287D02*
G01X308863Y909827D01*
X311403Y904747D02*
G01Y907287D01*
X301243Y894587D02*
G01X311403Y904747D01*
Y894587D02*
G01X301243D01*
X292861Y694689D02*
G01Y766571D01*
X288543Y823975D02*
G01Y818895D01*
D02*
G01Y821435D01*
G54D29*
X253999Y810259D02*
G01X279399D01*
G54D19*
X296671Y775461D02*
G01X294131Y778001D01*
X293623Y836675D02*
G01X296163Y839215D01*
X293623Y834135D02*
G01Y836675D01*
X296163Y829055D02*
G01X293623Y834135D01*
X288543Y829055D02*
G01X296163D01*
X288543Y839215D02*
G01Y829055D01*
G54D29*
X253999Y810259D02*
G01Y886459D01*
X279399Y810259D02*
G01Y886459D01*
G54D19*
X293623Y909827D02*
G01X286003D01*
G54D29*
X253999Y886459D02*
G01X279399D01*
X267207Y897889D02*
G01Y908811D01*
G54D19*
X296163Y907287D02*
G01X293623Y909827D01*
X296163Y897127D02*
G01Y907287D01*
X293623Y894587D02*
G01X296163Y897127D01*
X286003Y894587D02*
G01X293623D01*
X286003Y909827D02*
G01Y894587D01*
X316991Y790701D02*
G01X319531Y788161D01*
D02*
G01Y785621D01*
D02*
G01X316991Y783081D01*
D02*
G01X314451D01*
D02*
G01X316991D01*
D02*
G01X319531Y780541D01*
D02*
G01Y778001D01*
X311911Y775461D02*
G01X309371Y778001D01*
X316991Y775461D02*
G01X311911D01*
X319531Y778001D02*
G01X316991Y775461D01*
X311911Y790701D02*
G01X316991D01*
X309371Y788161D02*
G01X311911Y790701D01*
X301751D02*
G01Y778001D01*
X301243Y821435D02*
G01X303783Y818895D01*
D02*
G01Y816355D01*
Y831595D02*
G01X301243Y829055D01*
X303783Y836675D02*
G01Y831595D01*
X301243Y839215D02*
G01X303783Y836675D01*
Y816355D02*
G01X301243Y813815D01*
X365759Y821689D02*
G01X368299Y819149D01*
D02*
G01Y816609D01*
D02*
G01X365759Y814069D01*
Y839469D02*
G01X363219D01*
X368299Y836929D02*
G01X365759Y839469D01*
X368299Y831849D02*
G01Y836929D01*
X365759Y829309D02*
G01X368299Y831849D01*
G54D29*
X380999Y810259D02*
G01Y886459D01*
G54D19*
X370077Y904493D02*
G01X372617D01*
D02*
G01X375157Y901953D01*
D02*
G01Y899413D01*
D02*
G01X372617Y896873D01*
D02*
G01X367537D01*
D02*
G01X364997Y899413D01*
X372617Y904493D02*
G01X370077D01*
X375157Y907033D02*
G01X372617Y904493D01*
X375157Y909573D02*
G01Y907033D01*
X372617Y912113D02*
G01X375157Y909573D01*
X367537Y912113D02*
G01X372617D01*
X364997Y909573D02*
G01X367537Y912113D01*
G54D29*
X448817Y809751D02*
G01Y885951D01*
X474217Y809751D02*
G01Y885951D01*
G54D19*
X429259Y897889D02*
G01X434339D01*
D02*
G01X431799D01*
D02*
G01Y913129D01*
D02*
G01X429259Y910589D01*
G54D29*
X461771Y896619D02*
G01Y907541D01*
X448817Y885951D02*
G01X474217D01*
G54D19*
X467867Y694689D02*
G01Y766571D01*
X483107Y694943D02*
G01Y766825D01*
X494537Y790955D02*
G01X489457D01*
D02*
G01X491997D01*
D02*
G01Y778255D01*
D02*
G01X489457Y775969D01*
D02*
G01X486917D01*
D02*
G01X484377Y778255D01*
G54D29*
X448817Y809751D02*
G01X474217D01*
G54D19*
X430275Y819403D02*
G01Y816863D01*
X487425Y822197D02*
G01X500125D01*
X487425Y819657D02*
G01Y822197D01*
Y824737D02*
G01Y819657D01*
X489965Y839977D02*
G01X492505D01*
D02*
G01X495045Y837437D01*
D02*
G01X497585Y839977D01*
D02*
G01X500125D01*
Y829817D02*
G01X497585D01*
D02*
G01X495045Y832357D01*
D02*
G01X492505Y829817D01*
D02*
G01X489965D01*
X495045Y832357D02*
G01Y837437D01*
X487425D02*
G01X489965Y839977D01*
X487425Y832357D02*
G01Y837437D01*
X489965Y829817D02*
G01X487425Y832357D01*
X552957Y823467D02*
G01Y818387D01*
D02*
G01Y820927D01*
G54D29*
X516889Y810259D02*
G01X542289D01*
X516889D02*
G01Y886459D01*
D02*
G01X542289D01*
Y810259D02*
G01Y886459D01*
X530097Y896111D02*
G01Y907033D01*
G54D19*
X507237Y775969D02*
G01Y790955D01*
X560577Y831087D02*
G01Y838707D01*
X558037Y828547D02*
G01X560577Y831087D01*
X555497Y828547D02*
G01X558037D01*
X552957Y831087D02*
G01X555497Y828547D01*
X552957Y836167D02*
G01Y831087D01*
X555497Y838707D02*
G01X552957Y836167D01*
Y820927D02*
G01X565657D01*
D02*
G01X568197Y818387D01*
Y815847D02*
G01X565657Y813307D01*
Y828547D02*
G01X568197Y831087D01*
Y836167D02*
G01X565657Y838707D01*
D02*
G01X555497D01*
X598931Y912875D02*
G01X604011D01*
D02*
G01X601471D01*
G54D29*
X596899Y810259D02*
G01Y886459D01*
G54D19*
X568197Y831087D02*
G01Y836167D01*
Y818387D02*
G01Y815847D01*
G54D29*
X596899Y810259D02*
G01X622299D01*
X596899Y886459D02*
G01X622299D01*
G54D19*
X623061Y694943D02*
G01Y766825D01*
X621791Y912875D02*
G01X611631D01*
G54D29*
X622299Y810259D02*
G01Y886459D01*
X610361Y895349D02*
G01Y906271D01*
G54D19*
X631189Y825499D02*
G01Y820419D01*
Y850899D02*
G01X633729Y853439D01*
X631189Y845819D02*
G01Y850899D01*
X633729Y843279D02*
G01X631189Y845819D01*
Y833119D02*
G01X633729Y830579D01*
X631189Y820419D02*
G01Y822959D01*
X640079Y874775D02*
G01X712215D01*
X643889Y843279D02*
G01X633729D01*
Y853439D02*
G01X643889D01*
X646429Y833119D02*
G01X631189D01*
Y822959D02*
G01X643889D01*
D02*
G01X646429Y820419D01*
D02*
G01Y817879D01*
D02*
G01X643889Y815339D01*
X646429Y830579D02*
G01Y835659D01*
D02*
G01Y833119D01*
Y845819D02*
G01X643889Y843279D01*
X646429Y850899D02*
G01Y845819D01*
X643889Y853439D02*
G01X646429Y850899D01*
X218439Y971803D02*
G01X290321D01*
X257047Y937259D02*
G01Y952499D01*
D02*
G01X264667D01*
D02*
G01X267207Y949959D01*
D02*
G01Y944879D01*
D02*
G01X264667Y942339D01*
G54D29*
X267207Y918209D02*
G01Y929131D01*
G54D19*
X274827Y952499D02*
G01X272287Y949959D01*
X279907Y952499D02*
G01X274827D01*
X282447Y949959D02*
G01X279907Y952499D01*
X282447Y947419D02*
G01Y949959D01*
X272287Y937259D02*
G01X282447Y947419D01*
Y937259D02*
G01X272287D01*
X262127Y942339D02*
G01X267207Y937259D01*
X264667Y942339D02*
G01X257047D01*
X333247Y962405D02*
G01Y977645D01*
X343407Y975105D02*
G01Y970025D01*
D02*
G01X340867Y967485D01*
X348487D02*
G01X351027Y970025D01*
D02*
G01X348487Y972565D01*
X351027Y970025D02*
G01X356107D01*
X333247Y977645D02*
G01X340867D01*
D02*
G01X343407Y975105D01*
X348487D02*
G01X351027Y977645D01*
D02*
G01X356107D01*
X348487Y972565D02*
G01Y975105D01*
X352043Y990853D02*
G01X349503Y988313D01*
D02*
G01Y983233D01*
G54D29*
X311403Y1021587D02*
G01X322325D01*
G54D19*
X357123Y1003553D02*
G01Y995933D01*
X352043Y1001013D02*
G01X357123Y995933D01*
X349503Y1006093D02*
G01X352043Y1001013D01*
X349503Y983233D02*
G01X352043Y980693D01*
X321309Y937259D02*
G01Y952499D01*
D02*
G01X328929D01*
D02*
G01X331469Y949959D01*
G54D29*
Y918209D02*
G01Y929131D01*
G54D19*
X326389Y942339D02*
G01X331469Y937259D01*
X328929Y942339D02*
G01X321309D01*
X331469Y944879D02*
G01X328929Y942339D01*
X331469Y949959D02*
G01Y944879D01*
X340867Y967485D02*
G01X333247D01*
X338327D02*
G01X343407Y962405D01*
X356107D02*
G01X351027D01*
D02*
G01X348487Y964945D01*
D02*
G01Y967485D01*
X346709Y949959D02*
G01Y947419D01*
D02*
G01X344169Y944879D01*
D02*
G01X341629D01*
D02*
G01X344169D01*
D02*
G01X346709Y942339D01*
D02*
G01Y939799D01*
D02*
G01X344169Y937259D01*
D02*
G01X339089D01*
D02*
G01X336549Y939799D01*
X344169Y952499D02*
G01X346709Y949959D01*
X339089Y952499D02*
G01X344169D01*
X336549Y949959D02*
G01X339089Y952499D01*
X569975Y1078229D02*
G01X567435Y1075689D01*
X577595Y1070609D02*
G01X575055Y1073149D01*
X582675Y1070609D02*
G01X577595D01*
X585215Y1073149D02*
G01X582675Y1070609D01*
X585215Y1078229D02*
G01Y1073149D01*
X582675Y1080769D02*
G01X585215Y1078229D01*
X580135Y1080769D02*
G01X582675D01*
X575055Y1078229D02*
G01X580135Y1080769D01*
X564895Y1075689D02*
G01X569975Y1070609D01*
X567435Y1075689D02*
G01X559815D01*
X598423Y1075435D02*
G01X600963Y1072895D01*
X613663Y1083055D02*
G01X616203Y1080515D01*
D02*
G01X623823D01*
X621283Y1072895D02*
G01X623823Y1075435D01*
X616203Y1072895D02*
G01X621283D01*
X613663Y1075435D02*
G01X616203Y1072895D01*
X606043D02*
G01X608583Y1075435D01*
X600963Y1072895D02*
G01X606043D01*
G54D29*
X571753Y1094485D02*
G01X595883D01*
G54D19*
X621283Y1088135D02*
G01X616203D01*
X606043D02*
G01X600963D01*
X585215Y1085849D02*
G01X575055D01*
X559815D02*
G01X567435D01*
G54D29*
X571753Y1118361D02*
G01X595883D01*
X532129Y1126235D02*
G01Y1140205D01*
G54D19*
X572261Y1136141D02*
G01X582421D01*
X579881Y1143761D02*
G01X572261Y1136141D01*
X579881Y1128521D02*
G01Y1143761D01*
X562101Y1133601D02*
G01X567181Y1128521D01*
X564641Y1133601D02*
G01X557021D01*
X567181Y1136141D02*
G01X564641Y1133601D01*
X567181Y1141221D02*
G01Y1136141D01*
X564641Y1143761D02*
G01X567181Y1141221D01*
X557021Y1143761D02*
G01X564641D01*
X557021Y1128521D02*
G01Y1143761D01*
G54D30*
X426211Y1041653D02*
G01X433323D01*
G54D29*
X378205Y1051305D02*
G01Y1059179D01*
X403605Y1051305D02*
G01Y1059179D01*
X388619Y1051305D02*
G01Y1059179D01*
G54D19*
X398017Y1035811D02*
G01Y1030731D01*
X395477Y1038351D02*
G01X398017Y1035811D01*
X390397Y1038351D02*
G01X395477D01*
X387857Y1035811D02*
G01X390397Y1038351D01*
X387857Y1033271D02*
G01Y1035811D01*
X316229Y1042415D02*
G01X321309Y1047495D01*
X316229Y1044955D02*
G01Y1037335D01*
X313689Y1047495D02*
G01X316229Y1044955D01*
X308609Y1047495D02*
G01X313689D01*
X306069Y1044955D02*
G01X308609Y1047495D01*
X306069Y1037335D02*
G01Y1044955D01*
X321309Y1037335D02*
G01X306069D01*
X313689Y1052575D02*
G01X318769D01*
D02*
G01X321309Y1055115D01*
D02*
G01Y1060195D01*
D02*
G01X318769Y1062735D01*
D02*
G01X316229D01*
D02*
G01X313689Y1060195D01*
D02*
G01Y1052575D01*
G54D29*
X363219Y1051305D02*
G01Y1059179D01*
G54D19*
X308609Y1057655D02*
G01X313689Y1052575D01*
X306069Y1062735D02*
G01X308609Y1057655D01*
X537971Y930655D02*
G01X535431Y928115D01*
X540257Y1003045D02*
G01X530097Y992885D01*
Y1005585D02*
G01X540257D01*
X204295Y674449D02*
G01X722295D01*
X292861Y766571D02*
G01X467867D01*
X292861Y694689D02*
G01X467867D01*
X359917Y909573D02*
G01X357377Y912113D01*
X359917Y899413D02*
G01Y909573D01*
X357377Y896873D02*
G01X359917Y899413D01*
X360679Y836929D02*
G01Y829309D01*
X363219Y839469D02*
G01X360679Y836929D01*
Y829309D02*
G01X365759D01*
X355599Y834389D02*
G01X360679Y829309D01*
X353059Y821689D02*
G01X365759D01*
X356107Y977645D02*
G01X358647Y975105D01*
X359663Y1006093D02*
G01X357123Y1003553D01*
X362203Y1006093D02*
G01X359663D01*
X357123Y995933D02*
G01X362203D01*
X352043Y980693D02*
G01X362203D01*
X358647Y964945D02*
G01X356107Y962405D01*
X358647Y967485D02*
G01Y964945D01*
X356107Y970025D02*
G01X358647Y967485D01*
Y972565D02*
G01X356107Y970025D01*
X358647Y975105D02*
G01Y972565D01*
X385317Y1023111D02*
G01X382777Y1020571D01*
G54D29*
X385825Y998727D02*
G01X396747D01*
X385825Y971549D02*
G01X396747D01*
X393953Y918209D02*
G01Y929131D01*
G54D19*
X385317Y1012951D02*
G01X395477D01*
X382777Y1015491D02*
G01X385317Y1012951D01*
X382777Y1020571D02*
G01Y1015491D01*
X398017Y1020571D02*
G01X395477Y1023111D01*
X398017Y1015491D02*
G01Y1020571D01*
X395477Y1012951D02*
G01X398017Y1015491D01*
X401319Y957833D02*
G01Y965453D01*
D02*
G01X403859Y967993D01*
D02*
G01X408939D01*
D02*
G01X411479Y965453D01*
D02*
G01Y957833D01*
X408939Y975613D02*
G01Y983233D01*
X406399Y973073D02*
G01X408939Y975613D01*
X403859Y973073D02*
G01X406399D01*
X401319Y975613D02*
G01X403859Y973073D01*
X401319Y980693D02*
G01Y975613D01*
X403859Y983233D02*
G01X401319Y980693D01*
X414019Y983233D02*
G01X403859D01*
X471677Y949197D02*
G01X466597D01*
D02*
G01X469137D01*
D02*
G01Y933957D01*
X448817Y946657D02*
G01X451357Y949197D01*
D02*
G01X456437D01*
D02*
G01X458977Y946657D01*
X426465Y952499D02*
G01X429005Y949959D01*
D02*
G01X439165D01*
D02*
G01X441705Y952499D01*
X429005Y960119D02*
G01X426465Y957579D01*
D02*
G01Y952499D01*
X441705D02*
G01Y957579D01*
D02*
G01X439165Y960119D01*
X426465Y965199D02*
G01Y975359D01*
D02*
G01X429005D01*
D02*
G01X439165Y965199D01*
D02*
G01X441705D01*
G54D29*
X447547Y967231D02*
G01X458723D01*
G54D19*
X508507Y984249D02*
G01X505967D01*
X503427D02*
G01X508507D01*
X520191Y930655D02*
G01X527811D01*
D02*
G01X530351Y928115D01*
D02*
G01Y923035D01*
D02*
G01X527811Y920495D01*
D02*
G01X520191D01*
X519937Y995425D02*
G01X525017Y990345D01*
X530097Y992885D02*
G01Y990345D01*
G54D29*
X514603Y968247D02*
G01X525525D01*
G54D19*
X522477Y995425D02*
G01X514857D01*
X525017Y997965D02*
G01X522477Y995425D01*
X525017Y1003045D02*
G01Y997965D01*
X522477Y1005585D02*
G01X525017Y1003045D01*
X514857Y1005585D02*
G01X522477D01*
X514857Y990345D02*
G01Y1005585D01*
X555751Y930655D02*
G01X548131Y923035D01*
D02*
G01X558291D01*
X583691Y928115D02*
G01X591311D01*
D02*
G01X593851Y925575D01*
D02*
G01Y920495D01*
X614171Y928115D02*
G01X611631Y925575D01*
X619251Y928115D02*
G01X614171D01*
X621791Y925575D02*
G01X619251Y928115D01*
X621791Y923035D02*
G01Y925575D01*
X601471Y928115D02*
G01X598931Y925575D01*
X591311Y917955D02*
G01X583691D01*
X593851Y920495D02*
G01X591311Y917955D01*
X540257Y1005585D02*
G01Y1003045D01*
X579119Y1016253D02*
G01X576579Y1013713D01*
D02*
G01Y1008633D01*
D02*
G01X579119Y1006093D01*
D02*
G01X589279D01*
D02*
G01X591819Y1008633D01*
D02*
G01Y1013713D01*
D02*
G01X589279Y1016253D01*
X591819Y1023873D02*
G01X589279Y1021333D01*
X579119D02*
G01X576579Y1023873D01*
X482345Y930909D02*
G01X487425D01*
D02*
G01X489965Y928369D01*
D02*
G01Y925829D01*
X486917Y949197D02*
G01Y933957D01*
G54D29*
X491997Y967231D02*
G01X503173D01*
G54D19*
X489965Y920749D02*
G01Y918209D01*
X487425Y923289D02*
G01X489965Y920749D01*
X484885Y923289D02*
G01X487425D01*
D02*
G01X484885D01*
X489965Y925829D02*
G01X487425Y923289D01*
X493267Y999489D02*
G01X490727Y996949D01*
X505967Y984249D02*
G01Y999489D01*
D02*
G01X503427Y996949D01*
G54D29*
X485393Y1019555D02*
G01X496569D01*
G54D19*
X493267Y984249D02*
G01Y999489D01*
X495807Y984249D02*
G01X493267D01*
X490727D02*
G01X495807D01*
X485647Y991869D02*
G01X483107Y989329D01*
X485647Y996949D02*
G01Y991869D01*
X483107Y999489D02*
G01X485647Y996949D01*
X421131Y932433D02*
G01X423671Y929893D01*
D02*
G01Y924813D01*
D02*
G01X421131Y922273D01*
X431291Y932433D02*
G01X428751Y929893D01*
X448817Y936497D02*
G01Y946657D01*
X451357Y933957D02*
G01X448817Y936497D01*
X458977Y946657D02*
G01Y936497D01*
X456437Y933957D02*
G01X451357D01*
X458977Y936497D02*
G01X456437Y933957D01*
X469137D02*
G01X471677Y936497D01*
X476757D02*
G01Y941577D01*
X469645Y930909D02*
G01X467105Y928369D01*
X459485Y920749D02*
G01X451865D01*
X462025Y923289D02*
G01X459485Y920749D01*
X462025Y928369D02*
G01Y923289D01*
X459485Y930909D02*
G01X462025Y928369D01*
X451865Y930909D02*
G01X459485D01*
X431291Y917193D02*
G01Y932433D01*
X433831Y917193D02*
G01X431291D01*
X428751D02*
G01X433831D01*
X418591Y922273D02*
G01X423671Y917193D01*
X413511D02*
G01Y932433D01*
X482345Y915669D02*
G01X479805Y918209D01*
X487425Y915669D02*
G01X482345D01*
X489965Y918209D02*
G01X487425Y915669D01*
X469645D02*
G01Y930909D01*
X472185Y915669D02*
G01X469645D01*
X467105D02*
G01X472185D01*
X456945Y920749D02*
G01X462025Y915669D01*
X451865D02*
G01Y930909D01*
X520191Y915415D02*
G01Y930655D01*
X525271Y920495D02*
G01X530351Y915415D01*
X535431D02*
G01X540511D01*
D02*
G01X537971D01*
D02*
G01Y930655D01*
X555751Y915415D02*
G01Y930655D01*
X611631Y912875D02*
G01X621791Y923035D01*
X601471Y912875D02*
G01Y928115D01*
X588771Y917955D02*
G01X593851Y912875D01*
X583691D02*
G01Y928115D01*
X204295Y674449D02*
G01Y1154349D01*
G54D31*
X445769Y1017269D02*
G01Y1029715D01*
X454151Y1027683D02*
G01Y1023365D01*
X458215Y1017269D02*
G01Y1029715D01*
G54D19*
X398017Y1030731D02*
G01X395477Y1028191D01*
X390397D02*
G01X387857Y1033271D01*
X382777Y1028191D02*
G01X390397D01*
X382777Y1038351D02*
G01Y1028191D01*
X290321Y971803D02*
G01Y1076959D01*
X218439Y971803D02*
G01Y1076959D01*
G54D31*
X458215Y1029715D02*
G01X466851Y1017269D01*
G54D19*
X722295Y674449D02*
G01Y1154349D01*
G54D31*
X466851Y1017269D02*
G01Y1029715D01*
G54D19*
X591819Y1028953D02*
G01Y1023873D01*
X584199Y1026413D02*
G01Y1028953D01*
D02*
G01Y1026413D01*
X576579Y1023873D02*
G01Y1028953D01*
X640079Y874775D02*
G01Y1049781D01*
X712215Y874775D02*
G01Y1049781D01*
M02*