G04 FAB 3000 Version 7.8.18 - Gerber/CAM Software*
G04 RS274-X Output*
%FSLAX44Y44*%
%MIA0B0*%
%MOMM*%
%SFA1.000000B1.000000*%

%IPPOS*%
%ADD10R,1.300000X1.000000*%
%ADD11R,1.000000X1.300000*%
%ADD12R,1.100000X1.700000*%
%ADD13R,1.200000X2.599990*%
%ADD14R,1.700000X1.100000*%
%ADD16R,0.280010X0.850010*%
%ADD17R,0.850010X0.280010*%
%ADD18R,1.949980X3.199990*%
%ADD21C,3.299990*%
%ADD22C,2.100000*%
%ADD23R,2.100000X2.100000*%
%ADD24R,2.100000X2.100000*%
%ADD25R,1.500000X1.500000*%
%ADD26C,1.500000*%
%ADD27C,0.660400*%
%LNcartercharger_0*%
%LPD*%
G36*
X449325Y1033017D02*
G01X456437D01*
Y1026921D01*
Y1023111D01*
Y1019047D01*
Y1015237D01*
Y1011173D01*
Y1007363D01*
Y1001267D01*
X449325D01*
Y990599D01*
X447293D01*
Y997965D01*
X443991D01*
Y990599D01*
X441959D01*
Y1001267D01*
X434847D01*
Y1007363D01*
Y1011173D01*
Y1015237D01*
Y1019047D01*
Y1023111D01*
Y1026921D01*
Y1033017D01*
X441959D01*
Y1043685D01*
X443991D01*
Y1036319D01*
X447293D01*
Y1043685D01*
X449325D01*
Y1033017D01*
G37*
G36*
X433323Y997457D02*
G01X423417D01*
Y1001775D01*
X433323D01*
Y997457D01*
G37*
G36*
Y1017523D02*
G01X423417D01*
Y1021841D01*
X433323D01*
Y1017523D01*
G37*
G36*
Y1002537D02*
G01X423417D01*
Y1006855D01*
X433323D01*
Y1002537D01*
G37*
G36*
Y1007617D02*
G01X423417D01*
Y1011681D01*
X433323D01*
Y1007617D01*
G37*
G36*
Y1012443D02*
G01X423417D01*
Y1016761D01*
X433323D01*
Y1012443D01*
G37*
G36*
Y1022603D02*
G01X423417D01*
Y1026667D01*
X433323D01*
Y1022603D01*
G37*
G36*
Y1027429D02*
G01X423417D01*
Y1031747D01*
X433323D01*
Y1027429D01*
G37*
G36*
Y1032509D02*
G01X423417D01*
Y1036827D01*
X433323D01*
Y1032509D01*
G37*
G36*
X440181Y989837D02*
G01X436117D01*
Y999743D01*
X440181D01*
Y989837D01*
G37*
G36*
Y1034541D02*
G01X436117D01*
Y1044447D01*
X440181D01*
Y1034541D01*
G37*
G36*
X467867Y997457D02*
G01X457961D01*
Y1001775D01*
X467867D01*
Y997457D01*
G37*
G36*
Y1002537D02*
G01X457961D01*
Y1006855D01*
X467867D01*
Y1002537D01*
G37*
G36*
X455167Y989837D02*
G01X451103D01*
Y999743D01*
X455167D01*
Y989837D01*
G37*
G36*
X467867Y1012443D02*
G01X457961D01*
Y1016761D01*
X467867D01*
Y1012443D01*
G37*
G36*
Y1017523D02*
G01X457961D01*
Y1021841D01*
X467867D01*
Y1017523D01*
G37*
G36*
Y1032509D02*
G01X457961D01*
Y1036827D01*
X467867D01*
Y1032509D01*
G37*
G36*
X455167Y1034541D02*
G01X451103D01*
Y1044447D01*
X455167D01*
Y1034541D01*
G37*
G36*
X467867Y1022603D02*
G01X457961D01*
Y1026667D01*
X467867D01*
Y1022603D01*
G37*
G36*
Y1027429D02*
G01X457961D01*
Y1031747D01*
X467867D01*
Y1027429D01*
G37*
G36*
Y1007617D02*
G01X457961D01*
Y1011681D01*
X467867D01*
Y1007617D01*
G37*
%LNcartercharger_1*%
%LPD*%
G54D22*
X432815Y722629D03*
G54D10*
X565403Y1040637D03*
Y1056639D03*
G54D13*
X561847Y1106423D03*
G54D11*
X259079Y923543D03*
X275081D03*
Y903477D03*
X259079D03*
G54D21*
X245871Y1113535D03*
X246633Y715771D03*
G54D22*
X246379Y1006855D03*
G54D26*
X266699Y848359D03*
Y822959D03*
G54D27*
X241045Y887729D03*
Y860551D03*
X274065Y994917D03*
Y1016253D03*
G54D25*
X266699Y873759D03*
G54D23*
X246379Y1041907D03*
G54D10*
X316991Y1013713D03*
Y1029715D03*
G54D11*
X323341Y923543D03*
Y903985D03*
G54D24*
X327913Y722629D03*
G54D10*
X497585Y975105D03*
Y959103D03*
X490981Y1027683D03*
Y1011681D03*
G54D12*
X497839Y1057147D03*
G54D10*
X520191Y960119D03*
Y976121D03*
G54D11*
X538225Y901699D03*
X522223D03*
G54D12*
X524763Y1057147D03*
G54D22*
X553211Y722883D03*
G54D24*
X518159D03*
G54D25*
X529589Y822959D03*
G54D26*
Y848359D03*
G54D27*
X539749Y958087D03*
X509015Y1019555D03*
G54D26*
X529589Y873759D03*
G54D18*
X524763Y1106169D03*
G54D10*
X453135Y959103D03*
Y975105D03*
G54D11*
X453897Y902207D03*
G54D22*
X397763Y722629D03*
X362965D03*
G54D25*
X393699Y873759D03*
X331469D03*
G54D26*
Y822959D03*
Y848359D03*
X393699Y822959D03*
Y848359D03*
G54D22*
X588009Y722883D03*
G54D25*
X609599Y822959D03*
G54D26*
Y848359D03*
Y873759D03*
G54D21*
X679703Y717803D03*
G54D11*
X618489Y900937D03*
X602487D03*
G54D22*
X668019Y909827D03*
G54D10*
X585723Y1041399D03*
Y1057401D03*
G54D23*
X668019Y1014983D03*
G54D27*
X605027Y967993D03*
X578865D03*
G54D22*
X668019Y979931D03*
Y944879D03*
G54D21*
X679703Y1110233D03*
G54D14*
X605789Y1058163D03*
Y1031239D03*
G54D13*
Y1106423D03*
G54D25*
X461517Y873251D03*
G54D26*
Y822451D03*
Y847851D03*
G54D11*
X469899Y902207D03*
G54D10*
X474979Y959103D03*
G54D11*
X385825Y923543D03*
X401827D03*
X339343Y903985D03*
X401827Y904239D03*
X385825D03*
X339343Y923543D03*
G54D10*
X374395Y979677D03*
Y963675D03*
X391413Y979677D03*
Y963675D03*
Y990599D03*
X374395D03*
G54D14*
X396239Y1041653D03*
Y1068831D03*
X370839Y1041653D03*
Y1068831D03*
G54D10*
X374395Y1006601D03*
X391413D03*
G54D17*
X428497Y999743D03*
Y1004569D03*
Y1009649D03*
Y1034541D03*
Y1029715D03*
Y1024635D03*
Y1019555D03*
Y1014729D03*
G54D16*
X438149Y1039367D03*
Y994917D03*
G54D18*
X466343Y1106169D03*
G54D17*
X462787Y1004569D03*
Y999743D03*
G54D16*
X453135Y994917D03*
G54D10*
X474979Y975105D03*
G54D17*
X462787Y1019555D03*
Y1014729D03*
Y1009649D03*
Y1024635D03*
Y1029715D03*
Y1034541D03*
G54D16*
X453135Y1039367D03*
M02*