G04 FAB 3000 Version 7.8.18 - Gerber/CAM Software*
G04 RS274-X Output*
%FSLAX44Y44*%
%MIA0B0*%
%MOMM*%
%SFA1.000000B1.000000*%

%IPPOS*%
%ADD19C,0.254000*%
%ADD20C,0.127000*%
%ADD21C,3.299990*%
%ADD22C,2.100000*%
%ADD23R,2.100000X2.100000*%
%ADD24R,2.100000X2.100000*%
%ADD25R,1.500000X1.500000*%
%ADD26C,1.500000*%
%ADD27C,0.660400*%
%ADD28C,0.025400*%
%LNcartercharger_0*%
%LPD*%
G36*
X661923Y1146047D02*
G01X661415D01*
X656081Y1142745D01*
X651255Y1138427D01*
X647191Y1133855D01*
X643889Y1128267D01*
X641603Y1122425D01*
X640079Y1116329D01*
X639571Y1110233D01*
X640079Y1103883D01*
X641603Y1097787D01*
X643889Y1091945D01*
X647191Y1086611D01*
X651255Y1081785D01*
X656081Y1077467D01*
X661415Y1074419D01*
X667257Y1071879D01*
X673607Y1070355D01*
X679703Y1069847D01*
X686053Y1070355D01*
X692149Y1071879D01*
X697991Y1074419D01*
X703325Y1077467D01*
X708151Y1081785D01*
X712215Y1086611D01*
X714755Y1090675D01*
X716025Y1090167D01*
Y737615D01*
X714755Y737361D01*
X712215Y741425D01*
X708151Y746251D01*
X703325Y750315D01*
X697991Y753617D01*
X692149Y756157D01*
X686053Y757681D01*
X679703Y758189D01*
X673607Y757681D01*
X667257Y756157D01*
X661415Y753617D01*
X656081Y750315D01*
X651255Y746251D01*
X647191Y741425D01*
X643889Y736091D01*
X641603Y730249D01*
X640079Y724153D01*
X639571Y717803D01*
X640079Y711453D01*
X641603Y705357D01*
X643889Y699515D01*
X647191Y694181D01*
X651255Y689355D01*
X656081Y685291D01*
X660907Y682497D01*
X660653Y681227D01*
X268985D01*
X268477Y682243D01*
X270255Y683259D01*
X275081Y687323D01*
X279145Y692149D01*
X282447Y697737D01*
X284733Y703325D01*
X286257Y709675D01*
X286765Y715771D01*
X286257Y722121D01*
X284733Y728217D01*
X282447Y734059D01*
X279145Y739393D01*
X275081Y744219D01*
X270255Y748283D01*
X264667Y751585D01*
X259079Y754125D01*
X252729Y755649D01*
X246633Y756157D01*
X240283Y755649D01*
X234187Y754125D01*
X228345Y751585D01*
X223011Y748283D01*
X218185Y744219D01*
X214121Y739393D01*
X212343Y736853D01*
X211073Y737107D01*
Y1091183D01*
X212343Y1091437D01*
X213359Y1089913D01*
X217423Y1085087D01*
X222249Y1081023D01*
X227583Y1077721D01*
X233425Y1075435D01*
X239521Y1073911D01*
X245871Y1073403D01*
X251967Y1073911D01*
X258317Y1075435D01*
X264159Y1077721D01*
X269493Y1081023D01*
X274319Y1085087D01*
X278383Y1089913D01*
X281685Y1095247D01*
X283971Y1101089D01*
X285495Y1107439D01*
X286003Y1113535D01*
X285495Y1119885D01*
X283971Y1125981D01*
X281685Y1131823D01*
X278383Y1137157D01*
X274319Y1141983D01*
X269493Y1146047D01*
Y1146301D01*
X270001Y1147317D01*
X661669D01*
X661923Y1146047D01*
G37*
%LNcartercharger_1*%
%LPC*%
G36*
X461517Y858011D02*
G01X458977Y857757D01*
X456437Y856741D01*
X454405Y854963D01*
X452881Y852931D01*
X451865Y850391D01*
X451611Y847851D01*
X451865Y845311D01*
X452881Y842771D01*
X454405Y840739D01*
X456437Y839215D01*
X458977Y838199D01*
X461517Y837691D01*
X464311Y838199D01*
X466597Y839215D01*
X468883Y840739D01*
X470407Y842771D01*
X471423Y845311D01*
X471677Y847851D01*
X471423Y850391D01*
X470407Y852931D01*
X468883Y854963D01*
X466597Y856741D01*
X464311Y857757D01*
X461517Y858011D01*
G37*
G36*
X462787Y1020317D02*
G01X442975D01*
Y1014221D01*
X462787D01*
Y1020317D01*
G37*
G36*
X469137Y883411D02*
G01X454151D01*
X453135Y883157D01*
X452373Y882649D01*
X451611Y881887D01*
Y880871D01*
Y865885D01*
Y864869D01*
X452373Y863853D01*
X453135Y863345D01*
X454151Y863091D01*
X469137D01*
X470153Y863345D01*
X470915Y863853D01*
X471423Y864869D01*
X471677Y865885D01*
Y880871D01*
X471423Y881887D01*
X470915Y882649D01*
X470153Y883157D01*
X469137Y883411D01*
G37*
G36*
X528573Y736091D02*
G01X507745D01*
X506729Y735837D01*
X505713Y735329D01*
X505205Y734313D01*
X504951Y733297D01*
Y712469D01*
X505205Y711453D01*
X505713Y710437D01*
X506729Y709929D01*
X507745Y709675D01*
X528573D01*
X529589Y709929D01*
X530351Y710437D01*
X531113Y711453D01*
Y712469D01*
Y733297D01*
Y734313D01*
X530351Y735329D01*
X529589Y735837D01*
X528573Y736091D01*
G37*
G36*
X529589Y858265D02*
G01X526795Y858011D01*
X524509Y856995D01*
X522223Y855471D01*
X520699Y853185D01*
X519683Y850899D01*
X519429Y848359D01*
X519683Y845565D01*
X520699Y843279D01*
X522223Y840993D01*
X524509Y839469D01*
X526795Y838453D01*
X529589Y838199D01*
X532129Y838453D01*
X534415Y839469D01*
X536701Y840993D01*
X538225Y843279D01*
X539241Y845565D01*
X539495Y848359D01*
X539241Y850899D01*
X538225Y853185D01*
X536701Y855471D01*
X534415Y856995D01*
X532129Y858011D01*
X529589Y858265D01*
G37*
G36*
X536955Y832865D02*
G01X521969D01*
X520953Y832611D01*
X520191Y832103D01*
X519683Y831341D01*
X519429Y830325D01*
Y815339D01*
X519683Y814323D01*
X520191Y813561D01*
X520953Y813053D01*
X521969Y812799D01*
X536955D01*
X537971Y813053D01*
X538733Y813561D01*
X539241Y814323D01*
X539495Y815339D01*
Y830325D01*
X539241Y831341D01*
X538733Y832103D01*
X537971Y832611D01*
X536955Y832865D01*
G37*
G36*
X509015Y1025651D02*
G01X506729Y1025143D01*
X504951Y1023873D01*
X503681Y1021841D01*
X503173Y1019555D01*
X503681Y1017269D01*
X504951Y1015491D01*
X506729Y1014221D01*
X509015Y1013713D01*
X511301Y1014221D01*
X513333Y1015491D01*
X513841Y1016507D01*
X516127D01*
X536447Y995933D01*
Y962913D01*
X535431Y962405D01*
X534161Y960373D01*
X533653Y958087D01*
X534161Y955801D01*
X535431Y954023D01*
X537463Y952499D01*
X539749Y952245D01*
X541781Y952499D01*
X543813Y954023D01*
X545083Y955801D01*
X545591Y958087D01*
X545083Y960373D01*
X543813Y962405D01*
X542797Y962913D01*
Y997457D01*
X542543Y998727D01*
X542035Y999743D01*
X519683Y1021841D01*
X518667Y1022603D01*
X517397Y1022857D01*
X513841D01*
X513333Y1023873D01*
X511301Y1025143D01*
X509015Y1025651D01*
G37*
G36*
X241045Y893571D02*
G01X238759Y893063D01*
X236981Y891793D01*
X235711Y890015D01*
X235203Y887729D01*
X235711Y885443D01*
X236981Y883411D01*
X237997Y882649D01*
Y865377D01*
X236981Y864869D01*
X235711Y862837D01*
X235203Y860551D01*
X235711Y858265D01*
X236981Y856487D01*
X238759Y855217D01*
X241045Y854709D01*
X243331Y855217D01*
X245363Y856487D01*
X246633Y858265D01*
X247141Y860551D01*
X246633Y862837D01*
X245363Y864869D01*
X244347Y865377D01*
Y882649D01*
X245363Y883411D01*
X246633Y885443D01*
X247141Y887729D01*
X246633Y890015D01*
X245363Y891793D01*
X243331Y893063D01*
X241045Y893571D01*
G37*
G36*
X274065Y1022349D02*
G01X271779Y1021841D01*
X270001Y1020571D01*
X268731Y1018539D01*
X268223Y1016253D01*
X268731Y1013967D01*
X270001Y1012189D01*
X270255Y1011935D01*
Y999235D01*
X270001Y998981D01*
X268731Y997203D01*
X268223Y994917D01*
X268731Y992631D01*
X270001Y990599D01*
X271779Y989329D01*
X274065Y988821D01*
X276351Y989329D01*
X278383Y990599D01*
X279653Y992631D01*
X280161Y994917D01*
X279653Y997203D01*
X278383Y998981D01*
X278129Y999235D01*
Y1011935D01*
X278383Y1012189D01*
X279653Y1013967D01*
X280161Y1016253D01*
X279653Y1018539D01*
X278383Y1020571D01*
X276351Y1021841D01*
X274065Y1022349D01*
G37*
G36*
X256793Y1054861D02*
G01X235965D01*
X234949D01*
X233933Y1054099D01*
X233425Y1053337D01*
X233171Y1052321D01*
Y1031493D01*
X233425Y1030477D01*
X233933Y1029461D01*
X234949Y1028953D01*
X235965Y1028699D01*
X256793D01*
X257809Y1028953D01*
X258825Y1029461D01*
X259333Y1030477D01*
X259587Y1031493D01*
Y1052321D01*
X259333Y1053337D01*
X258825Y1054099D01*
X257809Y1054861D01*
X256793D01*
G37*
G36*
X393699Y858265D02*
G01X390905Y858011D01*
X388619Y856995D01*
X386333Y855471D01*
X384809Y853185D01*
X383793Y850899D01*
X383539Y848359D01*
X383793Y845565D01*
X384809Y843279D01*
X386333Y840993D01*
X388619Y839469D01*
X390905Y838453D01*
X393699Y838199D01*
X396239Y838453D01*
X398525Y839469D01*
X400811Y840993D01*
X402335Y843279D01*
X403351Y845565D01*
X403605Y848359D01*
X403351Y850899D01*
X402335Y853185D01*
X400811Y855471D01*
X398525Y856995D01*
X396239Y858011D01*
X393699Y858265D01*
G37*
G36*
X397763Y735837D02*
G01X394461Y735329D01*
X391413Y734059D01*
X388619Y732027D01*
X386587Y729233D01*
X385063Y725931D01*
X384809Y722629D01*
X385063Y719327D01*
X386587Y716025D01*
X388619Y713231D01*
X391413Y711199D01*
X394461Y709929D01*
X397763Y709421D01*
X401319Y709929D01*
X404367Y711199D01*
X407161Y713231D01*
X409193Y716025D01*
X410463Y719327D01*
X410971Y722629D01*
X410463Y725931D01*
X409193Y729233D01*
X407161Y732027D01*
X404367Y734059D01*
X401319Y735329D01*
X397763Y735837D01*
G37*
G36*
X393699Y832865D02*
G01X390905Y832611D01*
X388619Y831595D01*
X386333Y830071D01*
X384809Y827785D01*
X383793Y825499D01*
X383539Y822959D01*
X383793Y820165D01*
X384809Y817879D01*
X386333Y815593D01*
X388619Y814069D01*
X390905Y813053D01*
X393699Y812799D01*
X396239Y813053D01*
X398525Y814069D01*
X400811Y815593D01*
X402335Y817879D01*
X403351Y820165D01*
X403605Y822959D01*
X403351Y825499D01*
X402335Y827785D01*
X400811Y830071D01*
X398525Y831595D01*
X396239Y832611D01*
X393699Y832865D01*
G37*
G36*
X401065Y883665D02*
G01X386079D01*
X385063Y883411D01*
X384301Y882903D01*
X383793Y882141D01*
X383539Y881125D01*
Y866139D01*
X383793Y865123D01*
X384301Y864361D01*
X385063Y863853D01*
X386079Y863599D01*
X401065D01*
X402081Y863853D01*
X402843Y864361D01*
X403351Y865123D01*
X403605Y866139D01*
Y881125D01*
X403351Y882141D01*
X402843Y882903D01*
X402081Y883411D01*
X401065Y883665D01*
G37*
G36*
X432815Y735837D02*
G01X429513Y735329D01*
X426211Y734059D01*
X423671Y732027D01*
X421385Y729233D01*
X420115Y725931D01*
X419607Y722629D01*
X420115Y719327D01*
X421385Y716025D01*
X423671Y713231D01*
X426211Y711199D01*
X429513Y709929D01*
X432815Y709421D01*
X436371Y709929D01*
X439419Y711199D01*
X442213Y713231D01*
X444245Y716025D01*
X445515Y719327D01*
X446023Y722629D01*
X445515Y725931D01*
X444245Y729233D01*
X442213Y732027D01*
X439419Y734059D01*
X436371Y735329D01*
X432815Y735837D01*
G37*
G36*
X588009Y736091D02*
G01X584707Y735583D01*
X581659Y734313D01*
X578865Y732281D01*
X576833Y729487D01*
X575309Y726185D01*
X575055Y722883D01*
X575309Y719581D01*
X576833Y716279D01*
X578865Y713485D01*
X581659Y711453D01*
X584707Y710183D01*
X588009Y709675D01*
X591565Y710183D01*
X594613Y711453D01*
X597407Y713485D01*
X599439Y716279D01*
X600709Y719581D01*
X601217Y722883D01*
X600709Y726185D01*
X599439Y729487D01*
X597407Y732281D01*
X594613Y734313D01*
X591565Y735583D01*
X588009Y736091D01*
G37*
G36*
X605027Y973835D02*
G01X602741Y973327D01*
X600963Y972057D01*
X600201Y971041D01*
X583691D01*
X583183Y972057D01*
X581151Y973327D01*
X578865Y973835D01*
X576579Y973327D01*
X574547Y972057D01*
X573277Y970025D01*
X573023Y967993D01*
X573277Y965707D01*
X574547Y963675D01*
X576579Y962405D01*
X578865Y961897D01*
X581151Y962405D01*
X583183Y963675D01*
X583691Y964691D01*
X600201D01*
X600963Y963675D01*
X602741Y962405D01*
X605027Y961897D01*
X607313Y962405D01*
X609345Y963675D01*
X610615Y965707D01*
X611123Y967993D01*
X610615Y970025D01*
X609345Y972057D01*
X607313Y973327D01*
X605027Y973835D01*
G37*
G36*
X616965Y832865D02*
G01X601979D01*
X600963Y832611D01*
X600201Y832103D01*
X599693Y831341D01*
X599439Y830325D01*
Y815339D01*
X599693Y814323D01*
X600201Y813561D01*
X600963Y813053D01*
X601979Y812799D01*
X616965D01*
X617981Y813053D01*
X618743Y813561D01*
X619251Y814323D01*
X619505Y815339D01*
Y830325D01*
X619251Y831341D01*
X618743Y832103D01*
X617981Y832611D01*
X616965Y832865D01*
G37*
G36*
X609599Y858265D02*
G01X606805Y858011D01*
X604519Y856995D01*
X602233Y855471D01*
X600709Y853185D01*
X599693Y850899D01*
X599439Y848359D01*
X599693Y845565D01*
X600709Y843279D01*
X602233Y840993D01*
X604519Y839469D01*
X606805Y838453D01*
X609599Y838199D01*
X612139Y838453D01*
X614425Y839469D01*
X616711Y840993D01*
X618235Y843279D01*
X619251Y845565D01*
X619505Y848359D01*
X619251Y850899D01*
X618235Y853185D01*
X616711Y855471D01*
X614425Y856995D01*
X612139Y858011D01*
X609599Y858265D01*
G37*
G36*
X678687Y1027937D02*
G01X657605D01*
X656589Y1027683D01*
X655827Y1027175D01*
X655319Y1026413D01*
X655065Y1025397D01*
Y1004315D01*
X655319Y1003299D01*
X655827Y1002537D01*
X656589Y1002029D01*
X657605Y1001775D01*
X678687D01*
X679703Y1002029D01*
X680465Y1002537D01*
X680973Y1003299D01*
X681227Y1004315D01*
Y1025397D01*
X680973Y1026413D01*
X680465Y1027175D01*
X679703Y1027683D01*
X678687Y1027937D01*
G37*
G36*
X668019Y958087D02*
G01X664717Y957579D01*
X661669Y956309D01*
X658875Y954277D01*
X656843Y951483D01*
X655319Y948181D01*
X655065Y944879D01*
X655319Y941577D01*
X656843Y938275D01*
X658875Y935481D01*
X661669Y933449D01*
X664717Y932179D01*
X668019Y931671D01*
X671575Y932179D01*
X674623Y933449D01*
X677417Y935481D01*
X679449Y938275D01*
X680719Y941577D01*
X681227Y944879D01*
X680719Y948181D01*
X679449Y951483D01*
X677417Y954277D01*
X674623Y956309D01*
X671575Y957579D01*
X668019Y958087D01*
G37*
G36*
X266699Y831595D02*
G01X264159Y831341D01*
X262127Y830579D01*
X260349Y829055D01*
X258825Y827277D01*
X258063Y825245D01*
X257809Y822959D01*
X258063Y820419D01*
X258825Y818387D01*
X260349Y816609D01*
X262127Y815085D01*
X264159Y814323D01*
X266699Y814069D01*
X268985Y814323D01*
X271017Y815085D01*
X272795Y816609D01*
X274319Y818387D01*
X275081Y820419D01*
X275335Y822959D01*
X275081Y825245D01*
X274319Y827277D01*
X272795Y829055D01*
X271017Y830579D01*
X268985Y831341D01*
X266699Y831595D01*
G37*
G36*
X274065Y882395D02*
G01X259079D01*
X258063Y882141D01*
X257809Y881125D01*
Y866139D01*
X258063Y865123D01*
X259079Y864869D01*
X274065D01*
X275081Y865123D01*
X275335Y866139D01*
Y881125D01*
X275081Y882141D01*
X274065Y882395D01*
G37*
G36*
X266699Y856995D02*
G01X264159Y856741D01*
X262127Y855979D01*
X260349Y854455D01*
X258825Y852677D01*
X258063Y850645D01*
X257809Y848359D01*
X258063Y845819D01*
X258825Y843787D01*
X260349Y842009D01*
X262127Y840485D01*
X264159Y839723D01*
X266699Y839469D01*
X268985Y839723D01*
X271017Y840485D01*
X272795Y842009D01*
X274319Y843787D01*
X275081Y845819D01*
X275335Y848359D01*
X275081Y850645D01*
X274319Y852677D01*
X272795Y854455D01*
X271017Y855979D01*
X268985Y856741D01*
X266699Y856995D01*
G37*
G36*
X331469Y831595D02*
G01X328929Y831341D01*
X326897Y830579D01*
X325119Y829055D01*
X323595Y827277D01*
X322833Y825245D01*
X322579Y822959D01*
X322833Y820419D01*
X323595Y818387D01*
X325119Y816609D01*
X326897Y815085D01*
X328929Y814323D01*
X331469Y814069D01*
X333755Y814323D01*
X335787Y815085D01*
X337565Y816609D01*
X339089Y818387D01*
X339851Y820419D01*
X340105Y822959D01*
X339851Y825245D01*
X339089Y827277D01*
X337565Y829055D01*
X335787Y830579D01*
X333755Y831341D01*
X331469Y831595D01*
G37*
G36*
X338835Y882395D02*
G01X323849D01*
X322833Y882141D01*
X322579Y881125D01*
Y866139D01*
X322833Y865123D01*
X323849Y864869D01*
X338835D01*
X339851Y865123D01*
X340105Y866139D01*
Y881125D01*
X339851Y882141D01*
X338835Y882395D01*
G37*
G36*
X331469Y856995D02*
G01X328929Y856741D01*
X326897Y855979D01*
X325119Y854455D01*
X323595Y852677D01*
X322833Y850645D01*
X322579Y848359D01*
X322833Y845819D01*
X323595Y843787D01*
X325119Y842009D01*
X326897Y840485D01*
X328929Y839723D01*
X331469Y839469D01*
X333755Y839723D01*
X335787Y840485D01*
X337565Y842009D01*
X339089Y843787D01*
X339851Y845819D01*
X340105Y848359D01*
X339851Y850645D01*
X339089Y852677D01*
X337565Y854455D01*
X335787Y855979D01*
X333755Y856741D01*
X331469Y856995D01*
G37*
G36*
X338327Y735837D02*
G01X317499D01*
X316483Y735583D01*
X315467Y735075D01*
X314959Y734059D01*
X314705Y733043D01*
Y712215D01*
X314959Y711199D01*
X315467Y710183D01*
X316483Y709675D01*
X317499Y709421D01*
X338327D01*
X339343Y709675D01*
X340105Y710183D01*
X340867Y711199D01*
Y712215D01*
Y733043D01*
Y734059D01*
X340105Y735075D01*
X339343Y735583D01*
X338327Y735837D01*
G37*
%LNcartercharger_2*%
%LPD*%
G54D25*
X461517Y873251D03*
G54D26*
Y847851D03*
Y822451D03*
G54D28*
X459231Y1017269D02*
G01X459485D01*
X458977D02*
G01X459231D01*
X458977D02*
G01X458723D01*
D02*
G01X458977D01*
D02*
G01X458723D01*
X457453D02*
G01X457707D01*
D02*
G01X457453D01*
D02*
G01X457707D01*
X458469D02*
G01X458215D01*
D02*
G01X458469D01*
D02*
G01X458215D01*
X458469D02*
G01X458723D01*
D02*
G01X458469D01*
D02*
G01X458723D01*
X457961D02*
G01X458215D01*
X455929D02*
G01Y1017523D01*
X456945Y1017015D02*
G01Y1017269D01*
D02*
G01X456691D01*
D02*
G01X456945D01*
Y1017523D02*
G01Y1017269D01*
D02*
G01X457199D01*
X457453D02*
G01X457199D01*
D02*
G01X457453D01*
X456691D03*
X456437D03*
X454913D02*
G01X454659D01*
D02*
G01X454913D01*
X454659D02*
G01X454913D01*
X454405D02*
G01X454659D01*
X454913D03*
X455421D02*
G01Y1017523D01*
D02*
G01X455675Y1017269D01*
D02*
G01X455421D01*
X455675D02*
G01Y1017523D01*
G54D27*
X450341Y1027429D03*
X450849Y1017523D03*
X451103Y1007363D03*
G54D28*
X453897Y1017269D02*
G01X453643D01*
D02*
G01X453897D01*
X453643D02*
G01X453897D01*
X453643D02*
G01X453389D01*
D02*
G01X453643D01*
D02*
G01X453389D01*
Y1017523D02*
G01X453135D01*
X453389Y1017269D02*
G01Y1017523D01*
X453135Y1017269D02*
G01X453389D01*
X453897D02*
G01X454151D01*
D02*
G01X453897D01*
X454151Y1017015D02*
G01X454405D01*
D02*
G01Y1017269D01*
D02*
G01X454151D01*
D02*
G01X454405D01*
X452119D02*
G01X452373D01*
D02*
G01X452119D01*
X451865D02*
G01X452119D01*
D02*
G01X451865D01*
X452627D02*
G01X452881D01*
X453135Y1017523D02*
G01Y1017269D01*
X452881D02*
G01X452627D01*
X452881Y1017523D02*
G01Y1017269D01*
X452627D02*
G01X452373D01*
D02*
G01X452627D01*
D02*
G01X452373D01*
X450595D03*
X450341Y1017523D02*
G01Y1017269D01*
D02*
G01Y1017523D01*
X451103Y1017269D03*
X451357D02*
G01Y1017523D01*
X451611Y1017269D02*
G01X451357D01*
D02*
G01X451611D01*
D02*
G01X451357D01*
X451611D02*
G01X451865D01*
X450849D03*
X448563D02*
G01Y1017523D01*
X448309Y1017269D02*
G01X448563D01*
D02*
G01X448309Y1017523D01*
X449071Y1017269D02*
G01Y1017523D01*
D02*
G01Y1017269D01*
X449325D02*
G01Y1017523D01*
D02*
G01Y1017269D01*
X449579D02*
G01Y1017523D01*
D02*
G01Y1017269D01*
X449833Y1017523D02*
G01Y1017269D01*
X447039D02*
G01X447293D01*
D02*
G01X447039D01*
D03*
X447293Y1017523D02*
G01Y1017269D01*
D02*
G01X447547D01*
D02*
G01X447801D01*
D02*
G01X447547D01*
D02*
G01X447801D01*
X448055D02*
G01Y1017523D01*
X448309D02*
G01Y1017269D01*
X447293Y1017015D02*
G01Y1017269D01*
G54D20*
X509015Y1019555D02*
G01X517397D01*
G54D28*
X459739Y1017269D02*
G01X459485D01*
D02*
G01X459739D01*
D02*
G01X459485D01*
X459993Y1017523D02*
G01Y1017269D01*
D02*
G01X459739D01*
D02*
G01X459993D01*
G54D27*
X509015Y1019555D03*
G54D26*
X529589Y873759D03*
Y848359D03*
G54D25*
Y822959D03*
G54D24*
X518159Y722883D03*
G54D20*
X517397Y1019555D02*
G01X539749Y997457D01*
G54D27*
Y958087D03*
G54D19*
X274065Y994917D02*
G01Y1016253D01*
G54D21*
X245871Y1113535D03*
G54D22*
X246379Y1006855D03*
G54D23*
Y1041907D03*
G54D27*
X370839Y1068831D03*
X344931Y1071117D03*
X331215Y1070863D03*
X317499D03*
X374395Y991615D03*
Y978661D03*
X274065Y1016253D03*
Y994917D03*
X396239Y1068831D03*
X391413Y991615D03*
Y978661D03*
G54D26*
X393699Y822959D03*
Y848359D03*
G54D25*
Y873759D03*
G54D22*
X397763Y722629D03*
X432815D03*
G54D27*
X439673Y1007871D03*
G54D28*
X445769Y1017269D02*
G01Y1017523D01*
X446785Y1017269D03*
X446531D03*
D02*
G01Y1017015D01*
X446277D02*
G01Y1017269D01*
X446023D03*
X445769Y1017523D02*
G01Y1017269D01*
G54D27*
X439673Y1017777D03*
X439927Y1027683D03*
G54D25*
X609599Y822959D03*
G54D26*
Y848359D03*
Y873759D03*
G54D27*
X578865Y967993D03*
X605027D03*
G54D22*
X588009Y722883D03*
X553211D03*
G54D20*
X539749Y958087D02*
G01Y997457D01*
X578865Y967993D02*
G01X605027D01*
G54D23*
X668019Y1014983D03*
G54D22*
Y979931D03*
Y944879D03*
Y909827D03*
G54D21*
X679703Y717803D03*
Y1110233D03*
G54D25*
X266699Y873759D03*
G54D26*
Y848359D03*
Y822959D03*
G54D27*
X241045Y887729D03*
Y860551D03*
G54D21*
X246633Y715771D03*
G54D20*
X241045Y860551D02*
G01Y887729D01*
G54D24*
X327913Y722629D03*
G54D25*
X331469Y873759D03*
G54D26*
Y848359D03*
Y822959D03*
G54D22*
X362965Y722629D03*
M02*