G04 FAB 3000 Version 7.8.18 - Gerber/CAM Software*
G04 RS274-X Output*
%FSLAX44Y44*%
%MIA0B0*%
%MOMM*%
%SFA1.000000B1.000000*%

%IPPOS*%
%ADD19C,0.254000*%
%ADD20C,0.127000*%
%ADD21C,3.299990*%
%ADD22C,2.100000*%
%ADD23R,2.100000X2.100000*%
%ADD24R,2.100000X2.100000*%
%ADD25R,1.500000X1.500000*%
%ADD26C,1.500000*%
%ADD27C,0.660400*%
%ADD28C,0.025400*%
%ADD32C,6.999990*%
%ADD34C,0.050800*%
%ADD35C,0.067690*%
%LNcartercharger_0*%
%LPD*%
G54D19*
X625347Y764793D02*
G01Y780033D01*
D02*
G01X630427Y774953D01*
D02*
G01X635507Y780033D01*
D02*
G01Y764793D01*
X640587D02*
G01X645667D01*
D02*
G01X643127D01*
D02*
G01Y780033D01*
D02*
G01X640587Y777493D01*
X625347Y1157223D02*
G01Y1172463D01*
D02*
G01X630427Y1167383D01*
D02*
G01X635507Y1172463D01*
D02*
G01Y1157223D01*
X640587Y1169923D02*
G01X643127Y1172463D01*
D02*
G01X648207D01*
D02*
G01X650747Y1169923D01*
X643127Y1157223D02*
G01X640587Y1159763D01*
X648207Y1157223D02*
G01X643127D01*
X650747Y1159763D02*
G01X648207Y1157223D01*
X650747Y1162303D02*
G01Y1159763D01*
X648207Y1164843D02*
G01X650747Y1162303D01*
X645667Y1164843D02*
G01X648207D01*
D02*
G01X645667D01*
X650747Y1167383D02*
G01X648207Y1164843D01*
X650747Y1169923D02*
G01Y1167383D01*
X192277Y778001D02*
G01X197357Y772921D01*
D02*
G01X202437Y778001D01*
D02*
G01Y762761D01*
X192277D02*
G01Y778001D01*
X201675Y1175765D02*
G01Y1160525D01*
X196595Y1170685D02*
G01X201675Y1175765D01*
X191515D02*
G01X196595Y1170685D01*
X191515Y1160525D02*
G01Y1175765D01*
X217677Y762761D02*
G01X207517D01*
D02*
G01X217677Y772921D01*
D02*
G01Y775461D01*
D02*
G01X215137Y778001D01*
D02*
G01X210057D01*
D02*
G01X207517Y775461D01*
X206755Y1168145D02*
G01X216915D01*
X214375Y1175765D02*
G01X206755Y1168145D01*
X214375Y1160525D02*
G01Y1175765D01*
M02*