G04 FAB 3000 Version 7.8.18 - Gerber/CAM Software*
G04 RS274-X Output*
%FSLAX44Y44*%
%MIA0B0*%
%MOMM*%
%SFA1.000000B1.000000*%

%IPPOS*%
%ADD19C,0.254000*%
%ADD20C,0.127000*%
%ADD21C,3.299990*%
%ADD22C,2.100000*%
%ADD23R,2.100000X2.100000*%
%ADD24R,2.100000X2.100000*%
%ADD25R,1.500000X1.500000*%
%ADD26C,1.500000*%
%ADD27C,0.660400*%
%ADD28C,0.025400*%
%ADD34C,0.050800*%
%ADD35C,0.067690*%
%LNcartercharger_0*%
%LPD*%
G54D35*
X401827Y724915D02*
G01X400303Y722883D01*
X404113Y724153D02*
G01X401827Y724915D01*
Y720851D02*
G01X404113Y721613D01*
X400303Y722883D02*
G01X401827Y720851D01*
G54D34*
X425957Y820927D02*
G01X427989Y824991D01*
D02*
G01X423925D01*
D02*
G01X425957Y820927D01*
X493775Y820419D02*
G01X495807Y824483D01*
D02*
G01X491743D01*
D02*
G01X493775Y820419D01*
G54D35*
X435355Y722883D02*
G01X436879Y720851D01*
D02*
G01X438911Y721613D01*
D02*
G01Y724153D01*
D02*
G01X436879Y724915D01*
D02*
G01X435355Y722883D01*
X404113Y721613D02*
G01Y724153D01*
G54D34*
X624077Y820927D02*
G01X626109Y824991D01*
D02*
G01X622045D01*
D02*
G01X624077Y820927D01*
G54D35*
X629157Y723899D02*
G01X627125Y724661D01*
D02*
G01X625601Y722629D01*
X629157Y721359D02*
G01Y723899D01*
X627125Y720597D02*
G01X629157Y721359D01*
X625601Y722629D02*
G01X627125Y720597D01*
X592073Y724661D02*
G01X590549Y722629D01*
X594359Y723899D02*
G01X592073Y724661D01*
X594359Y721359D02*
G01Y723899D01*
X592073Y720597D02*
G01X594359Y721359D01*
X590549Y722629D02*
G01X592073Y720597D01*
G54D34*
X624077Y846327D02*
G01X626109Y850391D01*
D02*
G01X622045D01*
D02*
G01X624077Y846327D01*
X561847Y820927D02*
G01X563879Y824991D01*
D02*
G01X559815D01*
D02*
G01X561847Y820927D01*
G54D35*
X524255Y723899D02*
G01X521969Y724661D01*
D02*
G01X520699Y722629D01*
X555497D02*
G01X557021Y720597D01*
D02*
G01X559307Y721359D01*
D02*
G01Y723899D01*
D02*
G01X557021Y724661D01*
D02*
G01X555497Y722629D01*
X524255Y721359D02*
G01Y723899D01*
X521969Y720597D02*
G01X524255Y721359D01*
X520699Y722629D02*
G01X521969Y720597D01*
G54D34*
X561847Y846327D02*
G01X563879Y850391D01*
D02*
G01X559815D01*
D02*
G01X561847Y846327D01*
Y871727D02*
G01X563879Y875791D01*
D02*
G01X559815D01*
D02*
G01X561847Y871727D01*
X563117Y979677D02*
G01X564133Y980693D01*
D02*
G01X565149Y979677D01*
D02*
G01X566165D01*
D02*
G01X565149Y978661D01*
D02*
G01X566165Y977645D01*
D02*
G01X565149D01*
D02*
G01X564133Y976629D01*
X562101Y979677D02*
G01X563117D01*
Y978661D02*
G01X562101Y979677D01*
Y977645D02*
G01X563117Y978661D01*
Y977645D02*
G01X562101D01*
X564133Y976629D02*
G01X563117Y977645D01*
X624077Y871727D02*
G01X626109Y875791D01*
D02*
G01X622045D01*
D02*
G01X624077Y871727D01*
X580135Y979677D02*
G01X581151Y980693D01*
D02*
G01X582167Y979677D01*
D02*
G01X583183D01*
D02*
G01X582167Y978661D01*
D02*
G01X583183Y977645D01*
D02*
G01X582167D01*
D02*
G01X581151Y976629D01*
X579119Y979677D02*
G01X580135D01*
Y978661D02*
G01X579119Y979677D01*
Y977645D02*
G01X580135Y978661D01*
Y977645D02*
G01X579119D01*
X581151Y976629D02*
G01X580135Y977645D01*
X610615Y1069085D02*
G01X609599Y1070101D01*
D02*
G01X608583D01*
D02*
G01X609599Y1071117D01*
D02*
G01X608583Y1072133D01*
D02*
G01X609599D01*
D02*
G01X610615Y1073149D01*
X639063Y1071879D02*
G01X640079D01*
D02*
G01X639063Y1070863D01*
D02*
G01X640079Y1069847D01*
D02*
G01X639063D01*
D02*
G01X638047Y1068831D01*
Y1072895D02*
G01X639063Y1071879D01*
X637031D02*
G01X638047Y1072895D01*
X636015Y1071879D02*
G01X637031D01*
Y1070863D02*
G01X636015Y1071879D01*
Y1069847D02*
G01X637031Y1070863D01*
Y1069847D02*
G01X636015D01*
X638047Y1068831D02*
G01X637031Y1069847D01*
X610615Y1073149D02*
G01X611631Y1072133D01*
Y1070101D02*
G01X610615Y1069085D01*
X612647Y1070101D02*
G01X611631D01*
Y1071117D02*
G01X612647Y1070101D01*
Y1072133D02*
G01X611631Y1071117D01*
Y1072133D02*
G01X612647D01*
X625347Y1071879D02*
G01X626363D01*
D02*
G01X625347Y1070863D01*
D02*
G01X626363Y1069847D01*
D02*
G01X625347D01*
D02*
G01X624331Y1068831D01*
Y1072895D02*
G01X625347Y1071879D01*
X623315D02*
G01X624331Y1072895D01*
X622299Y1071879D02*
G01X623315D01*
Y1070863D02*
G01X622299Y1071879D01*
Y1069847D02*
G01X623315Y1070863D01*
Y1069847D02*
G01X622299D01*
X624331Y1068831D02*
G01X623315Y1069847D01*
X514603Y1028699D02*
G01X515619Y1029715D01*
D02*
G01X516635Y1028699D01*
X504189Y1028445D02*
G01X505205Y1029461D01*
D02*
G01X506221Y1028445D01*
X559307Y1066799D02*
G01X558291Y1067815D01*
D02*
G01X557275D01*
D02*
G01X558291Y1068831D01*
D02*
G01X557275Y1069847D01*
D02*
G01X558291D01*
D02*
G01X559307Y1070863D01*
D02*
G01X560323Y1069847D01*
Y1067815D02*
G01X559307Y1066799D01*
X561339Y1067815D02*
G01X560323D01*
Y1068831D02*
G01X561339Y1067815D01*
Y1069847D02*
G01X560323Y1068831D01*
Y1069847D02*
G01X561339D01*
X581151Y989583D02*
G01X580135Y990599D01*
D02*
G01X579119D01*
D02*
G01X580135Y991615D01*
D02*
G01X579119Y992631D01*
D02*
G01X580135D01*
D02*
G01X581151Y993647D01*
D02*
G01X582167Y992631D01*
Y990599D02*
G01X581151Y989583D01*
X583183Y990599D02*
G01X582167D01*
Y991615D02*
G01X583183Y990599D01*
Y992631D02*
G01X582167Y991615D01*
Y992631D02*
G01X583183D01*
X584707Y1066799D02*
G01X583691Y1067815D01*
D02*
G01X582675D01*
D02*
G01X583691Y1068831D01*
D02*
G01X582675Y1069847D01*
D02*
G01X583691D01*
D02*
G01X584707Y1070863D01*
D02*
G01X585723Y1069847D01*
Y1067815D02*
G01X584707Y1066799D01*
X586739Y1067815D02*
G01X585723D01*
Y1068831D02*
G01X586739Y1067815D01*
Y1069847D02*
G01X585723Y1068831D01*
Y1069847D02*
G01X586739D01*
X564133Y989583D02*
G01X563117Y990599D01*
D02*
G01X562101D01*
D02*
G01X563117Y991615D01*
D02*
G01X562101Y992631D01*
D02*
G01X563117D01*
D02*
G01X564133Y993647D01*
D02*
G01X565149Y992631D01*
Y990599D02*
G01X564133Y989583D01*
X566165Y990599D02*
G01X565149D01*
Y991615D02*
G01X566165Y990599D01*
Y992631D02*
G01X565149Y991615D01*
Y992631D02*
G01X566165D01*
X504443Y1005331D02*
G01X503427Y1006347D01*
D02*
G01X502411D01*
D02*
G01X503427Y1007363D01*
D02*
G01X502411Y1008379D01*
D02*
G01X503427D01*
D02*
G01X504443Y1009395D01*
D02*
G01X505459Y1008379D01*
Y1006347D02*
G01X504443Y1005331D01*
X506475Y1006347D02*
G01X505459D01*
Y1007363D02*
G01X506475Y1006347D01*
Y1008379D02*
G01X505459Y1007363D01*
Y1008379D02*
G01X506475D01*
X516889Y1008887D02*
G01X517905D01*
D02*
G01X516889Y1007871D01*
D02*
G01X517905Y1006855D01*
D02*
G01X516889D01*
D02*
G01X515873Y1005839D01*
Y1009903D02*
G01X516889Y1008887D01*
X514857D02*
G01X515873Y1009903D01*
X513841Y1008887D02*
G01X514857D01*
Y1007871D02*
G01X513841Y1008887D01*
Y1006855D02*
G01X514857Y1007871D01*
Y1006855D02*
G01X513841D01*
X515873Y1005839D02*
G01X514857Y1006855D01*
X505713Y1018539D02*
G01X506729D01*
D02*
G01X505713Y1017523D01*
D02*
G01X506729Y1016507D01*
D02*
G01X505713D01*
D02*
G01X504697Y1015491D01*
Y1019555D02*
G01X505713Y1018539D01*
X503681D02*
G01X504697Y1019555D01*
X502665Y1018539D02*
G01X503681D01*
Y1017523D02*
G01X502665Y1018539D01*
Y1016507D02*
G01X503681Y1017523D01*
Y1016507D02*
G01X502665D01*
X504697Y1015491D02*
G01X503681Y1016507D01*
X505205Y1025397D02*
G01X504189Y1026413D01*
D02*
G01X503173D01*
D02*
G01X504189Y1027429D01*
D02*
G01X503173Y1028445D01*
D02*
G01X504189D01*
X506221Y1026413D02*
G01X505205Y1025397D01*
X507237Y1026413D02*
G01X506221D01*
Y1027429D02*
G01X507237Y1026413D01*
Y1028445D02*
G01X506221Y1027429D01*
Y1028445D02*
G01X507237D01*
X516889Y1018793D02*
G01X517905D01*
D02*
G01X516889Y1017777D01*
D02*
G01X517905Y1016761D01*
D02*
G01X516889D01*
D02*
G01X515873Y1015745D01*
Y1019809D02*
G01X516889Y1018793D01*
X514857D02*
G01X515873Y1019809D01*
X513841Y1018793D02*
G01X514857D01*
Y1017777D02*
G01X513841Y1018793D01*
Y1016761D02*
G01X514857Y1017777D01*
Y1016761D02*
G01X513841D01*
X515873Y1015745D02*
G01X514857Y1016761D01*
X515619Y1025651D02*
G01X514603Y1026667D01*
D02*
G01X513587D01*
D02*
G01X514603Y1027683D01*
D02*
G01X513587Y1028699D01*
D02*
G01X514603D01*
X516635Y1026667D02*
G01X515619Y1025651D01*
X517651Y1026667D02*
G01X516635D01*
Y1027683D02*
G01X517651Y1026667D01*
Y1028699D02*
G01X516635Y1027683D01*
Y1028699D02*
G01X517651D01*
X680465Y1017269D02*
G01X681481Y1018285D01*
D02*
G01X682497Y1017269D01*
D02*
G01X683513D01*
D02*
G01X682497Y1016253D01*
D02*
G01X683513Y1015237D01*
D02*
G01X682497D01*
D02*
G01X681481Y1014221D01*
X679449Y1017269D02*
G01X680465D01*
Y1016253D02*
G01X679449Y1017269D01*
Y1015237D02*
G01X680465Y1016253D01*
Y1015237D02*
G01X679449D01*
X681481Y1014221D02*
G01X680465Y1015237D01*
X277875Y1108201D02*
G01Y1112265D01*
D02*
G01X273811D01*
D02*
G01Y1108201D01*
D02*
G01X277875D01*
G54D35*
X285241Y979931D02*
G01X286765Y977899D01*
D02*
G01X289051Y978661D01*
D02*
G01Y980947D01*
D02*
G01X286765Y981709D01*
D02*
G01X285241Y979931D01*
Y1014983D02*
G01X286765Y1012951D01*
D02*
G01X289051Y1013713D01*
D02*
G01Y1015999D01*
X286765Y1016761D02*
G01X285241Y1014983D01*
X289051Y1015999D02*
G01X286765Y1016761D01*
G54D34*
X350265Y965961D02*
G01X349249Y966977D01*
D02*
G01X348233D01*
D02*
G01X349249Y967993D01*
D02*
G01X348233Y969009D01*
D02*
G01X349249D01*
X351281Y966977D02*
G01X350265Y965961D01*
X352297Y966977D02*
G01X351281D01*
Y967993D02*
G01X352297Y966977D01*
Y969009D02*
G01X351281Y967993D01*
Y969009D02*
G01X352297D01*
X350265Y970025D02*
G01X351281Y969009D01*
X349249D02*
G01X350265Y970025D01*
G54D35*
X365251Y722883D02*
G01X366775Y720851D01*
D02*
G01X369061Y721613D01*
D02*
G01Y724153D01*
D02*
G01X366775Y724915D01*
D02*
G01X365251Y722883D01*
G54D34*
X377697Y966977D02*
G01X376681Y965961D01*
X378713Y966977D02*
G01X377697D01*
Y967993D02*
G01X378713Y966977D01*
Y969009D02*
G01X377697Y967993D01*
Y969009D02*
G01X378713D01*
X376681Y970025D02*
G01X377697Y969009D01*
X375665D02*
G01X376681Y970025D01*
X374649Y969009D02*
G01X375665D01*
Y967993D02*
G01X374649Y969009D01*
Y966977D02*
G01X375665Y967993D01*
Y966977D02*
G01X374649D01*
X376681Y965961D02*
G01X375665Y966977D01*
X707643Y1115567D02*
G01Y1111503D01*
X710945Y713739D02*
G01Y717803D01*
D02*
G01X706881D01*
D02*
G01Y713739D01*
D02*
G01X710945D01*
G54D35*
X707135Y1041907D02*
G01X708405Y1039875D01*
D02*
G01X710691Y1040637D01*
D02*
G01Y1043177D01*
X708405Y1008887D02*
G01X707135Y1006855D01*
X710691Y1008125D02*
G01X708405Y1008887D01*
X710691Y1005585D02*
G01Y1008125D01*
X708405Y1004823D02*
G01X710691Y1005585D01*
X707135Y1006855D02*
G01X708405Y1004823D01*
Y1043685D02*
G01X707135Y1041907D01*
X710691Y1043177D02*
G01X708405Y1043685D01*
G54D34*
X711707Y1111503D02*
G01Y1115567D01*
D02*
G01X707643D01*
Y1111503D02*
G01X711707D01*
X713485Y861567D02*
G01X714501Y862583D01*
D02*
G01X715517Y861567D01*
D02*
G01X716533D01*
D02*
G01X715517Y860551D01*
D02*
G01X716533Y859535D01*
D02*
G01X715517D01*
D02*
G01X714501Y858519D01*
X712469Y861567D02*
G01X713485D01*
Y860551D02*
G01X712469Y861567D01*
Y859535D02*
G01X713485Y860551D01*
Y859535D02*
G01X712469D01*
X714501Y858519D02*
G01X713485Y859535D01*
X714501Y885697D02*
G01X713485Y886713D01*
D02*
G01X712469D01*
D02*
G01X713485Y887729D01*
D02*
G01X712469Y888745D01*
D02*
G01X713485D01*
D02*
G01X714501Y889761D01*
D02*
G01X715517Y888745D01*
Y886713D02*
G01X714501Y885697D01*
X716533Y886713D02*
G01X715517D01*
Y887729D02*
G01X716533Y886713D01*
Y888745D02*
G01X715517Y887729D01*
Y888745D02*
G01X716533D01*
X682497Y995933D02*
G01X683513D01*
D02*
G01X682497Y994917D01*
D02*
G01X683513Y993901D01*
D02*
G01X682497D01*
D02*
G01X681481Y992885D01*
Y996949D02*
G01X682497Y995933D01*
X680465D02*
G01X681481Y996949D01*
X679449Y995933D02*
G01X680465D01*
Y994917D02*
G01X679449Y995933D01*
Y993901D02*
G01X680465Y994917D01*
Y993901D02*
G01X679449D01*
X681481Y992885D02*
G01X680465Y993901D01*
X688847Y871727D02*
G01X690879Y875791D01*
D02*
G01X686815D01*
D02*
G01X688847Y871727D01*
Y846327D02*
G01X690879Y850391D01*
X686815Y824991D02*
G01X688847Y820927D01*
X690879Y824991D02*
G01X686815D01*
X688847Y820927D02*
G01X690879Y824991D01*
X686815Y850391D02*
G01X688847Y846327D01*
X690879Y850391D02*
G01X686815D01*
X447547Y1020571D02*
G01X448563D01*
D02*
G01X447547Y1019555D01*
D02*
G01X448563Y1018539D01*
D02*
G01X447547D01*
D02*
G01X446531Y1017523D01*
Y1021587D02*
G01X447547Y1020571D01*
X445515D02*
G01X446531Y1021587D01*
X444499Y1020571D02*
G01X445515D01*
Y1019555D02*
G01X444499Y1020571D01*
Y1018539D02*
G01X445515Y1019555D01*
Y1018539D02*
G01X444499D01*
X446531Y1017523D02*
G01X445515Y1018539D01*
X493775Y871219D02*
G01X495807Y875283D01*
X491743Y849883D02*
G01X493775Y845819D01*
X495807Y849883D02*
G01X491743D01*
X493775Y845819D02*
G01X495807Y849883D01*
X491743Y875283D02*
G01X493775Y871219D01*
X495807Y875283D02*
G01X491743D01*
X415797Y956055D02*
G01X414781Y957071D01*
X417829D02*
G01X416813D01*
D02*
G01X415797Y956055D01*
X416813Y958087D02*
G01X417829Y957071D01*
Y959103D02*
G01X416813Y958087D01*
Y959103D02*
G01X417829D01*
X415797Y960119D02*
G01X416813Y959103D01*
X414781D02*
G01X415797Y960119D01*
X413765Y959103D02*
G01X414781D01*
Y958087D02*
G01X413765Y959103D01*
Y957071D02*
G01X414781Y958087D01*
Y957071D02*
G01X413765D01*
X425957Y846327D02*
G01X427989Y850391D01*
X423925Y875791D02*
G01X425957Y871727D01*
X427989Y875791D02*
G01X423925D01*
X425957Y871727D02*
G01X427989Y875791D01*
X423925Y850391D02*
G01X425957Y846327D01*
X427989Y850391D02*
G01X423925D01*
X277875Y715771D02*
G01Y719835D01*
D02*
G01X273811D01*
D02*
G01Y715771D01*
D02*
G01X277875D01*
G54D35*
X289051Y911097D02*
G01X286765Y911859D01*
D02*
G01X285241Y909827D01*
Y944879D02*
G01X286765Y942847D01*
D02*
G01X289051Y943609D01*
D02*
G01Y946149D01*
D02*
G01X286765Y946911D01*
D02*
G01X285241Y944879D01*
X289051Y908557D02*
G01Y911097D01*
X286765Y908049D02*
G01X289051Y908557D01*
X285241Y909827D02*
G01X286765Y908049D01*
G54D34*
X345947Y820927D02*
G01X347979Y824991D01*
D02*
G01X343915D01*
Y875791D02*
G01X345947Y871727D01*
X347979Y875791D02*
G01X343915D01*
X345947Y871727D02*
G01X347979Y875791D01*
X343915Y850391D02*
G01X345947Y846327D01*
X347979Y850391D02*
G01X343915D01*
X345947Y846327D02*
G01X347979Y850391D01*
X343915Y824991D02*
G01X345947Y820927D01*
M02*