G04 FAB 3000 Version 7.8.18 - Gerber/CAM Software*
G04 RS274-X Output*
%FSLAX44Y44*%
%MIA0B0*%
%MOMM*%
%SFA1.000000B1.000000*%

%IPPOS*%
%ADD19C,0.254000*%
%ADD20C,0.127000*%
%ADD21C,3.299990*%
%ADD22C,2.100000*%
%ADD23R,2.100000X2.100000*%
%ADD24R,2.100000X2.100000*%
%ADD25R,1.500000X1.500000*%
%ADD26C,1.500000*%
%ADD27C,0.660400*%
%ADD28C,0.025400*%
%ADD34C,0.050800*%
%ADD35C,0.067690*%
%LNcartercharger_0*%
%LPD*%
G54D34*
X287273Y1007871D02*
G01Y1021841D01*
X292099Y1110233D02*
G01X259333D01*
X275843Y1093723D02*
G01Y1126743D01*
X294385Y1014983D02*
G01X280415D01*
X447801Y1019555D02*
G01X445261D01*
X446531Y1018285D02*
G01Y1020825D01*
X516889Y1027683D02*
G01X514349D01*
X559307Y1067561D02*
G01Y1070101D01*
X560577Y1068831D02*
G01X558037D01*
X504697Y1016253D02*
G01Y1018793D01*
X505967Y1017523D02*
G01X503427D01*
X515873Y1016507D02*
G01Y1019047D01*
X517143Y1017777D02*
G01X514603D01*
X505205Y1026159D02*
G01Y1028699D01*
X506475Y1027429D02*
G01X503935D01*
X515619Y1026413D02*
G01Y1028953D01*
X726185Y1113535D02*
G01X693165D01*
X709675Y1097025D02*
G01Y1130045D01*
X716025Y1041907D02*
G01X702055D01*
X709167Y1034795D02*
G01Y1048765D01*
X682751Y1016253D02*
G01X680211D01*
X681481Y1014983D02*
G01Y1017523D01*
X611885Y1071117D02*
G01X609345D01*
X610615Y1069847D02*
G01Y1072387D01*
X625601Y1070863D02*
G01X623061D01*
X624331Y1069593D02*
G01Y1072133D01*
X639317Y1070863D02*
G01X636777D01*
X638047Y1069593D02*
G01Y1072133D01*
X584707Y1067561D02*
G01Y1070101D01*
X585977Y1068831D02*
G01X583437D01*
X287273Y972819D02*
G01Y986789D01*
X716025Y1006855D02*
G01X702055D01*
X709167Y999997D02*
G01Y1013967D01*
X582421Y991615D02*
G01X579881D01*
X581151Y990345D02*
G01Y992885D01*
X565403Y991615D02*
G01X562863D01*
X564133Y990345D02*
G01Y992885D01*
X504443Y1006093D02*
G01Y1008633D01*
X505713Y1007363D02*
G01X503173D01*
X515873Y1006601D02*
G01Y1009141D01*
X517143Y1007871D02*
G01X514603D01*
X681481Y993647D02*
G01Y996187D01*
X682751Y994917D02*
G01X680211D01*
X294385Y909827D02*
G01X280415D01*
X287273Y902969D02*
G01Y916939D01*
X294385Y944879D02*
G01X280415D01*
X287273Y937767D02*
G01Y951991D01*
X294385Y979931D02*
G01X280415D01*
X350265Y966723D02*
G01Y969263D01*
X415797Y956817D02*
G01Y959357D01*
X417067Y958087D02*
G01X414527D01*
X581151Y977391D02*
G01Y979931D01*
X582421Y978661D02*
G01X579881D01*
X564133Y977391D02*
G01Y979931D01*
X565403Y978661D02*
G01X562863D01*
X351535Y967993D02*
G01X348995D01*
X376681Y966723D02*
G01Y969263D01*
X377951Y967993D02*
G01X375411D01*
X350519Y873759D02*
G01X341629D01*
X345947Y869187D02*
G01Y878077D01*
X430529Y873759D02*
G01X421639D01*
X425957Y869187D02*
G01Y878077D01*
X498347Y873251D02*
G01X489457D01*
X493775Y868679D02*
G01Y877823D01*
X566419Y873759D02*
G01X557529D01*
X561847Y869187D02*
G01Y878077D01*
X715771Y887729D02*
G01X713231D01*
X714501Y886459D02*
G01Y888999D01*
X715771Y860551D02*
G01X713231D01*
X714501Y859281D02*
G01Y861821D01*
X688847Y869187D02*
G01Y878077D01*
X693419Y873759D02*
G01X684529D01*
X624077Y869187D02*
G01Y878077D01*
X628649Y873759D02*
G01X619759D01*
X350519Y848359D02*
G01X341629D01*
X345947Y843787D02*
G01Y852677D01*
X430529Y848359D02*
G01X421639D01*
X628649D02*
G01X619759D01*
X624077Y843787D02*
G01Y852677D01*
X693419Y848359D02*
G01X684529D01*
X688847Y843787D02*
G01Y852677D01*
X561847Y843787D02*
G01Y852677D01*
X566419Y848359D02*
G01X557529D01*
X493775Y843279D02*
G01Y852423D01*
X498347Y847851D02*
G01X489457D01*
X425957Y843787D02*
G01Y852677D01*
X292099Y717803D02*
G01X259333D01*
X275843Y701293D02*
G01Y734313D01*
X444499Y722883D02*
G01X430275D01*
X498347Y822451D02*
G01X489457D01*
X493775Y817879D02*
G01Y827023D01*
X425957Y818387D02*
G01Y827277D01*
X430529Y822959D02*
G01X421639D01*
X345947Y818387D02*
G01Y827277D01*
X350519Y822959D02*
G01X341629D01*
X367283Y715771D02*
G01Y729995D01*
X374395Y722883D02*
G01X360425D01*
X402335Y715771D02*
G01Y729995D01*
X409447Y722883D02*
G01X395477D01*
X437387Y715771D02*
G01Y729995D01*
X529589Y722629D02*
G01X515619D01*
X725423Y715771D02*
G01X692403D01*
X708913Y699261D02*
G01Y732281D01*
X522731Y715517D02*
G01Y729741D01*
X564641Y722629D02*
G01X550671D01*
X557529Y715517D02*
G01Y729741D01*
X599693Y722629D02*
G01X585723D01*
X592581Y715517D02*
G01Y729741D01*
X634745Y722629D02*
G01X620521D01*
X627633Y715517D02*
G01Y729741D01*
X566419Y822959D02*
G01X557529D01*
X693419D02*
G01X684529D01*
X688847Y818387D02*
G01Y827277D01*
X624077Y818387D02*
G01Y827277D01*
X628649Y822959D02*
G01X619759D01*
X561847Y818387D02*
G01Y827277D01*
M02*