G04 FAB 3000 Version 7.8.18 - Gerber/CAM Software*
G04 RS274-X Output*
%FSLAX44Y44*%
%MIA0B0*%
%MOMM*%
%SFA1.000000B1.000000*%

%IPPOS*%
%ADD19C,0.254000*%
%ADD20C,0.127000*%
%ADD21C,3.299990*%
%ADD22C,2.100000*%
%ADD23R,2.100000X2.100000*%
%ADD24R,2.100000X2.100000*%
%ADD25R,1.500000X1.500000*%
%ADD26C,1.500000*%
%ADD27C,0.660400*%
%ADD28C,0.025400*%
%LNcartercharger_0*%
%LPD*%
G54D22*
X432815Y722629D03*
G54D26*
X529589Y873759D03*
X461517Y847851D03*
Y822451D03*
G54D27*
X509015Y1019555D03*
X539749Y958087D03*
G54D26*
X529589Y848359D03*
G54D25*
X461517Y873251D03*
X529589Y822959D03*
G54D24*
X518159Y722883D03*
G54D22*
X553211D03*
G54D21*
X679703Y1110233D03*
Y717803D03*
G54D22*
X668019Y909827D03*
Y944879D03*
Y979931D03*
G54D27*
X578865Y967993D03*
X605027D03*
G54D26*
X609599Y873759D03*
Y848359D03*
G54D25*
Y822959D03*
G54D23*
X668019Y1014983D03*
G54D22*
X588009Y722883D03*
G54D21*
X245871Y1113535D03*
X246633Y715771D03*
G54D22*
X246379Y1006855D03*
G54D26*
X266699Y848359D03*
Y822959D03*
G54D27*
X241045Y887729D03*
Y860551D03*
X274065Y994917D03*
Y1016253D03*
G54D25*
X266699Y873759D03*
G54D23*
X246379Y1041907D03*
G54D24*
X327913Y722629D03*
G54D26*
X393699Y848359D03*
Y822959D03*
X331469Y848359D03*
Y822959D03*
G54D25*
Y873759D03*
X393699D03*
G54D22*
X362965Y722629D03*
X397763D03*
M02*