G04 Layer_Color=2752767*
%FSLAX44Y44*%
%MOMM*%
G71*
G01*
G75*
%ADD34C,0.0508*%
%ADD35C,0.0677*%
G54D34*
X711882Y1111714D02*
Y1115778D01*
X707818D01*
Y1111714D01*
X711882D01*
X277882Y1108214D02*
Y1112278D01*
X273818D01*
Y1108214D01*
X277882D01*
X711132Y713964D02*
Y718028D01*
X707068D01*
Y713964D01*
X711132D01*
X277882Y715964D02*
Y720028D01*
X273818D01*
Y715964D01*
X277882D01*
X346166Y820928D02*
X348198Y824992D01*
X344134D01*
X346166Y820928D01*
Y846328D02*
X348198Y850392D01*
X344134D01*
X346166Y846328D01*
Y871728D02*
X348198Y875792D01*
X344134D01*
X346166Y871728D01*
X426176Y820928D02*
X428208Y824992D01*
X424144D01*
X426176Y820928D01*
Y846328D02*
X428208Y850392D01*
X424144D01*
X426176Y846328D01*
Y871728D02*
X428208Y875792D01*
X424144D01*
X426176Y871728D01*
X494016Y871368D02*
X496048Y875432D01*
X491984D01*
X494016Y871368D01*
Y845968D02*
X496048Y850032D01*
X491984D01*
X494016Y845968D01*
Y820568D02*
X496048Y824632D01*
X491984D01*
X494016Y820568D01*
X562066Y871728D02*
X564098Y875792D01*
X560034D01*
X562066Y871728D01*
Y846328D02*
X564098Y850392D01*
X560034D01*
X562066Y846328D01*
Y820928D02*
X564098Y824992D01*
X560034D01*
X562066Y820928D01*
X624296Y871728D02*
X626328Y875792D01*
X622264D01*
X624296Y871728D01*
Y846328D02*
X626328Y850392D01*
X622264D01*
X624296Y846328D01*
Y820928D02*
X626328Y824992D01*
X622264D01*
X624296Y820928D01*
X689066Y871728D02*
X691098Y875792D01*
X687034D01*
X689066Y871728D01*
Y846328D02*
X691098Y850392D01*
X687034D01*
X689066Y846328D01*
Y820928D02*
X691098Y824992D01*
X687034D01*
X689066Y820928D01*
X446536Y1017738D02*
X445520Y1018754D01*
X444504D01*
X445520Y1019770D01*
X444504Y1020786D01*
X445520D01*
X446536Y1021802D01*
X447552Y1020786D01*
X448568D01*
X447552Y1019770D01*
X448568Y1018754D01*
X447552D01*
X446536Y1017738D01*
X714516Y885718D02*
X713500Y886734D01*
X712484D01*
X713500Y887750D01*
X712484Y888766D01*
X713500D01*
X714516Y889782D01*
X715532Y888766D01*
X716548D01*
X715532Y887750D01*
X716548Y886734D01*
X715532D01*
X714516Y885718D01*
Y858718D02*
X713500Y859734D01*
X712484D01*
X713500Y860750D01*
X712484Y861766D01*
X713500D01*
X714516Y862782D01*
X715532Y861766D01*
X716548D01*
X715532Y860750D01*
X716548Y859734D01*
X715532D01*
X714516Y858718D01*
X376766Y965968D02*
X375750Y966984D01*
X374734D01*
X375750Y968000D01*
X374734Y969016D01*
X375750D01*
X376766Y970032D01*
X377782Y969016D01*
X378798D01*
X377782Y968000D01*
X378798Y966984D01*
X377782D01*
X376766Y965968D01*
X350516D02*
X349500Y966984D01*
X348484D01*
X349500Y968000D01*
X348484Y969016D01*
X349500D01*
X350516Y970032D01*
X351532Y969016D01*
X352548D01*
X351532Y968000D01*
X352548Y966984D01*
X351532D01*
X350516Y965968D01*
X681516Y992968D02*
X680500Y993984D01*
X679484D01*
X680500Y995000D01*
X679484Y996016D01*
X680500D01*
X681516Y997032D01*
X682532Y996016D01*
X683548D01*
X682532Y995000D01*
X683548Y993984D01*
X682532D01*
X681516Y992968D01*
Y1014468D02*
X680500Y1015484D01*
X679484D01*
X680500Y1016500D01*
X679484Y1017516D01*
X680500D01*
X681516Y1018532D01*
X682532Y1017516D01*
X683548D01*
X682532Y1016500D01*
X683548Y1015484D01*
X682532D01*
X681516Y1014468D01*
X515766Y1025718D02*
X514750Y1026734D01*
X513734D01*
X514750Y1027750D01*
X513734Y1028766D01*
X514750D01*
X515766Y1029782D01*
X516782Y1028766D01*
X517798D01*
X516782Y1027750D01*
X517798Y1026734D01*
X516782D01*
X515766Y1025718D01*
X505266Y1025468D02*
X504250Y1026484D01*
X503234D01*
X504250Y1027500D01*
X503234Y1028516D01*
X504250D01*
X505266Y1029532D01*
X506282Y1028516D01*
X507298D01*
X506282Y1027500D01*
X507298Y1026484D01*
X506282D01*
X505266Y1025468D01*
X516016Y1015968D02*
X515000Y1016984D01*
X513984D01*
X515000Y1018000D01*
X513984Y1019016D01*
X515000D01*
X516016Y1020032D01*
X517032Y1019016D01*
X518048D01*
X517032Y1018000D01*
X518048Y1016984D01*
X517032D01*
X516016Y1015968D01*
X504766Y1015718D02*
X503750Y1016734D01*
X502734D01*
X503750Y1017750D01*
X502734Y1018766D01*
X503750D01*
X504766Y1019782D01*
X505782Y1018766D01*
X506798D01*
X505782Y1017750D01*
X506798Y1016734D01*
X505782D01*
X504766Y1015718D01*
X516016Y1005968D02*
X515000Y1006984D01*
X513984D01*
X515000Y1008000D01*
X513984Y1009016D01*
X515000D01*
X516016Y1010032D01*
X517032Y1009016D01*
X518048D01*
X517032Y1008000D01*
X518048Y1006984D01*
X517032D01*
X516016Y1005968D01*
X504516Y1005468D02*
X503500Y1006484D01*
X502484D01*
X503500Y1007500D01*
X502484Y1008516D01*
X503500D01*
X504516Y1009532D01*
X505532Y1008516D01*
X506548D01*
X505532Y1007500D01*
X506548Y1006484D01*
X505532D01*
X504516Y1005468D01*
X584926Y1066838D02*
X583910Y1067854D01*
X582894D01*
X583910Y1068870D01*
X582894Y1069886D01*
X583910D01*
X584926Y1070902D01*
X585942Y1069886D01*
X586958D01*
X585942Y1068870D01*
X586958Y1067854D01*
X585942D01*
X584926Y1066838D01*
X559526D02*
X558510Y1067854D01*
X557494D01*
X558510Y1068870D01*
X557494Y1069886D01*
X558510D01*
X559526Y1070902D01*
X560542Y1069886D01*
X561558D01*
X560542Y1068870D01*
X561558Y1067854D01*
X560542D01*
X559526Y1066838D01*
X610766Y1069218D02*
X609750Y1070234D01*
X608734D01*
X609750Y1071250D01*
X608734Y1072266D01*
X609750D01*
X610766Y1073282D01*
X611782Y1072266D01*
X612798D01*
X611782Y1071250D01*
X612798Y1070234D01*
X611782D01*
X610766Y1069218D01*
X624516Y1068968D02*
X623500Y1069984D01*
X622484D01*
X623500Y1071000D01*
X622484Y1072016D01*
X623500D01*
X624516Y1073032D01*
X625532Y1072016D01*
X626548D01*
X625532Y1071000D01*
X626548Y1069984D01*
X625532D01*
X624516Y1068968D01*
X638266D02*
X637250Y1069984D01*
X636234D01*
X637250Y1071000D01*
X636234Y1072016D01*
X637250D01*
X638266Y1073032D01*
X639282Y1072016D01*
X640298D01*
X639282Y1071000D01*
X640298Y1069984D01*
X639282D01*
X638266Y1068968D01*
X581266Y989718D02*
X580250Y990734D01*
X579234D01*
X580250Y991750D01*
X579234Y992766D01*
X580250D01*
X581266Y993782D01*
X582282Y992766D01*
X583298D01*
X582282Y991750D01*
X583298Y990734D01*
X582282D01*
X581266Y989718D01*
X564266D02*
X563250Y990734D01*
X562234D01*
X563250Y991750D01*
X562234Y992766D01*
X563250D01*
X564266Y993782D01*
X565282Y992766D01*
X566298D01*
X565282Y991750D01*
X566298Y990734D01*
X565282D01*
X564266Y989718D01*
Y976718D02*
X563250Y977734D01*
X562234D01*
X563250Y978750D01*
X562234Y979766D01*
X563250D01*
X564266Y980782D01*
X565282Y979766D01*
X566298D01*
X565282Y978750D01*
X566298Y977734D01*
X565282D01*
X564266Y976718D01*
X581266D02*
X580250Y977734D01*
X579234D01*
X580250Y978750D01*
X579234Y979766D01*
X580250D01*
X581266Y980782D01*
X582282Y979766D01*
X583298D01*
X582282Y978750D01*
X583298Y977734D01*
X582282D01*
X581266Y976718D01*
X416016Y956218D02*
X415000Y957234D01*
X413984D01*
X415000Y958250D01*
X413984Y959266D01*
X415000D01*
X416016Y960282D01*
X417032Y959266D01*
X418048D01*
X417032Y958250D01*
X418048Y957234D01*
X417032D01*
X416016Y956218D01*
G54D35*
X285484Y910000D02*
X286888Y908067D01*
X289160Y908806D01*
Y911194D01*
X286888Y911933D01*
X285484Y910000D01*
Y945000D02*
X286888Y943067D01*
X289160Y943806D01*
Y946194D01*
X286888Y946933D01*
X285484Y945000D01*
Y980000D02*
X286888Y978067D01*
X289160Y978806D01*
Y981194D01*
X286888Y981933D01*
X285484Y980000D01*
Y1015000D02*
X286888Y1013067D01*
X289160Y1013806D01*
Y1016194D01*
X286888Y1016933D01*
X285484Y1015000D01*
X707234Y1042000D02*
X708638Y1040067D01*
X710910Y1040806D01*
Y1043194D01*
X708638Y1043933D01*
X707234Y1042000D01*
Y1007000D02*
X708638Y1005068D01*
X710910Y1005806D01*
Y1008194D01*
X708638Y1008933D01*
X707234Y1007000D01*
X520734Y722750D02*
X522138Y720817D01*
X524410Y721556D01*
Y723944D01*
X522138Y724682D01*
X520734Y722750D01*
X555734D02*
X557138Y720817D01*
X559410Y721556D01*
Y723944D01*
X557138Y724682D01*
X555734Y722750D01*
X590734D02*
X592138Y720817D01*
X594410Y721556D01*
Y723944D01*
X592138Y724682D01*
X590734Y722750D01*
X625734D02*
X627138Y720817D01*
X629410Y721556D01*
Y723944D01*
X627138Y724682D01*
X625734Y722750D01*
X435483Y723002D02*
X436887Y721069D01*
X439159Y721808D01*
Y724196D01*
X436887Y724935D01*
X435483Y723002D01*
X400483D02*
X401887Y721069D01*
X404159Y721808D01*
Y724196D01*
X401887Y724935D01*
X400483Y723002D01*
X365483D02*
X366887Y721069D01*
X369159Y721808D01*
Y724196D01*
X366887Y724935D01*
X365483Y723002D01*
M02*
