M48
;Layer_Color=9474304
;FILE_FORMAT=4:4
METRIC,TZ
;TYPE=PLATED
T1F00S00C0.2540
T2F00S00C0.9000
T3F00S00C1.4000
%
T01
X241250Y860750
Y887750
X274250Y995000
Y1016500
X317500Y1071000
X331250
X345000Y1071250
X370840Y1068870
X396240
X391500Y991750
Y978750
X374500
Y991750
X439750Y1008000
Y1018000
X440000Y1027750
X450500Y1027500
X451000Y1017750
X451250Y1007500
X509230Y1019770
X539750Y958250
X579000Y968000
X605250
T02
X266700Y822960
Y848360
Y873760
X331470
Y848360
Y822960
X393700
Y848360
Y873760
X461750Y873400
Y848000
Y822600
X529590Y822960
Y848360
Y873760
X609600
Y848360
Y822960
T03
X398000Y722750
X433000
X518252Y723002
X553252
X588252
X363000Y722750
X328000
X246500Y1007000
Y1042000
X668250Y1015000
Y980000
Y945000
Y910000
M30
