G04 Layer_Color=128*
%FSLAX25Y25*%
%MOIN*%
G70*
G01*
G75*
%ADD21C,0.00500*%
%ADD22C,0.00394*%
%ADD23C,0.00300*%
%ADD24C,0.00600*%
G36*
X180193Y389067D02*
X199122D01*
Y411933D01*
X180193D01*
Y389067D01*
D02*
G37*
D21*
X187357Y403600D02*
G03*
X187357Y403600I750J0D01*
G01*
Y400500D02*
G03*
X187357Y400500I750J0D01*
G01*
Y397400D02*
G03*
X187357Y397400I750J0D01*
G01*
X190457Y403600D02*
G03*
X190457Y403600I750J0D01*
G01*
Y400500D02*
G03*
X190457Y400500I750J0D01*
G01*
Y397400D02*
G03*
X190457Y397400I750J0D01*
G01*
D22*
X170472Y419783D02*
X157087D01*
X170472Y412697D02*
X157087D01*
X170472D02*
Y419783D01*
X157087Y412697D02*
Y419783D01*
X145374Y430413D02*
Y440846D01*
X125098Y430413D02*
Y440846D01*
X145374D02*
X125098D01*
X145374Y430413D02*
X125098D01*
X212701Y408807D02*
Y422193D01*
X205614Y408807D02*
Y422193D01*
X212701Y408807D02*
X205614D01*
X212701Y422193D02*
X205614D01*
X222701Y408807D02*
Y422193D01*
X215614Y408807D02*
Y422193D01*
X222701Y408807D02*
X215614D01*
X222701Y422193D02*
X215614D01*
X130118Y404626D02*
Y418012D01*
X123031Y404626D02*
Y418012D01*
X130118Y404626D02*
X123031D01*
X130118Y418012D02*
X123031D01*
X145276Y408661D02*
Y417126D01*
X139764Y408661D02*
Y417126D01*
X145276Y408661D02*
X139764D01*
X145276Y417126D02*
X139764D01*
X163091Y376969D02*
Y385433D01*
X157579Y376969D02*
Y385433D01*
X163091Y376969D02*
X157579D01*
X163091Y385433D02*
X157579D01*
X226969Y398819D02*
Y405709D01*
X223228Y398819D02*
Y405709D01*
X226969Y398819D02*
X223228D01*
X226969Y405709D02*
X223228D01*
X212894Y389764D02*
Y396654D01*
X209154Y389764D02*
Y396654D01*
X212894Y389764D02*
X209154D01*
X212894Y396654D02*
X209154D01*
X219587Y389764D02*
Y396654D01*
X215846Y389764D02*
Y396654D01*
X219587Y389764D02*
X215846D01*
X219587Y396654D02*
X215846D01*
X167224Y398819D02*
Y405709D01*
X170965Y398819D02*
Y405709D01*
X167224D01*
X170965Y398819D02*
X167224D01*
X263386Y365551D02*
X256496D01*
X263386Y361811D02*
X256496D01*
X263386D02*
Y365551D01*
X256496Y361811D02*
Y365551D01*
X238091D02*
X231201D01*
X238091Y361811D02*
X231201D01*
X238091D02*
Y365551D01*
X231201Y361811D02*
Y365551D01*
X186713Y357087D02*
X179823D01*
X186713Y353346D02*
X179823D01*
X186713D02*
Y357087D01*
X179823Y353346D02*
Y357087D01*
X159843Y353150D02*
X152953D01*
X159843Y356890D02*
X152953D01*
Y353150D02*
Y356890D01*
X159843Y353150D02*
Y356890D01*
X212894Y379134D02*
Y386024D01*
X209154Y379134D02*
Y386024D01*
X212894Y379134D02*
X209154D01*
X212894Y386024D02*
X209154D01*
X219587Y379134D02*
Y386024D01*
X215846Y379134D02*
Y386024D01*
X219587Y379134D02*
X215846D01*
X219587Y386024D02*
X215846D01*
X188583Y377362D02*
Y384252D01*
X184843Y377362D02*
Y384252D01*
X188583Y377362D02*
X184843D01*
X188583Y384252D02*
X184843D01*
X180020Y377362D02*
Y384252D01*
X176279Y377362D02*
Y384252D01*
X180020Y377362D02*
X176279D01*
X180020Y384252D02*
X176279D01*
X167323Y377362D02*
Y384252D01*
X171063Y377362D02*
Y384252D01*
X167323D01*
X171063Y377362D02*
X167323D01*
X184350Y422146D02*
X155610D01*
X184350Y448917D02*
X155610D01*
Y422146D02*
Y448917D01*
X184350Y422146D02*
Y448917D01*
X136417Y409744D02*
Y416634D01*
X132677Y409744D02*
Y416634D01*
X136417Y409744D02*
X132677D01*
X136417Y416634D02*
X132677D01*
X128248Y356594D02*
X121358D01*
X128248Y352854D02*
X121358D01*
X128248D02*
Y356594D01*
X121358Y352854D02*
Y356594D01*
X213484Y354134D02*
X206594D01*
X213484Y357874D02*
X206594D01*
Y354134D02*
Y357874D01*
X213484Y354134D02*
Y357874D01*
X213484Y365551D02*
X206594D01*
X213484Y361811D02*
X206594D01*
X213484D02*
Y365551D01*
X206594Y361811D02*
Y365551D01*
X238090Y354035D02*
X231201D01*
X238090Y357776D02*
X231201D01*
Y354035D02*
Y357776D01*
X238090Y354035D02*
Y357776D01*
X263386Y353839D02*
X256496D01*
X263386Y357579D02*
X256496D01*
Y353839D02*
Y357579D01*
X263386Y353839D02*
Y357579D01*
X163779Y414272D02*
Y418209D01*
X165748Y416240D02*
X161811D01*
X171653Y419980D02*
X155905D01*
X171653Y412500D02*
X155905D01*
X171653D02*
Y419980D01*
X155905Y412500D02*
Y419980D01*
X146653Y430118D02*
Y441142D01*
X123819Y430118D02*
Y441142D01*
X146653D02*
X123819D01*
X146653Y430118D02*
X123819D01*
X137205Y435630D02*
X133268D01*
X135236Y433661D02*
Y437598D01*
X211126Y415500D02*
X207189D01*
X209157Y413531D02*
Y417469D01*
X212898Y407626D02*
Y423374D01*
X205417Y407626D02*
Y423374D01*
X212898Y407626D02*
X205417D01*
X212898Y423374D02*
X205417D01*
X221126Y415500D02*
X217189D01*
X219158Y413531D02*
Y417469D01*
X222898Y407626D02*
Y423374D01*
X215417Y407626D02*
Y423374D01*
X222898Y407626D02*
X215417D01*
X222898Y423374D02*
X215417D01*
X128543Y411319D02*
X124606D01*
X126575Y409350D02*
Y413287D01*
X130315Y403445D02*
Y419193D01*
X122835Y403445D02*
Y419193D01*
X130315Y403445D02*
X122835D01*
X130315Y419193D02*
X122835D01*
X144488Y412894D02*
X140551D01*
X142520Y410925D02*
Y414862D01*
X145472Y407382D02*
Y418405D01*
X139567Y407382D02*
Y418405D01*
X145472Y407382D02*
X139567D01*
X145472Y418405D02*
X139567D01*
X162303Y381201D02*
X158366D01*
X160335Y379232D02*
Y383169D01*
X163287Y375689D02*
Y386713D01*
X157382Y375689D02*
Y386713D01*
X163287Y375689D02*
X157382D01*
X163287Y386713D02*
X157382D01*
X226969Y402264D02*
X223228D01*
X225098Y400394D02*
Y404134D01*
X227264Y397539D02*
Y406988D01*
X222933Y397539D02*
Y406988D01*
X227264Y397539D02*
X222933D01*
X227264Y406988D02*
X222933D01*
X212894Y393209D02*
X209154D01*
X211024Y391339D02*
Y395079D01*
X213189Y388484D02*
Y397933D01*
X208858Y388484D02*
Y397933D01*
X213189Y388484D02*
X208858D01*
X213189Y397933D02*
X208858D01*
X219587Y393209D02*
X215846D01*
X217717Y391339D02*
Y395079D01*
X219882Y388484D02*
Y397933D01*
X215551Y388484D02*
Y397933D01*
X219882Y388484D02*
X215551D01*
X219882Y397933D02*
X215551D01*
X170965Y402264D02*
X167224D01*
X169095Y400394D02*
Y404134D01*
X166929Y397539D02*
Y406988D01*
X171260Y397539D02*
Y406988D01*
X166929D01*
X171260Y397539D02*
X166929D01*
X259941Y361811D02*
Y365551D01*
X261811Y363681D02*
X258071D01*
X264665Y365846D02*
X255217D01*
X264665Y361516D02*
X255217D01*
X264665D02*
Y365846D01*
X255217Y361516D02*
Y365846D01*
X234646Y361811D02*
Y365551D01*
X236516Y363681D02*
X232776D01*
X239370Y365846D02*
X229921D01*
X239370Y361516D02*
X229921D01*
X239370D02*
Y365846D01*
X229921Y361516D02*
Y365846D01*
X183268Y353346D02*
Y357087D01*
X185138Y355217D02*
X181398D01*
X187992Y357382D02*
X178543D01*
X187992Y353051D02*
X178543D01*
X187992D02*
Y357382D01*
X178543Y353051D02*
Y357382D01*
X156398Y353150D02*
Y356890D01*
X158268Y355020D02*
X154528D01*
X161122Y352854D02*
X151673D01*
X161122Y357185D02*
X151673D01*
Y352854D02*
Y357185D01*
X161122Y352854D02*
Y357185D01*
X212894Y382579D02*
X209154D01*
X211024Y380709D02*
Y384449D01*
X213189Y377854D02*
Y387303D01*
X208858Y377854D02*
Y387303D01*
X213189Y377854D02*
X208858D01*
X213189Y387303D02*
X208858D01*
X219587Y382579D02*
X215846D01*
X217717Y380709D02*
Y384449D01*
X219882Y377854D02*
Y387303D01*
X215551Y377854D02*
Y387303D01*
X219882Y377854D02*
X215551D01*
X219882Y387303D02*
X215551D01*
X188583Y380807D02*
X184843D01*
X186713Y378937D02*
Y382677D01*
X188878Y376083D02*
Y385531D01*
X184547Y376083D02*
Y385531D01*
X188878Y376083D02*
X184547D01*
X188878Y385531D02*
X184547D01*
X180020Y380807D02*
X176279D01*
X178150Y378937D02*
Y382677D01*
X180315Y376083D02*
Y385531D01*
X175984Y376083D02*
Y385531D01*
X180315Y376083D02*
X175984D01*
X180315Y385531D02*
X175984D01*
X171063Y380807D02*
X167323D01*
X169193Y378937D02*
Y382677D01*
X167028Y376083D02*
Y385531D01*
X171358Y376083D02*
Y385531D01*
X167028D01*
X171358Y376083D02*
X167028D01*
X169980Y433563D02*
Y437500D01*
X171949Y435532D02*
X168012D01*
X184843Y421654D02*
X155118D01*
X184843Y449409D02*
X155118D01*
Y421654D02*
Y449409D01*
X184843Y421654D02*
Y449409D01*
X136417Y413189D02*
X132677D01*
X134547Y411319D02*
Y415059D01*
X136713Y408465D02*
Y417913D01*
X132382Y408465D02*
Y417913D01*
X136713Y408465D02*
X132382D01*
X136713Y417913D02*
X132382D01*
X124803Y352854D02*
Y356594D01*
X126673Y354724D02*
X122933D01*
X129528Y356890D02*
X120079D01*
X129528Y352559D02*
X120079D01*
X129528D02*
Y356890D01*
X120079Y352559D02*
Y356890D01*
X210039Y354134D02*
Y357874D01*
X211909Y356004D02*
X208169D01*
X214764Y353839D02*
X205315D01*
X214764Y358169D02*
X205315D01*
Y353839D02*
Y358169D01*
X214764Y353839D02*
Y358169D01*
X210039Y361811D02*
Y365551D01*
X211910Y363681D02*
X208169D01*
X214764Y365846D02*
X205315D01*
X214764Y361516D02*
X205315D01*
X214764D02*
Y365846D01*
X205315Y361516D02*
Y365846D01*
X234646Y354035D02*
Y357776D01*
X236516Y355906D02*
X232776D01*
X239370Y353740D02*
X229921D01*
X239370Y358071D02*
X229921D01*
Y353740D02*
Y358071D01*
X239370Y353740D02*
Y358071D01*
X259941Y353839D02*
Y357579D01*
X261811Y355709D02*
X258071D01*
X264665Y353543D02*
X255217D01*
X264665Y357874D02*
X255217D01*
Y353543D02*
Y357874D01*
X264665Y353543D02*
Y357874D01*
D23*
X192610Y411752D02*
X189278Y408420D01*
X192610D02*
X189278Y411752D01*
X192610Y410086D02*
X189278D01*
X190944Y408420D02*
Y411752D01*
D24*
X199122Y389067D02*
X180193D01*
Y411933D01*
X199122D02*
X180193D01*
X199122Y389067D02*
Y411933D01*
M02*
