G04 Layer_Color=16711935*
%FSLAX44Y44*%
%MOMM*%
G71*
G01*
G75*
%ADD31C,0.0762*%
%ADD33C,0.1000*%
G54D31*
X438270Y1045850D02*
X446734Y1037386D01*
X438270D02*
X446734Y1045850D01*
X438270Y1041618D02*
X446734D01*
X442502Y1037386D02*
Y1045850D01*
G54D33*
X384500Y988000D02*
Y1009500D01*
X398500Y988000D02*
Y1009500D01*
X384500Y988000D02*
X398500D01*
X384500Y1009500D02*
X398500D01*
X519500Y894750D02*
X541000D01*
X519500Y908750D02*
X541000D01*
Y894750D02*
Y908750D01*
X519500Y894750D02*
Y908750D01*
X451250Y909250D02*
X472750D01*
X451250Y895250D02*
X472750D01*
X451250D02*
Y909250D01*
X472750Y895250D02*
Y909250D01*
X599750Y908000D02*
X621250D01*
X599750Y894000D02*
X621250D01*
X599750D02*
Y908000D01*
X621250Y894000D02*
Y908000D01*
X504750Y956500D02*
Y978000D01*
X490750Y956500D02*
Y978000D01*
X504750D01*
X490750Y956500D02*
X504750D01*
X468000Y956500D02*
Y978000D01*
X482000Y956500D02*
Y978000D01*
X468000Y956500D02*
X482000D01*
X468000Y978000D02*
X482000D01*
X384500Y961000D02*
Y982500D01*
X398500Y961000D02*
Y982500D01*
X384500Y961000D02*
X398500D01*
X384500Y982500D02*
X398500D01*
X367500Y961000D02*
Y982500D01*
X381500Y961000D02*
Y982500D01*
X367500Y961000D02*
X381500D01*
X367500Y982500D02*
X381500D01*
X310000Y1011000D02*
Y1032500D01*
X324000Y1011000D02*
Y1032500D01*
X310000Y1011000D02*
X324000D01*
X310000Y1032500D02*
X324000D01*
X320750Y930750D02*
X342250D01*
X320750Y916750D02*
X342250D01*
X320750D02*
Y930750D01*
X342250Y916750D02*
Y930750D01*
X256500D02*
X278000D01*
X256500Y916750D02*
X278000D01*
X256500D02*
Y930750D01*
X278000Y916750D02*
Y930750D01*
X383250D02*
X404750D01*
X383250Y916750D02*
X404750D01*
X383250D02*
Y930750D01*
X404750Y916750D02*
Y930750D01*
X320750Y897000D02*
X342250D01*
X320750Y911000D02*
X342250D01*
Y897000D02*
Y911000D01*
X320750Y897000D02*
Y911000D01*
X256500Y896500D02*
X278000D01*
X256500Y910500D02*
X278000D01*
Y896500D02*
Y910500D01*
X256500Y896500D02*
Y910500D01*
X383250Y897250D02*
X404750D01*
X383250Y911250D02*
X404750D01*
Y897250D02*
Y911250D01*
X383250Y897250D02*
Y911250D01*
X498107Y1009020D02*
Y1030520D01*
X484107Y1009020D02*
Y1030520D01*
X498107D01*
X484107Y1009020D02*
X498107D01*
X446250Y956500D02*
Y978000D01*
X460250Y956500D02*
Y978000D01*
X446250Y956500D02*
X460250D01*
X446250Y978000D02*
X460250D01*
X367500Y988000D02*
Y1009500D01*
X381500Y988000D02*
Y1009500D01*
X367500Y988000D02*
X381500D01*
X367500Y1009500D02*
X381500D01*
X578750Y1038750D02*
Y1060250D01*
X592750Y1038750D02*
Y1060250D01*
X578750Y1038750D02*
X592750D01*
X578750Y1060250D02*
X592750D01*
X494500Y1066250D02*
X528500D01*
X494500Y1048250D02*
X528500D01*
X494500D02*
Y1066250D01*
X528500Y1048250D02*
Y1066250D01*
X558250Y1093250D02*
Y1119750D01*
X609750Y1093250D02*
Y1119750D01*
X558250D02*
X609750D01*
X558250Y1093250D02*
X609750D01*
X387240Y1038370D02*
Y1072370D01*
X405240Y1038370D02*
Y1072370D01*
X387240Y1038370D02*
X405240D01*
X387240Y1072370D02*
X405240D01*
X361840Y1038370D02*
Y1072370D01*
X379840Y1038370D02*
Y1072370D01*
X361840Y1038370D02*
X379840D01*
X361840Y1072370D02*
X379840D01*
X597000Y1027750D02*
Y1061750D01*
X615000Y1027750D02*
Y1061750D01*
X597000Y1027750D02*
X615000D01*
X597000Y1061750D02*
X615000D01*
X558500Y1038000D02*
Y1059500D01*
X572500Y1038000D02*
Y1059500D01*
X558500Y1038000D02*
X572500D01*
X558500Y1059500D02*
X572500D01*
X513250Y957500D02*
Y979000D01*
X527250Y957500D02*
Y979000D01*
X513250Y957500D02*
X527250D01*
X513250Y979000D02*
X527250D01*
X459250Y1072250D02*
X532250D01*
X459250Y1140250D02*
X532250D01*
Y1072250D02*
Y1140250D01*
X459250Y1072250D02*
Y1140250D01*
M02*
