M48
;Layer_Color=9474304
;FILE_FORMAT=4:4
METRIC,TZ
T4F00S00C5.0800
%
G90
G05
T04
G00X722598Y654557
M15
G01X727445Y656057
G01X731897Y658490
G01X735777Y661760
G01X738929Y665735
G01X741228Y670258
G01X742583Y675148
G01X742950Y679450
G01X742950Y1149350
G01X742443Y1154398
G01X740943Y1159245
G01X738510Y1163697
G01X735240Y1167577
G01X731265Y1170729
G01X726742Y1173028
G01X721853Y1174383
G01X717550Y1174750
G01X209550Y1174750
G01X204502Y1174243
G01X199655Y1172743
G01X195203Y1170310
G01X191323Y1167040
G01X188171Y1163065
G01X185872Y1158542
G01X184517Y1153653
G01X184150Y1149350
G01X184150Y679450
G01X184657Y674402
G01X186157Y669555
G01X188590Y665103
G01X191860Y661223
G01X195835Y658071
G01X200358Y655772
G01X205247Y654417
G01X209550Y654050
G01X717550Y654050
G01X722598Y654557
M16
M17
M30
