G04 Layer_Color=128*
%FSLAX44Y44*%
%MOMM*%
G71*
G01*
G75*
%ADD34C,0.0508*%
G54D34*
X726350Y1113746D02*
X693350D01*
X709850Y1097246D02*
Y1130246D01*
X292350Y1110246D02*
X259350D01*
X275850Y1093746D02*
Y1126746D01*
X725600Y715996D02*
X692600D01*
X709100Y699496D02*
Y732496D01*
X292350Y717996D02*
X259350D01*
X275850Y701496D02*
Y734496D01*
X294516Y910000D02*
X280516D01*
X287516Y903000D02*
Y917000D01*
X294516Y945000D02*
X280516D01*
X287516Y938000D02*
Y952000D01*
X294516Y980000D02*
X280516D01*
X287516Y973000D02*
Y987000D01*
X294516Y1015000D02*
X280516D01*
X287516Y1008000D02*
Y1022000D01*
X716266Y1042000D02*
X702266D01*
X709266Y1035000D02*
Y1049000D01*
X716266Y1007000D02*
X702266D01*
X709266Y1000000D02*
Y1014000D01*
X529766Y722750D02*
X515766D01*
X522766Y715750D02*
Y729750D01*
X564766Y722750D02*
X550766D01*
X557766Y715750D02*
Y729750D01*
X599766Y722750D02*
X585766D01*
X592766Y715750D02*
Y729750D01*
X634766Y722750D02*
X620766D01*
X627766Y715750D02*
Y729750D01*
X444515Y723002D02*
X430515D01*
X437515Y716002D02*
Y730002D01*
X409515Y723002D02*
X395515D01*
X402515Y716002D02*
Y730002D01*
X374515Y723002D02*
X360515D01*
X367515Y716002D02*
Y730002D01*
X350666Y822960D02*
X341666D01*
X346166Y818460D02*
Y827460D01*
X350666Y848360D02*
X341666D01*
X346166Y843860D02*
Y852860D01*
X350666Y873760D02*
X341666D01*
X346166Y869260D02*
Y878260D01*
X430676Y822960D02*
X421676D01*
X426176Y818460D02*
Y827460D01*
X430676Y848360D02*
X421676D01*
X426176Y843860D02*
Y852860D01*
X430676Y873760D02*
X421676D01*
X426176Y869260D02*
Y878260D01*
X498516Y873400D02*
X489516D01*
X494016Y868900D02*
Y877900D01*
X498516Y848000D02*
X489516D01*
X494016Y843500D02*
Y852500D01*
X498516Y822600D02*
X489516D01*
X494016Y818100D02*
Y827100D01*
X566566Y873760D02*
X557566D01*
X562066Y869260D02*
Y878260D01*
X566566Y848360D02*
X557566D01*
X562066Y843860D02*
Y852860D01*
X566566Y822960D02*
X557566D01*
X562066Y818460D02*
Y827460D01*
X628796Y873760D02*
X619796D01*
X624296Y869260D02*
Y878260D01*
X628796Y848360D02*
X619796D01*
X624296Y843860D02*
Y852860D01*
X628796Y822960D02*
X619796D01*
X624296Y818460D02*
Y827460D01*
X693566Y873760D02*
X684566D01*
X689066Y869260D02*
Y878260D01*
X693566Y848360D02*
X684566D01*
X689066Y843860D02*
Y852860D01*
X693566Y822960D02*
X684566D01*
X689066Y818460D02*
Y827460D01*
X447806Y1019770D02*
X445266D01*
X446536Y1018500D02*
Y1021040D01*
X715786Y887750D02*
X713246D01*
X714516Y886480D02*
Y889020D01*
X715786Y860750D02*
X713246D01*
X714516Y859480D02*
Y862020D01*
X378036Y968000D02*
X375496D01*
X376766Y966730D02*
Y969270D01*
X351786Y968000D02*
X349246D01*
X350516Y966730D02*
Y969270D01*
X682786Y995000D02*
X680246D01*
X681516Y993730D02*
Y996270D01*
X682786Y1016500D02*
X680246D01*
X681516Y1015230D02*
Y1017770D01*
X517036Y1027750D02*
X514496D01*
X515766Y1026480D02*
Y1029020D01*
X506536Y1027500D02*
X503996D01*
X505266Y1026230D02*
Y1028770D01*
X517286Y1018000D02*
X514746D01*
X516016Y1016730D02*
Y1019270D01*
X506036Y1017750D02*
X503496D01*
X504766Y1016480D02*
Y1019020D01*
X517286Y1008000D02*
X514746D01*
X516016Y1006730D02*
Y1009270D01*
X505786Y1007500D02*
X503246D01*
X504516Y1006230D02*
Y1008770D01*
X586196Y1068870D02*
X583656D01*
X584926Y1067600D02*
Y1070140D01*
X560796Y1068870D02*
X558256D01*
X559526Y1067600D02*
Y1070140D01*
X612036Y1071250D02*
X609496D01*
X610766Y1069980D02*
Y1072520D01*
X625786Y1071000D02*
X623246D01*
X624516Y1069730D02*
Y1072270D01*
X639536Y1071000D02*
X636996D01*
X638266Y1069730D02*
Y1072270D01*
X582536Y991750D02*
X579996D01*
X581266Y990480D02*
Y993020D01*
X565536Y991750D02*
X562996D01*
X564266Y990480D02*
Y993020D01*
X565536Y978750D02*
X562996D01*
X564266Y977480D02*
Y980020D01*
X582536Y978750D02*
X579996D01*
X581266Y977480D02*
Y980020D01*
X417286Y958250D02*
X414746D01*
X416016Y956980D02*
Y959520D01*
M02*
