G04 Layer_Color=8388736*
%FSLAX44Y44*%
%MOMM*%
G71*
G01*
G75*
%ADD10R,1.3000X1.0000*%
%ADD11R,1.0000X1.3000*%
%ADD12R,1.1000X1.7000*%
%ADD13R,1.2000X2.6000*%
%ADD14R,1.7000X1.1000*%
%ADD16R,0.2800X0.8500*%
%ADD17R,0.8500X0.2800*%
%ADD18R,1.9500X3.2000*%
%ADD21C,3.3000*%
%ADD22C,2.1000*%
%ADD23R,2.1000X2.1000*%
%ADD24R,2.1000X2.1000*%
%ADD25R,1.5000X1.5000*%
%ADD26C,1.5000*%
%ADD27C,0.6604*%
G36*
X467970Y997670D02*
X458070D01*
Y1001870D01*
X467970D01*
Y997670D01*
D02*
G37*
G36*
Y1012670D02*
X458070D01*
Y1016870D01*
X467970D01*
Y1012670D01*
D02*
G37*
G36*
X433470Y997670D02*
X423570D01*
Y1001870D01*
X433470D01*
Y997670D01*
D02*
G37*
G36*
X467970Y1017670D02*
X458070D01*
Y1021870D01*
X467970D01*
Y1017670D01*
D02*
G37*
G36*
X433470D02*
X423570D01*
Y1021870D01*
X433470D01*
Y1017670D01*
D02*
G37*
G36*
Y1002670D02*
X423570D01*
Y1006870D01*
X433470D01*
Y1002670D01*
D02*
G37*
G36*
X467970D02*
X458070D01*
Y1006870D01*
X467970D01*
Y1002670D01*
D02*
G37*
G36*
X433470Y1007670D02*
X423570D01*
Y1011870D01*
X433470D01*
Y1007670D01*
D02*
G37*
G36*
Y1012670D02*
X423570D01*
Y1016870D01*
X433470D01*
Y1012670D01*
D02*
G37*
G36*
X467970Y1007670D02*
X458070D01*
Y1011870D01*
X467970D01*
Y1007670D01*
D02*
G37*
G36*
X433470Y1022670D02*
X423570D01*
Y1026870D01*
X433470D01*
Y1022670D01*
D02*
G37*
G36*
X467970Y1032670D02*
X458070D01*
Y1036870D01*
X467970D01*
Y1032670D01*
D02*
G37*
G36*
X433470D02*
X423570D01*
Y1036870D01*
X433470D01*
Y1032670D01*
D02*
G37*
G36*
X440370Y1034570D02*
X436170D01*
Y1044470D01*
X440370D01*
Y1034570D01*
D02*
G37*
G36*
X449520Y1033155D02*
X456655D01*
Y1027144D01*
Y1023144D01*
Y1019270D01*
Y1015270D01*
Y1011396D01*
Y1007396D01*
Y1001385D01*
X449520D01*
Y990770D01*
X447370D01*
Y998020D01*
X444170D01*
Y990770D01*
X442020D01*
Y1001385D01*
X434885D01*
Y1007396D01*
Y1011396D01*
Y1015270D01*
Y1019270D01*
Y1023144D01*
Y1027144D01*
Y1033155D01*
X442020D01*
Y1043770D01*
X444170D01*
Y1036520D01*
X447370D01*
Y1043770D01*
X449520D01*
Y1033155D01*
D02*
G37*
G36*
X455370Y1034570D02*
X451170D01*
Y1044470D01*
X455370D01*
Y1034570D01*
D02*
G37*
G36*
Y990070D02*
X451170D01*
Y999970D01*
X455370D01*
Y990070D01*
D02*
G37*
G36*
X467970Y1022670D02*
X458070D01*
Y1026870D01*
X467970D01*
Y1022670D01*
D02*
G37*
G36*
X440370Y990070D02*
X436170D01*
Y999970D01*
X440370D01*
Y990070D01*
D02*
G37*
G36*
X467970Y1027670D02*
X458070D01*
Y1031870D01*
X467970D01*
Y1027670D01*
D02*
G37*
G36*
X433470D02*
X423570D01*
Y1031870D01*
X433470D01*
Y1027670D01*
D02*
G37*
%LPC*%
G36*
X451707Y1019270D02*
X447707D01*
Y1015270D01*
X451707D01*
Y1019270D01*
D02*
G37*
G36*
X443833Y1027144D02*
X439833D01*
Y1023144D01*
X443833D01*
Y1027144D01*
D02*
G37*
G36*
X451707D02*
X447707D01*
Y1023144D01*
X451707D01*
Y1027144D01*
D02*
G37*
G36*
X443833Y1011396D02*
X439833D01*
Y1007396D01*
X443833D01*
Y1011396D01*
D02*
G37*
G36*
X451707D02*
X447707D01*
Y1007396D01*
X451707D01*
Y1011396D01*
D02*
G37*
G36*
X443833Y1019270D02*
X439833D01*
Y1015270D01*
X443833D01*
Y1019270D01*
D02*
G37*
%LPD*%
G54D10*
X391500Y990750D02*
D03*
Y1006750D02*
D03*
X497750Y975250D02*
D03*
Y959250D02*
D03*
X475000Y959250D02*
D03*
Y975250D02*
D03*
X391500Y963750D02*
D03*
Y979750D02*
D03*
X374500Y963750D02*
D03*
Y979750D02*
D03*
X317000Y1013750D02*
D03*
Y1029750D02*
D03*
X491107Y1027770D02*
D03*
Y1011770D02*
D03*
X453250Y959250D02*
D03*
Y975250D02*
D03*
X374500Y990750D02*
D03*
Y1006750D02*
D03*
X585750Y1041500D02*
D03*
Y1057500D02*
D03*
X565500Y1040750D02*
D03*
Y1056750D02*
D03*
X520250Y960250D02*
D03*
Y976250D02*
D03*
G54D11*
X538250Y901750D02*
D03*
X522250D02*
D03*
X454000Y902250D02*
D03*
X470000D02*
D03*
X602500Y901000D02*
D03*
X618500D02*
D03*
X323500Y923750D02*
D03*
X339500D02*
D03*
X259250D02*
D03*
X275250D02*
D03*
X386000D02*
D03*
X402000D02*
D03*
X339500Y904000D02*
D03*
X323500D02*
D03*
X275250Y903500D02*
D03*
X259250D02*
D03*
X402000Y904250D02*
D03*
X386000D02*
D03*
G54D12*
X498000Y1057250D02*
D03*
X525000D02*
D03*
G54D13*
X562000Y1106500D02*
D03*
X606000D02*
D03*
G54D14*
X396240Y1041870D02*
D03*
Y1068870D02*
D03*
X370840Y1041870D02*
D03*
Y1068870D02*
D03*
X606000Y1031250D02*
D03*
Y1058250D02*
D03*
G54D16*
X453270Y1039520D02*
D03*
Y995020D02*
D03*
X438270D02*
D03*
Y1039520D02*
D03*
G54D17*
X463020Y1034770D02*
D03*
Y1029770D02*
D03*
Y1024770D02*
D03*
Y1019770D02*
D03*
Y1014770D02*
D03*
Y1009770D02*
D03*
Y1004770D02*
D03*
Y999770D02*
D03*
X428520D02*
D03*
Y1004770D02*
D03*
Y1009770D02*
D03*
Y1014770D02*
D03*
Y1019770D02*
D03*
Y1024770D02*
D03*
Y1029770D02*
D03*
Y1034770D02*
D03*
G54D18*
X525000Y1106250D02*
D03*
X466500D02*
D03*
G54D21*
X245916Y1113746D02*
D03*
X679916Y1110246D02*
D03*
X246666Y715996D02*
D03*
X679916Y717996D02*
D03*
G54D22*
X668250Y910000D02*
D03*
Y945000D02*
D03*
Y980000D02*
D03*
X246500Y1007000D02*
D03*
X433000Y722750D02*
D03*
X398000D02*
D03*
X363000D02*
D03*
X553252Y723002D02*
D03*
X588252D02*
D03*
G54D23*
X668250Y1015000D02*
D03*
X246500Y1042000D02*
D03*
G54D24*
X328000Y722750D02*
D03*
X518252Y723002D02*
D03*
G54D25*
X609600Y822960D02*
D03*
X529590D02*
D03*
X461750Y873400D02*
D03*
X393700Y873760D02*
D03*
X331470D02*
D03*
X266700D02*
D03*
G54D26*
X609600Y848360D02*
D03*
Y873760D02*
D03*
X529590Y848360D02*
D03*
Y873760D02*
D03*
X461750Y848000D02*
D03*
Y822600D02*
D03*
X393700Y848360D02*
D03*
Y822960D02*
D03*
X331470Y848360D02*
D03*
Y822960D02*
D03*
X266700Y848360D02*
D03*
Y822960D02*
D03*
G54D27*
X509230Y1019770D02*
D03*
X241250Y887750D02*
D03*
Y860750D02*
D03*
X579000Y968000D02*
D03*
X605250D02*
D03*
X274250Y995000D02*
D03*
Y1016500D02*
D03*
X539750Y958250D02*
D03*
M02*
