G04 Layer_Color=16711935*
%FSLAX44Y44*%
%MOMM*%
G71*
G01*
G75*
%ADD21C,3.3000*%
%ADD22C,2.1000*%
%ADD23R,2.1000X2.1000*%
%ADD24R,2.1000X2.1000*%
%ADD25R,1.5000X1.5000*%
%ADD26C,1.5000*%
%ADD27C,0.6604*%
G54D21*
X245916Y1113746D02*
D03*
X679916Y1110246D02*
D03*
X246666Y715996D02*
D03*
X679916Y717996D02*
D03*
G54D22*
X668250Y910000D02*
D03*
Y945000D02*
D03*
Y980000D02*
D03*
X246500Y1007000D02*
D03*
X433000Y722750D02*
D03*
X398000D02*
D03*
X363000D02*
D03*
X553252Y723002D02*
D03*
X588252D02*
D03*
G54D23*
X668250Y1015000D02*
D03*
X246500Y1042000D02*
D03*
G54D24*
X328000Y722750D02*
D03*
X518252Y723002D02*
D03*
G54D25*
X609600Y822960D02*
D03*
X529590D02*
D03*
X461750Y873400D02*
D03*
X393700Y873760D02*
D03*
X331470D02*
D03*
X266700D02*
D03*
G54D26*
X609600Y848360D02*
D03*
Y873760D02*
D03*
X529590Y848360D02*
D03*
Y873760D02*
D03*
X461750Y848000D02*
D03*
Y822600D02*
D03*
X393700Y848360D02*
D03*
Y822960D02*
D03*
X331470Y848360D02*
D03*
Y822960D02*
D03*
X266700Y848360D02*
D03*
Y822960D02*
D03*
G54D27*
X509230Y1019770D02*
D03*
X241250Y887750D02*
D03*
Y860750D02*
D03*
X579000Y968000D02*
D03*
X605250D02*
D03*
X274250Y995000D02*
D03*
Y1016500D02*
D03*
X539750Y958250D02*
D03*
M02*
