G04 Layer_Color=8421504*
%FSLAX44Y44*%
%MOMM*%
G71*
G01*
G75*
%ADD10R,1.3000X1.0000*%
%ADD11R,1.0000X1.3000*%
%ADD12R,1.1000X1.7000*%
%ADD13R,1.2000X2.6000*%
%ADD14R,1.7000X1.1000*%
%ADD18R,1.9500X3.2000*%
G36*
X432520Y1008620D02*
X424520D01*
Y1010920D01*
X432520D01*
Y1008620D01*
D02*
G37*
G36*
X467020D02*
X459020D01*
Y1010920D01*
X467020D01*
Y1008620D01*
D02*
G37*
G36*
X432520Y1003620D02*
X424520D01*
Y1005920D01*
X432520D01*
Y1003620D01*
D02*
G37*
G36*
X467020D02*
X459020D01*
Y1005920D01*
X467020D01*
Y1003620D01*
D02*
G37*
G36*
X440833Y1014856D02*
Y1011810D01*
X439419Y1010396D01*
X436269D01*
Y1016270D01*
X439419D01*
X440833Y1014856D01*
D02*
G37*
G36*
X432520Y1013620D02*
X424520D01*
Y1015920D01*
X432520D01*
Y1013620D01*
D02*
G37*
G36*
X467020D02*
X459020D01*
Y1015920D01*
X467020D01*
Y1013620D01*
D02*
G37*
G36*
X448707Y1014856D02*
Y1011810D01*
X447293Y1010396D01*
X444247D01*
X442833Y1011810D01*
Y1014856D01*
X444247Y1016270D01*
X447293D01*
X448707Y1014856D01*
D02*
G37*
G36*
X455271Y1010396D02*
X452121D01*
X450707Y1011810D01*
Y1014856D01*
X452121Y1016270D01*
X455271D01*
Y1010396D01*
D02*
G37*
G36*
X439420Y991020D02*
X437120D01*
Y999020D01*
X439420D01*
Y991020D01*
D02*
G37*
G36*
X454420D02*
X452120D01*
Y999020D01*
X454420D01*
Y991020D01*
D02*
G37*
G36*
X444170Y990770D02*
X442020D01*
Y998020D01*
X444170D01*
Y990770D01*
D02*
G37*
G36*
X449520D02*
X447370D01*
Y998020D01*
X449520D01*
Y990770D01*
D02*
G37*
G36*
X432520Y998620D02*
X424520D01*
Y1000920D01*
X432520D01*
Y998620D01*
D02*
G37*
G36*
X448707Y1006982D02*
Y1002769D01*
X442833D01*
Y1006982D01*
X444247Y1008396D01*
X447293D01*
X448707Y1006982D01*
D02*
G37*
G36*
X455271Y1002769D02*
X450707D01*
Y1006982D01*
X452121Y1008396D01*
X455271D01*
Y1002769D01*
D02*
G37*
G36*
X467020Y998620D02*
X459020D01*
Y1000920D01*
X467020D01*
Y998620D01*
D02*
G37*
G36*
X440833Y1006982D02*
Y1002769D01*
X436269D01*
Y1008396D01*
X439419D01*
X440833Y1006982D01*
D02*
G37*
G36*
X467020Y1028620D02*
X459020D01*
Y1030920D01*
X467020D01*
Y1028620D01*
D02*
G37*
G36*
X432520Y1033620D02*
X424520D01*
Y1035920D01*
X432520D01*
Y1033620D01*
D02*
G37*
G36*
X455271Y1026144D02*
X452121D01*
X450707Y1027558D01*
Y1031771D01*
X455271D01*
Y1026144D01*
D02*
G37*
G36*
X432520Y1028620D02*
X424520D01*
Y1030920D01*
X432520D01*
Y1028620D01*
D02*
G37*
G36*
X467020Y1033620D02*
X459020D01*
Y1035920D01*
X467020D01*
Y1033620D01*
D02*
G37*
G36*
X444170Y1036520D02*
X442020D01*
Y1043770D01*
X444170D01*
Y1036520D01*
D02*
G37*
G36*
X449520D02*
X447370D01*
Y1043770D01*
X449520D01*
Y1036520D01*
D02*
G37*
G36*
X439420Y1035520D02*
X437120D01*
Y1043520D01*
X439420D01*
Y1035520D01*
D02*
G37*
G36*
X454420D02*
X452120D01*
Y1043520D01*
X454420D01*
Y1035520D01*
D02*
G37*
G36*
X455271Y1018270D02*
X452121D01*
X450707Y1019684D01*
Y1022730D01*
X452121Y1024144D01*
X455271D01*
Y1018270D01*
D02*
G37*
G36*
X432520Y1018620D02*
X424520D01*
Y1020920D01*
X432520D01*
Y1018620D01*
D02*
G37*
G36*
X440833Y1022730D02*
Y1019684D01*
X439419Y1018270D01*
X436269D01*
Y1024144D01*
X439419D01*
X440833Y1022730D01*
D02*
G37*
G36*
X448707D02*
Y1019684D01*
X447293Y1018270D01*
X444247D01*
X442833Y1019684D01*
Y1022730D01*
X444247Y1024144D01*
X447293D01*
X448707Y1022730D01*
D02*
G37*
G36*
X467020Y1018620D02*
X459020D01*
Y1020920D01*
X467020D01*
Y1018620D01*
D02*
G37*
G36*
X440833Y1027558D02*
X439419Y1026144D01*
X436269D01*
Y1031771D01*
X440833D01*
Y1027558D01*
D02*
G37*
G36*
X448707D02*
X447293Y1026144D01*
X444247D01*
X442833Y1027558D01*
Y1031771D01*
X448707D01*
Y1027558D01*
D02*
G37*
G36*
X432520Y1023620D02*
X424520D01*
Y1025920D01*
X432520D01*
Y1023620D01*
D02*
G37*
G36*
X467020D02*
X459020D01*
Y1025920D01*
X467020D01*
Y1023620D01*
D02*
G37*
G54D10*
X391500Y990750D02*
D03*
Y1006750D02*
D03*
X497750Y975250D02*
D03*
Y959250D02*
D03*
X475000Y959250D02*
D03*
Y975250D02*
D03*
X391500Y963750D02*
D03*
Y979750D02*
D03*
X374500Y963750D02*
D03*
Y979750D02*
D03*
X317000Y1013750D02*
D03*
Y1029750D02*
D03*
X491107Y1027770D02*
D03*
Y1011770D02*
D03*
X453250Y959250D02*
D03*
Y975250D02*
D03*
X374500Y990750D02*
D03*
Y1006750D02*
D03*
X585750Y1041500D02*
D03*
Y1057500D02*
D03*
X565500Y1040750D02*
D03*
Y1056750D02*
D03*
X520250Y960250D02*
D03*
Y976250D02*
D03*
G54D11*
X538250Y901750D02*
D03*
X522250D02*
D03*
X454000Y902250D02*
D03*
X470000D02*
D03*
X602500Y901000D02*
D03*
X618500D02*
D03*
X323500Y923750D02*
D03*
X339500D02*
D03*
X259250D02*
D03*
X275250D02*
D03*
X386000D02*
D03*
X402000D02*
D03*
X339500Y904000D02*
D03*
X323500D02*
D03*
X275250Y903500D02*
D03*
X259250D02*
D03*
X402000Y904250D02*
D03*
X386000D02*
D03*
G54D12*
X498000Y1057250D02*
D03*
X525000D02*
D03*
G54D13*
X562000Y1106500D02*
D03*
X606000D02*
D03*
G54D14*
X396240Y1041870D02*
D03*
Y1068870D02*
D03*
X370840Y1041870D02*
D03*
Y1068870D02*
D03*
X606000Y1031250D02*
D03*
Y1058250D02*
D03*
G54D18*
X525000Y1106250D02*
D03*
X466500D02*
D03*
M02*
