G04 Layer_Color=8388736*
%FSLAX44Y44*%
%MOMM*%
G71*
G01*
G75*
%ADD19C,0.2540*%
G54D19*
X213404Y1158958D02*
Y1174193D01*
X218482Y1169115D01*
X223561Y1174193D01*
Y1158958D01*
X228639Y1171654D02*
X231178Y1174193D01*
X236257D01*
X238796Y1171654D01*
Y1169115D01*
X236257Y1166575D01*
X233717D01*
X236257D01*
X238796Y1164036D01*
Y1161497D01*
X236257Y1158958D01*
X231178D01*
X228639Y1161497D01*
X243874Y1156419D02*
X254031D01*
X259109Y1158958D02*
Y1174193D01*
X264188Y1169115D01*
X269266Y1174193D01*
Y1158958D01*
X281962Y1174193D02*
X276884D01*
X274344Y1171654D01*
Y1161497D01*
X276884Y1158958D01*
X281962D01*
X284501Y1161497D01*
Y1171654D01*
X281962Y1174193D01*
X289579D02*
Y1161497D01*
X292118Y1158958D01*
X297197D01*
X299736Y1161497D01*
Y1174193D01*
X304814Y1158958D02*
Y1174193D01*
X314971Y1158958D01*
Y1174193D01*
X320050D02*
X330206D01*
X325128D01*
Y1158958D01*
X647404Y1155458D02*
Y1170693D01*
X652482Y1165615D01*
X657561Y1170693D01*
Y1155458D01*
X662639Y1168154D02*
X665178Y1170693D01*
X670257D01*
X672796Y1168154D01*
Y1165615D01*
X670257Y1163076D01*
X667717D01*
X670257D01*
X672796Y1160536D01*
Y1157997D01*
X670257Y1155458D01*
X665178D01*
X662639Y1157997D01*
X677874Y1152919D02*
X688031D01*
X693109Y1155458D02*
Y1170693D01*
X698188Y1165615D01*
X703266Y1170693D01*
Y1155458D01*
X715962Y1170693D02*
X710883D01*
X708344Y1168154D01*
Y1157997D01*
X710883Y1155458D01*
X715962D01*
X718501Y1157997D01*
Y1168154D01*
X715962Y1170693D01*
X723579D02*
Y1157997D01*
X726119Y1155458D01*
X731197D01*
X733736Y1157997D01*
Y1170693D01*
X738814Y1155458D02*
Y1170693D01*
X748971Y1155458D01*
Y1170693D01*
X754050D02*
X764206D01*
X759128D01*
Y1155458D01*
X214154Y761208D02*
Y776443D01*
X219232Y771365D01*
X224311Y776443D01*
Y761208D01*
X229389Y773904D02*
X231928Y776443D01*
X237007D01*
X239546Y773904D01*
Y771365D01*
X237007Y768826D01*
X234467D01*
X237007D01*
X239546Y766286D01*
Y763747D01*
X237007Y761208D01*
X231928D01*
X229389Y763747D01*
X244624Y758669D02*
X254781D01*
X259859Y761208D02*
Y776443D01*
X264938Y771365D01*
X270016Y776443D01*
Y761208D01*
X282712Y776443D02*
X277633D01*
X275094Y773904D01*
Y763747D01*
X277633Y761208D01*
X282712D01*
X285251Y763747D01*
Y773904D01*
X282712Y776443D01*
X290329D02*
Y763747D01*
X292869Y761208D01*
X297947D01*
X300486Y763747D01*
Y776443D01*
X305564Y761208D02*
Y776443D01*
X315721Y761208D01*
Y776443D01*
X320799D02*
X330956D01*
X325878D01*
Y761208D01*
X647404Y763208D02*
Y778443D01*
X652482Y773365D01*
X657561Y778443D01*
Y763208D01*
X662639Y775904D02*
X665178Y778443D01*
X670257D01*
X672796Y775904D01*
Y773365D01*
X670257Y770826D01*
X667717D01*
X670257D01*
X672796Y768286D01*
Y765747D01*
X670257Y763208D01*
X665178D01*
X662639Y765747D01*
X677874Y760669D02*
X688031D01*
X693109Y763208D02*
Y778443D01*
X698188Y773365D01*
X703266Y778443D01*
Y763208D01*
X715962Y778443D02*
X710883D01*
X708344Y775904D01*
Y765747D01*
X710883Y763208D01*
X715962D01*
X718501Y765747D01*
Y775904D01*
X715962Y778443D01*
X723579D02*
Y765747D01*
X726119Y763208D01*
X731197D01*
X733736Y765747D01*
Y778443D01*
X738814Y763208D02*
Y778443D01*
X748971Y763208D01*
Y778443D01*
X754050D02*
X764206D01*
X759128D01*
Y763208D01*
M02*
