G04 Layer_Physical_Order=2*
G04 Layer_Color=16711680*
%FSLAX44Y44*%
%MOMM*%
G71*
G01*
G75*
%ADD19C,0.2540*%
%ADD20C,0.1270*%
%ADD21C,3.3000*%
%ADD22C,2.1000*%
%ADD23R,2.1000X2.1000*%
%ADD24R,2.1000X2.1000*%
%ADD25R,1.5000X1.5000*%
%ADD26C,1.5000*%
%ADD27C,0.6604*%
%ADD28C,0.0254*%
G36*
X662114Y1146254D02*
X661664Y1146068D01*
X656285Y1142772D01*
X651488Y1138674D01*
X647390Y1133877D01*
X644094Y1128498D01*
X641680Y1122670D01*
X640207Y1116535D01*
X639712Y1110246D01*
X640207Y1103957D01*
X641680Y1097822D01*
X644094Y1091994D01*
X647390Y1086615D01*
X651488Y1081817D01*
X656285Y1077720D01*
X661664Y1074424D01*
X667492Y1072010D01*
X673627Y1070537D01*
X679916Y1070042D01*
X686205Y1070537D01*
X692340Y1072010D01*
X698168Y1074424D01*
X703547Y1077720D01*
X708344Y1081817D01*
X712442Y1086615D01*
X714980Y1090757D01*
X716250Y1090399D01*
Y737843D01*
X714980Y737485D01*
X712442Y741627D01*
X708344Y746424D01*
X703547Y750522D01*
X698168Y753818D01*
X692340Y756232D01*
X686205Y757705D01*
X679916Y758200D01*
X673627Y757705D01*
X667492Y756232D01*
X661664Y753818D01*
X656285Y750522D01*
X651488Y746424D01*
X647390Y741627D01*
X644094Y736248D01*
X641680Y730420D01*
X640207Y724285D01*
X639712Y717996D01*
X640207Y711707D01*
X641680Y705572D01*
X644094Y699744D01*
X647390Y694365D01*
X651488Y689568D01*
X656285Y685470D01*
X661099Y682520D01*
X660741Y681250D01*
X269013D01*
X268669Y682472D01*
X270297Y683470D01*
X275095Y687568D01*
X279192Y692365D01*
X282488Y697744D01*
X284902Y703572D01*
X286375Y709707D01*
X286870Y715996D01*
X286375Y722285D01*
X284902Y728420D01*
X282488Y734248D01*
X279192Y739627D01*
X275095Y744425D01*
X270297Y748522D01*
X264918Y751818D01*
X259090Y754232D01*
X252955Y755705D01*
X246666Y756200D01*
X240377Y755705D01*
X234242Y754232D01*
X228414Y751818D01*
X223035Y748522D01*
X218237Y744425D01*
X214140Y739627D01*
X212472Y736905D01*
X211250Y737250D01*
Y1091268D01*
X212472Y1091613D01*
X213390Y1090115D01*
X217488Y1085318D01*
X222285Y1081220D01*
X227664Y1077924D01*
X233492Y1075510D01*
X239627Y1074037D01*
X245916Y1073542D01*
X252205Y1074037D01*
X258340Y1075510D01*
X264168Y1077924D01*
X269547Y1081220D01*
X274345Y1085318D01*
X278442Y1090115D01*
X281738Y1095494D01*
X284152Y1101322D01*
X285625Y1107457D01*
X286120Y1113746D01*
X285625Y1120035D01*
X284152Y1126170D01*
X281738Y1131998D01*
X278442Y1137377D01*
X274345Y1142175D01*
X269596Y1146230D01*
X269593Y1146350D01*
X270166Y1147500D01*
X661866D01*
X662114Y1146254D01*
D02*
G37*
%LPC*%
G36*
X331470Y831806D02*
X329181Y831504D01*
X327047Y830621D01*
X325215Y829215D01*
X323809Y827383D01*
X322926Y825249D01*
X322624Y822960D01*
X322926Y820671D01*
X323809Y818537D01*
X325215Y816705D01*
X327047Y815299D01*
X329181Y814416D01*
X331470Y814114D01*
X333759Y814416D01*
X335893Y815299D01*
X337725Y816705D01*
X339131Y818537D01*
X340014Y820671D01*
X340316Y822960D01*
X340014Y825249D01*
X339131Y827383D01*
X337725Y829215D01*
X335893Y830621D01*
X333759Y831504D01*
X331470Y831806D01*
D02*
G37*
G36*
X266700D02*
X264411Y831504D01*
X262277Y830621D01*
X260445Y829215D01*
X259039Y827383D01*
X258156Y825249D01*
X257854Y822960D01*
X258156Y820671D01*
X259039Y818537D01*
X260445Y816705D01*
X262277Y815299D01*
X264411Y814416D01*
X266700Y814114D01*
X268989Y814416D01*
X271123Y815299D01*
X272955Y816705D01*
X274361Y818537D01*
X275244Y820671D01*
X275546Y822960D01*
X275244Y825249D01*
X274361Y827383D01*
X272955Y829215D01*
X271123Y830621D01*
X268989Y831504D01*
X266700Y831806D01*
D02*
G37*
G36*
X617100Y833050D02*
X602100D01*
X601109Y832853D01*
X600269Y832291D01*
X599707Y831451D01*
X599510Y830460D01*
Y815460D01*
X599707Y814469D01*
X600269Y813629D01*
X601109Y813067D01*
X602100Y812870D01*
X617100D01*
X618091Y813067D01*
X618931Y813629D01*
X619493Y814469D01*
X619690Y815460D01*
Y830460D01*
X619493Y831451D01*
X618931Y832291D01*
X618091Y832853D01*
X617100Y833050D01*
D02*
G37*
G36*
X461750Y858127D02*
X459129Y857782D01*
X456687Y856770D01*
X454589Y855161D01*
X452980Y853063D01*
X451968Y850621D01*
X451623Y848000D01*
X451968Y845379D01*
X452980Y842937D01*
X454589Y840839D01*
X456687Y839230D01*
X459129Y838218D01*
X461750Y837873D01*
X464371Y838218D01*
X466813Y839230D01*
X468911Y840839D01*
X470520Y842937D01*
X471532Y845379D01*
X471877Y848000D01*
X471532Y850621D01*
X470520Y853063D01*
X468911Y855161D01*
X466813Y856770D01*
X464371Y857782D01*
X461750Y858127D01*
D02*
G37*
G36*
X609600Y858487D02*
X606979Y858142D01*
X604537Y857130D01*
X602439Y855521D01*
X600830Y853423D01*
X599818Y850981D01*
X599473Y848360D01*
X599818Y845739D01*
X600830Y843297D01*
X602439Y841199D01*
X604537Y839590D01*
X606979Y838578D01*
X609600Y838233D01*
X612221Y838578D01*
X614663Y839590D01*
X616761Y841199D01*
X618370Y843297D01*
X619382Y845739D01*
X619727Y848360D01*
X619382Y850981D01*
X618370Y853423D01*
X616761Y855521D01*
X614663Y857130D01*
X612221Y858142D01*
X609600Y858487D01*
D02*
G37*
G36*
X529590D02*
X526969Y858142D01*
X524527Y857130D01*
X522429Y855521D01*
X520820Y853423D01*
X519808Y850981D01*
X519463Y848360D01*
X519808Y845739D01*
X520820Y843297D01*
X522429Y841199D01*
X524527Y839590D01*
X526969Y838578D01*
X529590Y838233D01*
X532211Y838578D01*
X534653Y839590D01*
X536751Y841199D01*
X538360Y843297D01*
X539372Y845739D01*
X539717Y848360D01*
X539372Y850981D01*
X538360Y853423D01*
X536751Y855521D01*
X534653Y857130D01*
X532211Y858142D01*
X529590Y858487D01*
D02*
G37*
G36*
X393700D02*
X391079Y858142D01*
X388637Y857130D01*
X386539Y855521D01*
X384930Y853423D01*
X383918Y850981D01*
X383573Y848360D01*
X383918Y845739D01*
X384930Y843297D01*
X386539Y841199D01*
X388637Y839590D01*
X391079Y838578D01*
X393700Y838233D01*
X396321Y838578D01*
X398763Y839590D01*
X400861Y841199D01*
X402470Y843297D01*
X403482Y845739D01*
X403827Y848360D01*
X403482Y850981D01*
X402470Y853423D01*
X400861Y855521D01*
X398763Y857130D01*
X396321Y858142D01*
X393700Y858487D01*
D02*
G37*
G36*
X338500Y735840D02*
X317500D01*
X316509Y735643D01*
X315669Y735081D01*
X315107Y734241D01*
X314910Y733250D01*
Y712250D01*
X315107Y711259D01*
X315669Y710419D01*
X316509Y709857D01*
X317500Y709660D01*
X338500D01*
X339491Y709857D01*
X340331Y710419D01*
X340893Y711259D01*
X341090Y712250D01*
Y733250D01*
X340893Y734241D01*
X340331Y735081D01*
X339491Y735643D01*
X338500Y735840D01*
D02*
G37*
G36*
X433000Y735902D02*
X429596Y735454D01*
X426424Y734140D01*
X423700Y732050D01*
X421610Y729326D01*
X420296Y726154D01*
X419847Y722750D01*
X420296Y719346D01*
X421610Y716174D01*
X423700Y713450D01*
X426424Y711360D01*
X429596Y710046D01*
X433000Y709597D01*
X436404Y710046D01*
X439576Y711360D01*
X442300Y713450D01*
X444390Y716174D01*
X445704Y719346D01*
X446152Y722750D01*
X445704Y726154D01*
X444390Y729326D01*
X442300Y732050D01*
X439576Y734140D01*
X436404Y735454D01*
X433000Y735902D01*
D02*
G37*
G36*
X398000D02*
X394596Y735454D01*
X391424Y734140D01*
X388700Y732050D01*
X386610Y729326D01*
X385296Y726154D01*
X384847Y722750D01*
X385296Y719346D01*
X386610Y716174D01*
X388700Y713450D01*
X391424Y711360D01*
X394596Y710046D01*
X398000Y709597D01*
X401404Y710046D01*
X404576Y711360D01*
X407300Y713450D01*
X409390Y716174D01*
X410704Y719346D01*
X411152Y722750D01*
X410704Y726154D01*
X409390Y729326D01*
X407300Y732050D01*
X404576Y734140D01*
X401404Y735454D01*
X398000Y735902D01*
D02*
G37*
G36*
X588252Y736155D02*
X584847Y735706D01*
X581675Y734392D01*
X578951Y732302D01*
X576861Y729578D01*
X575547Y726406D01*
X575099Y723002D01*
X575547Y719598D01*
X576861Y716426D01*
X578951Y713702D01*
X581675Y711612D01*
X584847Y710298D01*
X588252Y709849D01*
X591656Y710298D01*
X594828Y711612D01*
X597552Y713702D01*
X599642Y716426D01*
X600956Y719598D01*
X601404Y723002D01*
X600956Y726406D01*
X599642Y729578D01*
X597552Y732302D01*
X594828Y734392D01*
X591656Y735706D01*
X588252Y736155D01*
D02*
G37*
G36*
X537090Y833050D02*
X522090D01*
X521099Y832853D01*
X520259Y832291D01*
X519697Y831451D01*
X519500Y830460D01*
Y815460D01*
X519697Y814469D01*
X520259Y813629D01*
X521099Y813067D01*
X522090Y812870D01*
X537090D01*
X538081Y813067D01*
X538921Y813629D01*
X539483Y814469D01*
X539680Y815460D01*
Y830460D01*
X539483Y831451D01*
X538921Y832291D01*
X538081Y832853D01*
X537090Y833050D01*
D02*
G37*
G36*
X393700Y833087D02*
X391079Y832742D01*
X388637Y831730D01*
X386539Y830121D01*
X384930Y828023D01*
X383918Y825581D01*
X383573Y822960D01*
X383918Y820339D01*
X384930Y817897D01*
X386539Y815799D01*
X388637Y814190D01*
X391079Y813178D01*
X393700Y812833D01*
X396321Y813178D01*
X398763Y814190D01*
X400861Y815799D01*
X402470Y817897D01*
X403482Y820339D01*
X403827Y822960D01*
X403482Y825581D01*
X402470Y828023D01*
X400861Y830121D01*
X398763Y831730D01*
X396321Y832742D01*
X393700Y833087D01*
D02*
G37*
G36*
X528752Y736092D02*
X507752D01*
X506761Y735895D01*
X505920Y735333D01*
X505359Y734493D01*
X505162Y733502D01*
Y712502D01*
X505359Y711511D01*
X505920Y710671D01*
X506761Y710109D01*
X507752Y709912D01*
X528752D01*
X529743Y710109D01*
X530583Y710671D01*
X531144Y711511D01*
X531341Y712502D01*
Y733502D01*
X531144Y734493D01*
X530583Y735333D01*
X529743Y735895D01*
X528752Y736092D01*
D02*
G37*
G36*
X605250Y973956D02*
X602971Y973503D01*
X601038Y972212D01*
X600387Y971237D01*
X583863D01*
X583212Y972212D01*
X581279Y973503D01*
X579000Y973956D01*
X576721Y973503D01*
X574788Y972212D01*
X573497Y970279D01*
X573044Y968000D01*
X573497Y965721D01*
X574788Y963788D01*
X576721Y962497D01*
X579000Y962044D01*
X581279Y962497D01*
X583212Y963788D01*
X583863Y964763D01*
X600387D01*
X601038Y963788D01*
X602971Y962497D01*
X605250Y962044D01*
X607529Y962497D01*
X609462Y963788D01*
X610753Y965721D01*
X611206Y968000D01*
X610753Y970279D01*
X609462Y972212D01*
X607529Y973503D01*
X605250Y973956D01*
D02*
G37*
G36*
X509230Y1025726D02*
X506951Y1025273D01*
X505018Y1023982D01*
X503727Y1022049D01*
X503274Y1019770D01*
X503727Y1017490D01*
X505018Y1015558D01*
X506951Y1014267D01*
X509230Y1013813D01*
X511510Y1014267D01*
X513442Y1015558D01*
X514093Y1016533D01*
X516139D01*
X536513Y996159D01*
Y963113D01*
X535538Y962462D01*
X534247Y960529D01*
X533793Y958250D01*
X534247Y955971D01*
X535538Y954038D01*
X537471Y952747D01*
X539750Y952293D01*
X542029Y952747D01*
X543962Y954038D01*
X545253Y955971D01*
X545706Y958250D01*
X545253Y960529D01*
X543962Y962462D01*
X542987Y963113D01*
Y997500D01*
X542741Y998739D01*
X542039Y999789D01*
X519769Y1022059D01*
X518719Y1022761D01*
X517480Y1023007D01*
X514093D01*
X513442Y1023982D01*
X511510Y1025273D01*
X509230Y1025726D01*
D02*
G37*
G36*
X668250Y958152D02*
X664846Y957704D01*
X661674Y956390D01*
X658950Y954300D01*
X656860Y951576D01*
X655546Y948404D01*
X655098Y945000D01*
X655546Y941596D01*
X656860Y938424D01*
X658950Y935700D01*
X661674Y933610D01*
X664846Y932296D01*
X668250Y931848D01*
X671654Y932296D01*
X674826Y933610D01*
X677550Y935700D01*
X679640Y938424D01*
X680954Y941596D01*
X681403Y945000D01*
X680954Y948404D01*
X679640Y951576D01*
X677550Y954300D01*
X674826Y956390D01*
X671654Y957704D01*
X668250Y958152D01*
D02*
G37*
G36*
X274250Y1022457D02*
X271971Y1022003D01*
X270038Y1020712D01*
X268747Y1018780D01*
X268293Y1016500D01*
X268747Y1014221D01*
X270038Y1012288D01*
X270365Y1012070D01*
Y999430D01*
X270038Y999212D01*
X268747Y997280D01*
X268293Y995000D01*
X268747Y992721D01*
X270038Y990788D01*
X271971Y989497D01*
X274250Y989044D01*
X276529Y989497D01*
X278462Y990788D01*
X279753Y992721D01*
X280206Y995000D01*
X279753Y997280D01*
X278462Y999212D01*
X278135Y999430D01*
Y1012070D01*
X278462Y1012288D01*
X279753Y1014221D01*
X280206Y1016500D01*
X279753Y1018780D01*
X278462Y1020712D01*
X276529Y1022003D01*
X274250Y1022457D01*
D02*
G37*
G36*
X257000Y1055090D02*
X236000D01*
X235009Y1054893D01*
X234169Y1054331D01*
X233607Y1053491D01*
X233410Y1052500D01*
Y1031500D01*
X233607Y1030509D01*
X234169Y1029669D01*
X235009Y1029107D01*
X236000Y1028910D01*
X257000D01*
X257991Y1029107D01*
X258831Y1029669D01*
X259393Y1030509D01*
X259590Y1031500D01*
Y1052500D01*
X259393Y1053491D01*
X258831Y1054331D01*
X257991Y1054893D01*
X257000Y1055090D01*
D02*
G37*
G36*
X462911Y1020318D02*
X442976D01*
Y1014391D01*
X462911D01*
Y1020318D01*
D02*
G37*
G36*
X678750Y1028090D02*
X657750D01*
X656759Y1027893D01*
X655919Y1027331D01*
X655357Y1026491D01*
X655160Y1025500D01*
Y1004500D01*
X655357Y1003509D01*
X655919Y1002669D01*
X656759Y1002107D01*
X657750Y1001910D01*
X678750D01*
X679741Y1002107D01*
X680581Y1002669D01*
X681143Y1003509D01*
X681340Y1004500D01*
Y1025500D01*
X681143Y1026491D01*
X680581Y1027331D01*
X679741Y1027893D01*
X678750Y1028090D01*
D02*
G37*
G36*
X241250Y893706D02*
X238971Y893253D01*
X237038Y891962D01*
X235747Y890029D01*
X235294Y887750D01*
X235747Y885471D01*
X237038Y883538D01*
X238013Y882887D01*
Y865613D01*
X237038Y864962D01*
X235747Y863029D01*
X235294Y860750D01*
X235747Y858471D01*
X237038Y856538D01*
X238971Y855247D01*
X241250Y854793D01*
X243529Y855247D01*
X245462Y856538D01*
X246753Y858471D01*
X247206Y860750D01*
X246753Y863029D01*
X245462Y864962D01*
X244487Y865613D01*
Y882887D01*
X245462Y883538D01*
X246753Y885471D01*
X247206Y887750D01*
X246753Y890029D01*
X245462Y891962D01*
X243529Y893253D01*
X241250Y893706D01*
D02*
G37*
G36*
X331470Y857206D02*
X329181Y856904D01*
X327047Y856021D01*
X325215Y854615D01*
X323809Y852783D01*
X322926Y850649D01*
X322624Y848360D01*
X322926Y846071D01*
X323809Y843937D01*
X325215Y842105D01*
X327047Y840699D01*
X329181Y839816D01*
X331470Y839514D01*
X333759Y839816D01*
X335893Y840699D01*
X337725Y842105D01*
X339131Y843937D01*
X340014Y846071D01*
X340316Y848360D01*
X340014Y850649D01*
X339131Y852783D01*
X337725Y854615D01*
X335893Y856021D01*
X333759Y856904D01*
X331470Y857206D01*
D02*
G37*
G36*
X266700D02*
X264411Y856904D01*
X262277Y856021D01*
X260445Y854615D01*
X259039Y852783D01*
X258156Y850649D01*
X257854Y848360D01*
X258156Y846071D01*
X259039Y843937D01*
X260445Y842105D01*
X262277Y840699D01*
X264411Y839816D01*
X266700Y839514D01*
X268989Y839816D01*
X271123Y840699D01*
X272955Y842105D01*
X274361Y843937D01*
X275244Y846071D01*
X275546Y848360D01*
X275244Y850649D01*
X274361Y852783D01*
X272955Y854615D01*
X271123Y856021D01*
X268989Y856904D01*
X266700Y857206D01*
D02*
G37*
G36*
X469250Y883490D02*
X454250D01*
X453259Y883293D01*
X452419Y882731D01*
X451857Y881891D01*
X451660Y880900D01*
Y865900D01*
X451857Y864909D01*
X452419Y864069D01*
X453259Y863507D01*
X454250Y863310D01*
X469250D01*
X470241Y863507D01*
X471081Y864069D01*
X471643Y864909D01*
X471840Y865900D01*
Y880900D01*
X471643Y881891D01*
X471081Y882731D01*
X470241Y883293D01*
X469250Y883490D01*
D02*
G37*
G36*
X338970Y882635D02*
X323970D01*
X322998Y882232D01*
X322595Y881260D01*
Y866260D01*
X322998Y865288D01*
X323970Y864885D01*
X338970D01*
X339942Y865288D01*
X340345Y866260D01*
Y881260D01*
X339942Y882232D01*
X338970Y882635D01*
D02*
G37*
G36*
X274200D02*
X259200D01*
X258228Y882232D01*
X257825Y881260D01*
Y866260D01*
X258228Y865288D01*
X259200Y864885D01*
X274200D01*
X275172Y865288D01*
X275575Y866260D01*
Y881260D01*
X275172Y882232D01*
X274200Y882635D01*
D02*
G37*
G36*
X401200Y883850D02*
X386200D01*
X385209Y883653D01*
X384369Y883091D01*
X383807Y882251D01*
X383610Y881260D01*
Y866260D01*
X383807Y865269D01*
X384369Y864429D01*
X385209Y863867D01*
X386200Y863670D01*
X401200D01*
X402191Y863867D01*
X403031Y864429D01*
X403593Y865269D01*
X403790Y866260D01*
Y881260D01*
X403593Y882251D01*
X403031Y883091D01*
X402191Y883653D01*
X401200Y883850D01*
D02*
G37*
%LPD*%
G54D19*
X274250Y995000D02*
Y1016500D01*
G54D20*
X509230Y1019770D02*
X517480D01*
X241250Y860750D02*
Y887750D01*
X579000Y968000D02*
X605250D01*
X517480Y1019770D02*
X539750Y997500D01*
Y958250D02*
Y997500D01*
G54D21*
X245916Y1113746D02*
D03*
X679916Y1110246D02*
D03*
X246666Y715996D02*
D03*
X679916Y717996D02*
D03*
G54D22*
X668250Y910000D02*
D03*
Y945000D02*
D03*
Y980000D02*
D03*
X246500Y1007000D02*
D03*
X433000Y722750D02*
D03*
X398000D02*
D03*
X363000D02*
D03*
X553252Y723002D02*
D03*
X588252D02*
D03*
G54D23*
X668250Y1015000D02*
D03*
X246500Y1042000D02*
D03*
G54D24*
X328000Y722750D02*
D03*
X518252Y723002D02*
D03*
G54D25*
X609600Y822960D02*
D03*
X529590D02*
D03*
X461750Y873400D02*
D03*
X393700Y873760D02*
D03*
X331470D02*
D03*
X266700D02*
D03*
G54D26*
X609600Y848360D02*
D03*
Y873760D02*
D03*
X529590Y848360D02*
D03*
Y873760D02*
D03*
X461750Y848000D02*
D03*
Y822600D02*
D03*
X393700Y848360D02*
D03*
Y822960D02*
D03*
X331470Y848360D02*
D03*
Y822960D02*
D03*
X266700Y848360D02*
D03*
Y822960D02*
D03*
G54D27*
X509230Y1019770D02*
D03*
X241250Y887750D02*
D03*
Y860750D02*
D03*
X579000Y968000D02*
D03*
X605250D02*
D03*
X274250Y995000D02*
D03*
Y1016500D02*
D03*
X440000Y1027750D02*
D03*
X450500Y1027500D02*
D03*
X439750Y1018000D02*
D03*
X451000Y1017750D02*
D03*
X439750Y1008000D02*
D03*
X451250Y1007500D02*
D03*
X370840Y1068870D02*
D03*
X396240D02*
D03*
X345000Y1071250D02*
D03*
X331250Y1071000D02*
D03*
X317500D02*
D03*
X374500Y991750D02*
D03*
X391500D02*
D03*
Y978750D02*
D03*
X374500D02*
D03*
X539750Y958250D02*
D03*
G54D28*
X445939Y1017482D02*
X445897Y1017524D01*
X445812D01*
X445770Y1017482D01*
Y1017312D01*
X445812Y1017270D01*
X445897D01*
X445939Y1017312D01*
X446066Y1017270D02*
X446151D01*
X446193Y1017312D01*
Y1017397D01*
X446151Y1017439D01*
X446066D01*
X446024Y1017397D01*
Y1017312D01*
X446066Y1017270D01*
X446278Y1017185D02*
Y1017439D01*
X446405D01*
X446447Y1017397D01*
Y1017312D01*
X446405Y1017270D01*
X446278D01*
X446532Y1017439D02*
Y1017312D01*
X446574Y1017270D01*
X446701D01*
Y1017228D01*
X446659Y1017185D01*
X446616D01*
X446701Y1017270D02*
Y1017439D01*
X446786D02*
Y1017270D01*
Y1017355D01*
X446828Y1017397D01*
X446870Y1017439D01*
X446913D01*
X447040Y1017270D02*
X447124D01*
X447082D01*
Y1017439D01*
X447040D01*
X447336Y1017185D02*
X447378D01*
X447421Y1017228D01*
Y1017439D01*
X447294D01*
X447251Y1017397D01*
Y1017312D01*
X447294Y1017270D01*
X447421D01*
X447505Y1017524D02*
Y1017270D01*
Y1017397D01*
X447547Y1017439D01*
X447632D01*
X447674Y1017397D01*
Y1017270D01*
X447801Y1017482D02*
Y1017439D01*
X447759D01*
X447844D01*
X447801D01*
Y1017312D01*
X447844Y1017270D01*
X448309D02*
X448225Y1017355D01*
Y1017439D01*
X448309Y1017524D01*
X448605Y1017482D02*
X448563Y1017524D01*
X448479D01*
X448436Y1017482D01*
Y1017312D01*
X448479Y1017270D01*
X448563D01*
X448605Y1017312D01*
X448690Y1017270D02*
X448775Y1017355D01*
Y1017439D01*
X448690Y1017524D01*
X449325Y1017270D02*
X449156D01*
X449325Y1017439D01*
Y1017482D01*
X449283Y1017524D01*
X449198D01*
X449156Y1017482D01*
X449410D02*
X449452Y1017524D01*
X449537D01*
X449579Y1017482D01*
Y1017312D01*
X449537Y1017270D01*
X449452D01*
X449410Y1017312D01*
Y1017482D01*
X449664Y1017270D02*
X449748D01*
X449706D01*
Y1017524D01*
X449664Y1017482D01*
X450044Y1017524D02*
X449875D01*
Y1017397D01*
X449960Y1017439D01*
X450002D01*
X450044Y1017397D01*
Y1017312D01*
X450002Y1017270D01*
X449917D01*
X449875Y1017312D01*
X450383Y1017270D02*
Y1017439D01*
X450468Y1017524D01*
X450552Y1017439D01*
Y1017270D01*
Y1017397D01*
X450383D01*
X450806Y1017439D02*
X450679D01*
X450637Y1017397D01*
Y1017312D01*
X450679Y1017270D01*
X450806D01*
X451060Y1017439D02*
X450933D01*
X450891Y1017397D01*
Y1017312D01*
X450933Y1017270D01*
X451060D01*
X451272D02*
X451187D01*
X451145Y1017312D01*
Y1017397D01*
X451187Y1017439D01*
X451272D01*
X451314Y1017397D01*
Y1017355D01*
X451145D01*
X451399Y1017270D02*
X451483D01*
X451441D01*
Y1017524D01*
X451399D01*
X451737Y1017270D02*
X451653D01*
X451610Y1017312D01*
Y1017397D01*
X451653Y1017439D01*
X451737D01*
X451780Y1017397D01*
Y1017355D01*
X451610D01*
X451864Y1017439D02*
Y1017270D01*
Y1017355D01*
X451907Y1017397D01*
X451949Y1017439D01*
X451991D01*
X452160D02*
X452245D01*
X452287Y1017397D01*
Y1017270D01*
X452160D01*
X452118Y1017312D01*
X452160Y1017355D01*
X452287D01*
X452414Y1017482D02*
Y1017439D01*
X452372D01*
X452457D01*
X452414D01*
Y1017312D01*
X452457Y1017270D01*
X452711D02*
X452626D01*
X452584Y1017312D01*
Y1017397D01*
X452626Y1017439D01*
X452711D01*
X452753Y1017397D01*
Y1017355D01*
X452584D01*
X453007Y1017524D02*
Y1017270D01*
X452880D01*
X452838Y1017312D01*
Y1017397D01*
X452880Y1017439D01*
X453007D01*
X453345Y1017524D02*
Y1017270D01*
X453472D01*
X453515Y1017312D01*
Y1017482D01*
X453472Y1017524D01*
X453345D01*
X453726Y1017270D02*
X453642D01*
X453599Y1017312D01*
Y1017397D01*
X453642Y1017439D01*
X453726D01*
X453769Y1017397D01*
Y1017355D01*
X453599D01*
X453853Y1017270D02*
X453980D01*
X454023Y1017312D01*
X453980Y1017355D01*
X453896D01*
X453853Y1017397D01*
X453896Y1017439D01*
X454023D01*
X454107Y1017270D02*
X454192D01*
X454150D01*
Y1017439D01*
X454107D01*
X454403Y1017185D02*
X454446D01*
X454488Y1017228D01*
Y1017439D01*
X454361D01*
X454319Y1017397D01*
Y1017312D01*
X454361Y1017270D01*
X454488D01*
X454573D02*
Y1017439D01*
X454700D01*
X454742Y1017397D01*
Y1017270D01*
X454827D02*
X454954D01*
X454996Y1017312D01*
X454954Y1017355D01*
X454869D01*
X454827Y1017397D01*
X454869Y1017439D01*
X454996D01*
X455081Y1017270D02*
Y1017312D01*
X455123D01*
Y1017270D01*
X455081D01*
X455546D02*
Y1017439D01*
X455631Y1017524D01*
X455715Y1017439D01*
Y1017270D01*
Y1017397D01*
X455546D01*
X455800Y1017270D02*
X455885D01*
X455842D01*
Y1017524D01*
X455800D01*
X456012Y1017270D02*
X456096D01*
X456054D01*
Y1017524D01*
X456012D01*
X456477Y1017439D02*
Y1017270D01*
Y1017355D01*
X456520Y1017397D01*
X456562Y1017439D01*
X456604D01*
X456731Y1017270D02*
X456816D01*
X456773D01*
Y1017439D01*
X456731D01*
X457027Y1017185D02*
X457070D01*
X457112Y1017228D01*
Y1017439D01*
X456985D01*
X456943Y1017397D01*
Y1017312D01*
X456985Y1017270D01*
X457112D01*
X457197Y1017524D02*
Y1017270D01*
Y1017397D01*
X457239Y1017439D01*
X457324D01*
X457366Y1017397D01*
Y1017270D01*
X457493Y1017482D02*
Y1017439D01*
X457450D01*
X457535D01*
X457493D01*
Y1017312D01*
X457535Y1017270D01*
X457662D02*
X457789D01*
X457831Y1017312D01*
X457789Y1017355D01*
X457705D01*
X457662Y1017397D01*
X457705Y1017439D01*
X457831D01*
X458170D02*
Y1017270D01*
Y1017355D01*
X458212Y1017397D01*
X458255Y1017439D01*
X458297D01*
X458551Y1017270D02*
X458466D01*
X458424Y1017312D01*
Y1017397D01*
X458466Y1017439D01*
X458551D01*
X458593Y1017397D01*
Y1017355D01*
X458424D01*
X458678Y1017270D02*
X458805D01*
X458847Y1017312D01*
X458805Y1017355D01*
X458720D01*
X458678Y1017397D01*
X458720Y1017439D01*
X458847D01*
X459059Y1017270D02*
X458974D01*
X458932Y1017312D01*
Y1017397D01*
X458974Y1017439D01*
X459059D01*
X459101Y1017397D01*
Y1017355D01*
X458932D01*
X459186Y1017439D02*
Y1017270D01*
Y1017355D01*
X459228Y1017397D01*
X459270Y1017439D01*
X459313D01*
X459440D02*
X459524Y1017270D01*
X459609Y1017439D01*
X459821Y1017270D02*
X459736D01*
X459693Y1017312D01*
Y1017397D01*
X459736Y1017439D01*
X459821D01*
X459863Y1017397D01*
Y1017355D01*
X459693D01*
X460117Y1017524D02*
Y1017270D01*
X459990D01*
X459948Y1017312D01*
Y1017397D01*
X459990Y1017439D01*
X460117D01*
M02*
