<?xml version="1.0" encoding="utf-8"?>
<!-- Generator: Adobe Illustrator 16.0.4, SVG Export Plug-In . SVG Version: 6.00 Build 0)  -->
<!DOCTYPE svg PUBLIC "-//W3C//DTD SVG 1.1//EN" "http://www.w3.org/Graphics/SVG/1.1/DTD/svg11.dtd">
<svg version="1.1" xmlns="http://www.w3.org/2000/svg" xmlns:xlink="http://www.w3.org/1999/xlink" x="0px" y="0px" width="5000px"
	 height="5000px" viewBox="0 0 5000 5000" enable-background="new 0 0 5000 5000" xml:space="preserve">
<g id="Laser_Cut">
	<g transform="translate(22.5000185, 22.5000185) ">
		<polyline fill="none" stroke="#000000" stroke-width="0.1" points="2867.494,1474.201 2867.494,1544.358 2880.25,1544.358 
			2880.25,1580.571 2869.762,1580.571 2869.762,1591.059 2880.25,1591.059 2880.25,1627.271 2867.494,1627.271 2867.494,1686.798 
			2880.25,1686.798 2880.25,1746.327 2867.494,1746.327 2867.494,1805.854 2880.25,1805.854 2880.25,1865.381 2867.494,1865.381 
			2867.494,1924.909 2880.25,1924.909 2880.25,1984.437 2867.494,1984.437 2867.494,2043.964 2880.25,2043.964 2880.25,2103.492 
			2867.494,2103.492 2867.494,2163.019 2880.25,2163.019 2880.25,2199.232 2869.762,2199.232 2869.762,2209.72 2880.25,2209.72 
			2880.25,2245.933 2867.494,2245.933 2867.494,2328.846 2797.336,2328.846 2797.336,2316.09 2760.273,2316.09 2760.273,2257.697 
			2763.816,2257.697 2763.816,2250.61 2760.273,2250.61 2760.273,2243.523 2751.486,2243.523 2751.486,2250.61 2747.942,2250.61 
			2747.942,2257.697 2751.486,2257.697 2751.486,2316.09 2714.423,2316.09 2714.423,2328.846 2654.896,2328.846 2654.896,2316.09 
			2595.368,2316.09 2595.368,2328.846 2535.84,2328.846 2535.84,2316.09 2476.312,2316.09 2476.312,2328.846 2416.785,2328.846 
			2416.785,2316.09 2357.258,2316.09 2357.258,2328.846 2297.73,2328.846 2297.73,2316.09 2238.202,2316.09 2238.202,2328.846 
			2178.675,2328.846 2178.675,2316.09 2141.612,2316.09 2141.612,2257.697 2145.155,2257.697 2145.155,2250.61 2141.612,2250.61 
			2141.612,2243.523 2132.824,2243.523 2132.824,2250.61 2129.281,2250.61 2129.281,2257.697 2132.824,2257.697 2132.824,2316.09 
			2095.762,2316.09 2095.762,2328.846 2025.604,2328.846 2025.604,2245.933 2012.849,2245.933 2012.849,2209.72 2023.337,2209.72 
			2023.337,2199.232 2012.849,2199.232 2012.849,2163.019 2025.604,2163.019 2025.604,2103.492 2012.849,2103.492 
			2012.849,2043.964 2025.604,2043.964 2025.604,1984.437 2012.849,1984.437 2012.849,1924.909 2025.604,1924.909 
			2025.604,1865.381 2012.849,1865.381 2012.849,1805.854 2025.604,1805.854 2025.604,1746.327 2012.849,1746.327 
			2012.849,1686.798 2025.604,1686.798 2025.604,1627.271 2012.849,1627.271 2012.849,1591.059 2023.337,1591.059 
			2023.337,1580.571 2012.849,1580.571 2012.849,1544.358 2025.604,1544.358 2025.604,1461.445 2095.762,1461.445 
			2095.762,1474.201 2132.824,1474.201 2132.824,1532.594 2129.281,1532.594 2129.281,1539.681 2132.824,1539.681 
			2132.824,1546.767 2141.612,1546.767 2141.612,1539.681 2145.155,1539.681 2145.155,1532.594 2141.612,1532.594 
			2141.612,1474.201 2178.675,1474.201 2178.675,1461.445 2238.202,1461.445 2238.202,1474.201 2297.73,1474.201 2297.73,1461.445 
			2357.258,1461.445 2357.258,1474.201 2416.785,1474.201 2416.785,1461.445 2476.312,1461.445 2476.312,1474.201 2535.84,1474.201 
			2535.84,1461.445 2595.368,1461.445 2595.368,1474.201 		"/>
		<path fill="none" stroke="#000000" stroke-width="0.1" d="M2867.494,1474.201"/>
	</g>
	<g transform="translate(1106.7528785000002, 22.5000185) ">
		<polyline fill="none" stroke="#000000" stroke-width="0.1" points="1511.115,3483.783 1511.115,3496.539 1451.588,3496.539 
			1451.588,3483.783 1392.061,3483.783 1392.061,3496.539 1332.532,3496.539 1332.532,3483.783 1273.005,3483.783 
			1273.005,3496.539 1213.478,3496.539 1213.478,3483.783 1153.949,3483.783 1153.949,3496.539 1094.422,3496.539 
			1094.422,3483.783 1057.359,3483.783 1057.359,3425.39 1060.902,3425.39 1060.902,3418.303 1057.359,3418.303 1057.359,3411.216 
			1048.572,3411.216 1048.572,3418.303 1045.028,3418.303 1045.028,3425.39 1048.572,3425.39 1048.572,3483.783 1011.509,3483.783 
			1011.509,3496.539 941.352,3496.539 941.352,3413.626 928.596,3413.626 928.596,3377.413 939.084,3377.413 939.084,3366.925 
			928.596,3366.925 928.596,3330.712 941.352,3330.712 941.352,3271.185 928.596,3271.185 928.596,3211.657 941.352,3211.657 
			941.352,3152.13 928.596,3152.13 928.596,3092.602 941.352,3092.602 941.352,3033.074 928.596,3033.074 928.596,2973.547 
			941.352,2973.547 941.352,2914.02 928.596,2914.02 928.596,2854.491 941.352,2854.491 941.352,2794.964 928.596,2794.964 
			928.596,2758.752 939.084,2758.752 939.084,2748.264 928.596,2748.264 928.596,2712.051 941.352,2712.051 941.352,2629.138 
			1011.509,2629.138 1011.509,2641.894 1048.572,2641.894 1048.572,2700.287 1045.028,2700.287 1045.028,2707.374 
			1048.572,2707.374 1048.572,2714.46 1057.359,2714.46 1057.359,2707.374 1060.902,2707.374 1060.902,2700.287 1057.359,2700.287 
			1057.359,2641.894 1094.422,2641.894 1094.422,2629.138 1153.949,2629.138 1153.949,2641.894 1213.478,2641.894 
			1213.478,2629.138 1273.005,2629.138 1273.005,2641.894 1332.532,2641.894 1332.532,2629.138 1392.061,2629.138 
			1392.061,2641.894 1451.588,2641.894 1451.588,2629.138 1511.115,2629.138 1511.115,2641.894 1570.643,2641.894 
			1570.643,2629.138 1630.17,2629.138 1630.17,2641.894 1667.233,2641.894 1667.233,2700.287 1663.689,2700.287 1663.689,2707.374 
			1667.233,2707.374 1667.233,2714.46 1676.021,2714.46 1676.021,2707.374 1679.564,2707.374 1679.564,2700.287 1676.021,2700.287 
			1676.021,2641.894 1713.084,2641.894 1713.084,2629.138 1783.241,2629.138 1783.241,2712.051 1795.997,2712.051 
			1795.997,2748.264 1785.509,2748.264 1785.509,2758.752 1795.997,2758.752 1795.997,2794.964 1783.241,2794.964 
			1783.241,2854.491 1795.997,2854.491 1795.997,2914.02 1783.241,2914.02 1783.241,2973.547 1795.997,2973.547 1795.997,3033.074 
			1783.241,3033.074 1783.241,3092.602 1795.997,3092.602 1795.997,3152.13 1783.241,3152.13 1783.241,3211.657 1795.997,3211.657 
			1795.997,3271.185 1783.241,3271.185 1783.241,3330.712 1795.997,3330.712 1795.997,3366.925 1785.509,3366.925 
			1785.509,3377.413 1795.997,3377.413 1795.997,3413.626 1783.241,3413.626 1783.241,3481.5 		"/>
	</g>
	<g transform="translate(2191.0057385, 1106.7528785000002) ">
		<polyline fill="none" stroke="#000000" stroke-width="0.1" points="724.5,1115.83 724.5,1078.766 711.744,1078.766 
			711.744,1019.239 724.5,1019.239 724.5,959.711 711.744,959.711 711.744,900.184 724.5,900.184 724.5,840.656 711.744,840.656 
			711.744,781.128 724.5,781.128 724.5,721.601 711.744,721.601 711.744,662.074 724.5,662.074 724.5,602.546 711.744,602.546 
			711.744,543.018 724.5,543.018 724.5,505.956 782.894,505.956 782.894,509.499 789.98,509.499 789.98,505.956 797.067,505.956 
			797.067,497.167 789.98,497.167 789.98,493.625 782.894,493.625 782.894,497.167 724.5,497.167 724.5,460.105 711.744,460.105 
			711.744,389.948 771.839,389.948 		"/>
		<polyline fill="none" stroke="#000000" stroke-width="0.1" points="857.587,1231.837 831.933,1231.837 831.933,1244.593 
			771.839,1244.593 771.839,1231.837 711.744,1231.837 711.744,1161.68 724.5,1161.68 724.5,1124.617 		"/>
		<polyline fill="none" stroke="#000000" stroke-width="0.1" points="999.461,1124.617 999.461,1161.68 1012.217,1161.68 
			1012.217,1231.837 952.122,1231.837 952.122,1244.593 892.028,1244.593 892.028,1231.837 866.374,1231.837 		"/>
		<polyline fill="none" stroke="#000000" stroke-width="0.1" points="952.122,389.948 1012.217,389.948 1012.217,460.105 
			999.461,460.105 999.461,497.167 941.067,497.167 941.067,493.625 933.98,493.625 933.98,497.167 926.894,497.167 
			926.894,505.956 933.98,505.956 933.98,509.499 941.067,509.499 941.067,505.956 999.461,505.956 999.461,543.018 
			1012.217,543.018 1012.217,602.546 999.461,602.546 999.461,662.074 1012.217,662.074 1012.217,721.601 999.461,721.601 
			999.461,781.128 1012.217,781.128 1012.217,840.656 999.461,840.656 999.461,900.184 1012.217,900.184 1012.217,959.711 
			999.461,959.711 999.461,1019.239 1012.217,1019.239 1012.217,1078.766 999.461,1078.766 999.461,1115.83 		"/>
	</g>
	<g transform="translate(22.5000185, 1106.7528785000002) ">
		<polyline fill="none" stroke="#000000" stroke-width="0.1" points="2595.368,2700.002 2535.84,2700.002 2535.84,2712.758 
			2476.312,2712.758 2476.312,2700.002 2416.785,2700.002 2416.785,2712.758 2357.258,2712.758 2357.258,2700.002 2297.73,2700.002 
			2297.73,2712.758 2238.202,2712.758 2238.202,2700.002 2178.675,2700.002 2178.675,2712.758 2142.463,2712.758 2142.463,2702.27 
			2131.975,2702.27 2131.975,2712.758 2095.762,2712.758 2095.762,2700.002 2012.849,2700.002 2012.849,2652.664 2025.604,2652.664 
			2025.604,2592.569 2012.849,2592.569 2012.849,2567.766 2023.337,2567.766 2023.337,2557.278 2012.849,2557.278 
			2012.849,2532.475 2025.604,2532.475 2025.604,2472.381 2012.849,2472.381 2012.849,2425.042 2095.762,2425.042 
			2095.762,2412.286 2131.975,2412.286 2131.975,2422.774 2142.463,2422.774 2142.463,2412.286 2178.675,2412.286 
			2178.675,2425.042 2238.202,2425.042 2238.202,2412.286 2297.73,2412.286 2297.73,2425.042 2357.258,2425.042 2357.258,2412.286 
			2416.785,2412.286 2416.785,2425.042 2476.312,2425.042 2476.312,2412.286 2535.84,2412.286 2535.84,2425.042 2595.368,2425.042 
					"/>
	</g>
	<g transform="translate(1106.7528785000002, 1106.7528785000002) ">
		<polyline fill="none" stroke="#000000" stroke-width="0.1" points="928.596,1389.405 928.596,1364.601 941.352,1364.601 
			941.352,1304.507 928.596,1304.507 928.596,1257.168 1011.509,1257.168 1011.509,1244.413 1047.722,1244.413 1047.722,1254.901 
			1058.21,1254.901 1058.21,1244.413 1094.422,1244.413 1094.422,1257.168 1153.949,1257.168 1153.949,1244.413 1213.478,1244.413 
			1213.478,1257.168 1273.005,1257.168 1273.005,1244.413 1332.532,1244.413 1332.532,1257.168 1392.061,1257.168 
			1392.061,1244.413 1451.588,1244.413 1451.588,1257.168 1511.115,1257.168 1511.115,1244.413 1570.643,1244.413 
			1570.643,1257.168 1630.17,1257.168 1630.17,1244.413 1666.383,1244.413 1666.383,1254.901 1676.871,1254.901 1676.871,1244.413 
			1713.084,1244.413 1713.084,1257.168 1795.997,1257.168 1795.997,1304.507 1783.241,1304.507 1783.241,1364.601 
			1795.997,1364.601 1795.997,1389.405 1785.509,1389.405 1785.509,1399.892 1795.997,1399.892 1795.997,1424.696 
			1783.241,1424.696 1783.241,1484.79 1795.997,1484.79 1795.997,1532.128 1713.084,1532.128 1713.084,1544.884 1676.871,1544.884 
			1676.871,1534.396 1666.383,1534.396 1666.383,1544.884 1630.17,1544.884 1630.17,1532.128 1570.643,1532.128 1570.643,1544.884 
			1511.115,1544.884 1511.115,1532.128 1451.588,1532.128 1451.588,1544.884 1392.061,1544.884 1392.061,1532.128 
			1332.532,1532.128 1332.532,1544.884 1273.005,1544.884 1273.005,1532.128 1213.478,1532.128 1213.478,1544.884 
			1153.949,1544.884 1153.949,1532.128 1094.422,1532.128 1094.422,1544.884 1058.21,1544.884 1058.21,1534.396 1047.722,1534.396 
			1047.722,1544.884 1011.509,1544.884 1011.509,1532.128 928.596,1532.128 928.596,1484.79 941.352,1484.79 941.352,1424.696 
			928.596,1424.696 928.596,1399.892 		"/>
	</g>
	<line fill="none" stroke="#000000" stroke-width="0.1" x1="2617.868" y1="1496.701" x2="2889.994" y2="1496.701"/>
	<ellipse fill="none" stroke="#000000" stroke-width="0.1" cx="3052.986" cy="1496.701" rx="90.142" ry="0"/>
	<line fill="none" stroke="#000000" stroke-width="0.1" x1="2617.868" y1="3506.283" x2="2889.994" y2="3506.283"/>
	<line fill="none" stroke="#000000" stroke-width="0.1" x1="2617.868" y1="3531.795" x2="2617.868" y2="3806.755"/>
	<polyline fill="none" stroke="#000000" stroke-width="0.1" points="2035.349,2505.394 2093.743,2505.394 2093.743,2508.937 
		2100.83,2508.937 2100.83,2505.394 2107.916,2505.394 2107.916,2496.606 2100.83,2496.606 2100.83,2493.063 2093.743,2493.063 
		2093.743,2496.606 2035.349,2496.606 	"/>
	<circle fill="none" stroke="#000000" stroke-width="0.1" cx="2090.058" cy="1916.449" r="7.087"/>
	<circle fill="none" stroke="#000000" stroke-width="0.1" cx="2090.058" cy="1859.688" r="7.087"/>
	<g transform="translate(2191.0057385, 1106.7528785000002) ">
		<polyline fill="none" stroke="#000000" stroke-width="0.1" points="1067.573,496.68 1067.573,459.617 1054.817,459.617 
			1054.817,389.46 1114.912,389.46 		"/>
		<path fill="none" stroke="#000000" stroke-width="0.1" d="M1067.573,496.68"/>
		<path fill="none" stroke="#000000" stroke-width="0.1" d="M1067.573,505.468"/>
		<polyline fill="none" stroke="#000000" stroke-width="0.1" points="1054.817,899.696 1067.573,899.696 1067.573,840.168 
			1054.817,840.168 1054.817,780.641 1067.573,780.641 1067.573,721.113 1054.817,721.113 1054.817,661.586 1067.573,661.586 
			1067.573,602.059 1054.817,602.059 1054.817,542.53 1067.573,542.53 1067.573,505.468 		"/>
		<path fill="none" stroke="#000000" stroke-width="0.1" d="M1054.817,899.696"/>
		<path fill="none" stroke="#000000" stroke-width="0.1" d="M1054.817,1232.026"/>
		<path fill="none" stroke="#000000" stroke-width="0.1" d="M1054.817,1232.026"/>
		<path fill="none" stroke="#000000" stroke-width="0.1" d="M1067.573,1232.026"/>
		<path fill="none" stroke="#000000" stroke-width="0.1" d="M1067.573,1232.026"/>
		<path fill="none" stroke="#000000" stroke-width="0.1" d="M1342.534,1232.026"/>
		<path fill="none" stroke="#000000" stroke-width="0.1" d="M1342.534,1232.026"/>
		<path fill="none" stroke="#000000" stroke-width="0.1" d="M1355.29,1232.026"/>
		<path fill="none" stroke="#000000" stroke-width="0.1" d="M1355.29,1232.026"/>
		<path fill="none" stroke="#000000" stroke-width="0.1" d="M1355.29,899.696"/>
		<polyline fill="none" stroke="#000000" stroke-width="0.1" points="1342.534,505.468 1342.534,542.53 1355.29,542.53 
			1355.29,602.059 1342.534,602.059 1342.534,661.586 1355.29,661.586 1355.29,721.113 1342.534,721.113 1342.534,780.641 
			1355.29,780.641 1355.29,840.168 1342.534,840.168 1342.534,899.696 1355.29,899.696 		"/>
		<path fill="none" stroke="#000000" stroke-width="0.1" d="M1342.534,505.468"/>
		<path fill="none" stroke="#000000" stroke-width="0.1" d="M1342.534,496.68"/>
		<polyline fill="none" stroke="#000000" stroke-width="0.1" points="1295.195,389.46 1355.29,389.46 1355.29,459.617 
			1342.534,459.617 1342.534,496.68 		"/>
	</g>
	<ellipse fill="none" stroke="#000000" stroke-width="0.1" cx="3396.06" cy="1496.213" rx="90.142" ry="0"/>
	<line fill="none" stroke="#000000" stroke-width="0.1" x1="3533.54" y1="1603.433" x2="3533.54" y2="1612.221"/>
	<line fill="none" stroke="#000000" stroke-width="0.1" x1="3258.579" y1="1603.433" x2="3258.579" y2="1612.221"/>
	<rect x="2605.112" y="1496.701" fill="none" stroke="#000000" stroke-width="0.1" width="12.756" height="69.908"/>
	<rect x="2605.112" y="1649.701" fill="none" stroke="#000000" stroke-width="0.1" width="12.756" height="59.787"/>
	<rect x="2605.112" y="1769.367" fill="none" stroke="#000000" stroke-width="0.1" width="12.756" height="59.787"/>
	<rect x="2605.112" y="1888.24" fill="none" stroke="#000000" stroke-width="0.1" width="12.756" height="59.787"/>
	<rect x="2605.112" y="2006.677" fill="none" stroke="#000000" stroke-width="0.1" width="12.756" height="59.787"/>
	<rect x="2605.112" y="3436.376" fill="none" stroke="#000000" stroke-width="0.1" width="12.756" height="69.907"/>
	<rect x="2605.112" y="3293.496" fill="none" stroke="#000000" stroke-width="0.1" width="12.756" height="59.787"/>
	<rect x="2605.112" y="3173.83" fill="none" stroke="#000000" stroke-width="0.1" width="12.756" height="59.787"/>
	<rect x="2605.112" y="3054.957" fill="none" stroke="#000000" stroke-width="0.1" width="12.756" height="59.787"/>
	<rect x="2605.112" y="2936.52" fill="none" stroke="#000000" stroke-width="0.1" width="12.756" height="59.787"/>
	<circle fill="none" stroke="#000000" stroke-width="0.1" cx="2540.259" cy="1613.701" r="4.677"/>
	<circle fill="none" stroke="#000000" stroke-width="0.1" cx="2328.511" cy="1613.701" r="4.677"/>
	<circle fill="none" stroke="#000000" stroke-width="0.1" cx="2328.511" cy="1529.512" r="4.677"/>
	<circle fill="none" stroke="#000000" stroke-width="0.1" cx="2540.259" cy="1529.512" r="4.677"/>
	<circle fill="none" stroke="#000000" stroke-width="0.1" cx="2540.259" cy="1640.497" r="4.677"/>
	<circle fill="none" stroke="#000000" stroke-width="0.1" cx="2328.511" cy="1640.497" r="4.677"/>
	<circle fill="none" stroke="#000000" stroke-width="0.1" cx="2328.512" cy="2069.464" r="4.678"/>
	<circle fill="none" stroke="#000000" stroke-width="0.1" cx="2540.26" cy="2069.464" r="4.678"/>
	<circle fill="none" stroke="#000000" stroke-width="0.1" cx="3396.06" cy="2212.508" r="42.52"/>
	<polyline fill="none" stroke="#000000" stroke-width="0.1" points="3863.166,2338.587 3803.071,2338.587 3803.071,2351.343 
		3742.978,2351.343 3742.978,2338.587 3717.323,2338.587 	"/>
	<polyline fill="none" stroke="#000000" stroke-width="0.1" points="3850.41,2231.367 3850.41,2268.43 3863.166,2268.43 	"/>
	<line fill="none" stroke="#000000" stroke-width="0.1" x1="3849.541" y1="2099.53" x2="3849.541" y2="2136.592"/>
	<line fill="none" stroke="#000000" stroke-width="0.1" x1="3574.58" y1="2136.592" x2="3574.58" y2="2099.53"/>
	<polyline fill="none" stroke="#000000" stroke-width="0.1" points="3708.536,2338.587 3682.882,2338.587 3682.882,2351.343 
		3622.788,2351.343 3622.788,2338.587 3562.693,2338.587 3562.693,2268.43 3575.449,2268.43 3575.449,2231.367 	"/>
	<path fill="none" stroke="#000000" stroke-width="0.1" d="M3708.536,2338.587"/>
	<path fill="none" stroke="#000000" stroke-width="0.1" d="M3717.323,2338.587"/>
	<circle fill="none" stroke="#000000" stroke-width="0.1" cx="3711.61" cy="2213.508" r="43.937"/>
	<circle fill="none" stroke="#000000" stroke-width="0.1" cx="3757.967" cy="2260.508" r="11.338"/>
	<circle fill="none" stroke="#000000" stroke-width="0.1" cx="3757.967" cy="2169.508" r="11.338"/>
	<circle fill="none" stroke="#000000" stroke-width="0.1" cx="3664.455" cy="2169.508" r="11.339"/>
	<circle fill="none" stroke="#000000" stroke-width="0.1" cx="3664.455" cy="2260.508" r="11.339"/>
	<line fill="none" stroke="#000000" stroke-width="0.1" x1="3863.166" y1="2268.43" x2="3863.166" y2="2338.587"/>
	<path fill="none" stroke="#000000" stroke-width="0.1" d="M3664.469,2099.53"/>
	<path fill="none" stroke="#000000" stroke-width="0.1" d="M3757.971,2099.53c53.354,0,91.57,0,91.57,0"/>
	<ellipse fill="none" stroke="#000000" stroke-width="0.1" cx="3575.449" cy="2226.973" rx="0" ry="4.394"/>
	<ellipse fill="none" stroke="#000000" stroke-width="0.1" cx="3850.41" cy="2226.973" rx="0" ry="4.394"/>
	<polyline fill="none" stroke="#000000" stroke-width="0.1" points="3664.454,2099.162 3664.454,2086.406 3757.967,2086.406 
		3757.967,2099.162 	"/>
	<line fill="none" stroke="#000000" stroke-width="0.1" x1="3664.454" y1="2099.162" x2="3574.58" y2="2099.162"/>
	<line fill="none" stroke="#000000" stroke-width="0.1" x1="3717.323" y1="2338.587" x2="3708.536" y2="2338.587"/>
	<line fill="none" stroke="#000000" stroke-width="0.1" x1="3190.467" y1="2222.583" x2="3190.467" y2="2231.37"/>
	<line fill="none" stroke="#000000" stroke-width="0.1" x1="3048.593" y1="2338.59" x2="3057.38" y2="2338.59"/>
	<line fill="none" stroke="#000000" stroke-width="0.1" x1="2915.506" y1="2222.583" x2="2915.506" y2="2231.37"/>
	<circle fill="none" stroke="#000000" stroke-width="0.1" cx="3052.986" cy="2215.007" r="113.386"/>
	<polyline fill="none" stroke="#000000" stroke-width="0.1" points="3258.579,2006.677 3245.823,2006.677 3245.823,2066.464 
		3258.579,2066.464 	"/>
	<path fill="none" stroke="#000000" stroke-width="0.1" d="M3533.54,2066.464"/>
	<polyline fill="none" stroke="#000000" stroke-width="0.1" points="3533.54,2066.464 3546.296,2066.464 3546.296,2006.677 
		3533.54,2006.677 	"/>
	<line fill="none" stroke="#000000" stroke-width="0.1" x1="3258.579" y1="2066.464" x2="3258.579" y2="2338.779"/>
	<line fill="none" stroke="#000000" stroke-width="0.1" x1="3533.54" y1="2066.464" x2="3533.54" y2="2338.779"/>
	<polyline fill="none" stroke="#000000" stroke-width="0.1" points="3391.666,2338.59 3366.012,2338.59 3366.012,2351.346 
		3305.918,2351.346 3305.918,2338.59 3258.576,2338.59 	"/>
	<polyline fill="none" stroke="#000000" stroke-width="0.1" points="3533.542,2338.59 3486.201,2338.59 3486.201,2351.346 
		3426.107,2351.346 3426.107,2338.59 3400.453,2338.59 	"/>
	<line fill="none" stroke="#000000" stroke-width="0.1" x1="3391.666" y1="2338.59" x2="3400.453" y2="2338.59"/>
	<polyline fill="none" stroke="#000000" stroke-width="0.1" points="3574.58,2136.592 3562.693,2136.592 3562.693,2222.583 
		3574.58,2222.583 	"/>
	<path fill="none" stroke="#000000" stroke-width="0.1" d="M3849.541,2136.592"/>
	<polyline fill="none" stroke="#000000" stroke-width="0.1" points="3849.541,2136.592 3863.166,2136.592 3863.166,2222.579 
		3849.541,2222.579 	"/>
	<circle fill="none" stroke="#000000" stroke-width="0.1" cx="3787.896" cy="1504.212" r="4.677"/>
	<circle fill="none" stroke="#000000" stroke-width="0.1" cx="3576.148" cy="1504.212" r="4.677"/>
	<circle fill="none" stroke="#000000" stroke-width="0.1" cx="3576.148" cy="1933.179" r="4.678"/>
	<circle fill="none" stroke="#000000" stroke-width="0.1" cx="3787.896" cy="1933.179" r="4.678"/>
	<rect x="3568.637" y="1496.701" fill="none" stroke="#000000" stroke-width="0.1" width="226.771" height="444.126"/>
	<rect x="3443.816" y="2086.771" fill="none" stroke="#000000" stroke-width="0.1" width="74.184" height="12.025"/>
	<rect x="3275" y="2086.945" fill="none" stroke="#000000" stroke-width="0.1" width="74.302" height="11.678"/>
	<rect x="2463.106" y="2136.59" fill="none" stroke="#000000" stroke-width="0.1" width="11.886" height="85.99"/>
	<rect x="2462.671" y="2268.43" fill="none" stroke="#000000" stroke-width="0.1" width="12.756" height="70.157"/>
	<rect x="2463.108" y="2782.652" fill="none" stroke="#000000" stroke-width="0.1" width="11.887" height="85.99"/>
	<rect x="2462.672" y="2666.646" fill="none" stroke="#000000" stroke-width="0.1" width="12.756" height="70.156"/>
	<rect x="2462.671" y="2411.26" fill="none" stroke="#000000" stroke-width="0.1" width="12.756" height="60.094"/>
	<rect x="2462.671" y="2531.449" fill="none" stroke="#000000" stroke-width="0.1" width="12.756" height="60.094"/>
	<polyline fill="none" stroke="#000000" stroke-width="0.1" points="3517.06,2387.93 3517.06,2376.252 3442.758,2376.252 
		3442.758,2387.93 3349.302,2387.93 3349.302,2376.252 3275,2376.252 3275,2387.93 3258.579,2387.93 3258.579,2390 
		3258.579,2460.701 3258.579,2531.244 3258.579,2531.449 3348.454,2531.449 3349.304,2531.09 3349.304,2518.693 3442.815,2518.693 
		3442.815,2531.09 3441.972,2531.449 3533.54,2531.449 3533.538,2531.244 3533.538,2464.701 3533.538,2389 3517.06,2389 	"/>
	<circle fill="none" stroke="#000000" stroke-width="0.1" cx="2133.003" cy="2607.275" r="4.678"/>
	<circle fill="none" stroke="#000000" stroke-width="0.1" cx="2133.003" cy="2395.527" r="4.678"/>
	<circle fill="none" stroke="#000000" stroke-width="0.1" cx="2422.272" cy="2607.275" r="4.678"/>
	<circle fill="none" stroke="#000000" stroke-width="0.1" cx="2422.272" cy="2395.527" r="4.678"/>
	<circle fill="none" stroke="#000000" stroke-width="0.1" cx="1693.909" cy="2615.044" r="4.678"/>
	<circle fill="none" stroke="#000000" stroke-width="0.1" cx="1693.909" cy="2403.296" r="4.678"/>
	<circle fill="none" stroke="#000000" stroke-width="0.1" cx="1983.179" cy="2615.044" r="4.678"/>
	<circle fill="none" stroke="#000000" stroke-width="0.1" cx="1983.179" cy="2403.295" r="4.678"/>
	<rect x="1611.279" y="2384.021" fill="none" stroke="#000000" stroke-width="0.1" width="404.721" height="249.832"/>
	<path fill="none" stroke="#000000" stroke-width="0.1" d="M2065.903,3556.331h532.265c2.73,0,4.944,1.659,4.944,3.706
		s-2.214,3.707-4.944,3.707h-532.265c-2.731,0-4.944-1.66-4.944-3.707S2063.172,3556.331,2065.903,3556.331z"/>
	<path fill="none" stroke="#000000" stroke-width="0.1" d="M2065.903,3577.036h532.265c2.73,0,4.944,1.659,4.944,3.706
		s-2.214,3.707-4.944,3.707h-532.265c-2.731,0-4.944-1.66-4.944-3.707S2063.172,3577.036,2065.903,3577.036z"/>
	<path fill="none" stroke="#000000" stroke-width="0.1" d="M2065.904,3601.035h532.264c2.73,0,4.945,1.659,4.945,3.706
		s-2.215,3.707-4.945,3.707h-532.264c-2.731,0-4.944-1.66-4.944-3.707S2063.173,3601.035,2065.904,3601.035z"/>
	<path fill="none" stroke="#000000" stroke-width="0.1" d="M2065.904,3625.034h532.264c2.73,0,4.945,1.659,4.945,3.706
		s-2.215,3.707-4.945,3.707h-532.264c-2.731,0-4.944-1.66-4.944-3.707S2063.173,3625.034,2065.904,3625.034z"/>
	<path fill="none" stroke="#000000" stroke-width="0.1" d="M2065.904,3650.532h532.265c2.73,0,4.944,1.659,4.944,3.706
		s-2.214,3.707-4.944,3.707h-532.265c-2.731,0-4.944-1.66-4.944-3.707S2063.173,3650.532,2065.904,3650.532z"/>
	<path fill="none" stroke="#000000" stroke-width="0.1" d="M2065.904,3675.275h532.264c2.73,0,4.945,1.659,4.945,3.706
		s-2.215,3.707-4.945,3.707h-532.264c-2.731,0-4.944-1.66-4.944-3.707S2063.173,3675.275,2065.904,3675.275z"/>
	<path fill="none" stroke="#000000" stroke-width="0.1" d="M2065.904,3695.98h532.264c2.73,0,4.945,1.659,4.945,3.706
		s-2.215,3.707-4.945,3.707h-532.264c-2.731,0-4.944-1.66-4.944-3.707S2063.173,3695.98,2065.904,3695.98z"/>
	<path fill="none" stroke="#000000" stroke-width="0.1" d="M2065.904,3719.979h532.264c2.73,0,4.945,1.659,4.945,3.706
		s-2.215,3.707-4.945,3.707h-532.264c-2.731,0-4.944-1.66-4.944-3.707S2063.173,3719.979,2065.904,3719.979z"/>
	<path fill="none" stroke="#000000" stroke-width="0.1" d="M2065.904,3743.979h532.264c2.73,0,4.945,1.659,4.945,3.706
		s-2.215,3.707-4.945,3.707h-532.264c-2.731,0-4.944-1.66-4.944-3.707S2063.173,3743.979,2065.904,3743.979z"/>
	<path fill="none" stroke="#000000" stroke-width="0.1" d="M2065.905,3769.477h532.265c2.73,0,4.943,1.659,4.943,3.706
		s-2.213,3.707-4.943,3.707h-532.265c-2.731,0-4.944-1.66-4.944-3.707S2063.174,3769.477,2065.905,3769.477z"/>
	<path fill="none" stroke="#000000" stroke-width="0.1" d="M2641.544,2059.758v-541.401c0-2.777,1.688-5.029,3.771-5.029
		s3.771,2.252,3.771,5.029v541.401c0,2.778-1.688,5.029-3.771,5.029S2641.544,2062.536,2641.544,2059.758z"/>
	<path fill="none" stroke="#000000" stroke-width="0.1" d="M2662.604,2059.758v-541.401c0-2.777,1.688-5.029,3.771-5.029
		s3.77,2.252,3.77,5.029v541.401c0,2.778-1.688,5.029-3.77,5.029S2662.604,2062.536,2662.604,2059.758z"/>
	<path fill="none" stroke="#000000" stroke-width="0.1" d="M2687.016,2059.758v-541.401c0-2.777,1.688-5.03,3.77-5.03
		s3.771,2.253,3.771,5.03v541.401c0,2.778-1.689,5.029-3.771,5.029S2687.016,2062.536,2687.016,2059.758z"/>
	<path fill="none" stroke="#000000" stroke-width="0.1" d="M2711.427,2059.758v-541.401c0-2.777,1.688-5.03,3.77-5.03
		s3.771,2.253,3.771,5.03v541.401c0,2.778-1.688,5.029-3.771,5.029S2711.427,2062.536,2711.427,2059.758z"/>
	<path fill="none" stroke="#000000" stroke-width="0.1" d="M2737.362,2059.757v-541.401c0-2.777,1.688-5.029,3.77-5.029
		c2.082,0,3.771,2.252,3.771,5.029v541.401c0,2.778-1.688,5.029-3.771,5.029C2739.051,2064.787,2737.362,2062.535,2737.362,2059.757
		z"/>
	<path fill="none" stroke="#000000" stroke-width="0.1" d="M2762.53,2059.758v-541.401c0-2.777,1.688-5.03,3.77-5.03
		s3.771,2.253,3.771,5.03v541.401c0,2.778-1.688,5.029-3.771,5.029S2762.53,2062.536,2762.53,2059.758z"/>
	<path fill="none" stroke="#000000" stroke-width="0.1" d="M2783.591,2059.758v-541.401c0-2.777,1.688-5.03,3.77-5.03
		s3.771,2.253,3.771,5.03v541.401c0,2.778-1.688,5.029-3.771,5.029S2783.591,2062.536,2783.591,2059.758z"/>
	<path fill="none" stroke="#000000" stroke-width="0.1" d="M2808.305,2059.758v-541.401c0-2.777,1.688-5.029,3.77-5.029
		c2.082,0,3.771,2.252,3.771,5.029v541.401c0,2.778-1.688,5.029-3.771,5.029C2809.993,2064.788,2808.305,2062.536,2808.305,2059.758
		z"/>
	<path fill="none" stroke="#000000" stroke-width="0.1" d="M2833.473,2059.759v-541.401c0-2.777,1.688-5.03,3.77-5.03
		s3.771,2.253,3.771,5.03v541.401c0,2.778-1.688,5.029-3.771,5.029S2833.473,2062.537,2833.473,2059.759z"/>
	<path fill="none" stroke="#000000" stroke-width="0.1" d="M2854.533,2059.759v-541.401c0-2.777,1.688-5.03,3.77-5.03
		s3.771,2.253,3.771,5.03v541.401c0,2.778-1.688,5.029-3.771,5.029S2854.533,2062.537,2854.533,2059.759z"/>
	<path fill="none" stroke="#000000" stroke-width="0.1" d="M2643.666,3482.951v-541.4c0-2.777,1.688-5.029,3.771-5.029
		s3.771,2.252,3.771,5.029v541.4c0,2.778-1.688,5.029-3.771,5.029S2643.666,3485.729,2643.666,3482.951z"/>
	<path fill="none" stroke="#000000" stroke-width="0.1" d="M2664.727,3482.951v-541.4c0-2.777,1.688-5.029,3.771-5.029
		s3.77,2.252,3.77,5.029v541.4c0,2.778-1.688,5.029-3.77,5.029S2664.727,3485.729,2664.727,3482.951z"/>
	<path fill="none" stroke="#000000" stroke-width="0.1" d="M2689.138,3482.951v-541.4c0-2.777,1.688-5.031,3.77-5.031
		s3.771,2.254,3.771,5.031v541.4c0,2.777-1.689,5.029-3.771,5.029S2689.138,3485.729,2689.138,3482.951z"/>
	<path fill="none" stroke="#000000" stroke-width="0.1" d="M2713.549,3482.951v-541.4c0-2.777,1.688-5.031,3.77-5.031
		s3.771,2.254,3.771,5.031v541.4c0,2.777-1.688,5.029-3.771,5.029S2713.549,3485.729,2713.549,3482.951z"/>
	<path fill="none" stroke="#000000" stroke-width="0.1" d="M2739.484,3482.951v-541.402c0-2.777,1.688-5.029,3.77-5.029
		c2.082,0,3.771,2.252,3.771,5.029v541.402c0,2.777-1.688,5.029-3.771,5.029C2741.173,3487.98,2739.484,3485.729,2739.484,3482.951z
		"/>
	<path fill="none" stroke="#000000" stroke-width="0.1" d="M2764.652,3482.951v-541.4c0-2.777,1.688-5.031,3.77-5.031
		s3.771,2.254,3.771,5.031v541.4c0,2.777-1.688,5.029-3.771,5.029S2764.652,3485.729,2764.652,3482.951z"/>
	<path fill="none" stroke="#000000" stroke-width="0.1" d="M2785.713,3482.951v-541.4c0-2.777,1.688-5.031,3.77-5.031
		s3.771,2.254,3.771,5.031v541.4c0,2.777-1.688,5.029-3.771,5.029S2785.713,3485.729,2785.713,3482.951z"/>
	<path fill="none" stroke="#000000" stroke-width="0.1" d="M2810.427,3482.951v-541.4c0-2.777,1.688-5.029,3.77-5.029
		c2.082,0,3.771,2.252,3.771,5.029v541.4c0,2.778-1.688,5.029-3.771,5.029C2812.115,3487.98,2810.427,3485.729,2810.427,3482.951z"
		/>
	<path fill="none" stroke="#000000" stroke-width="0.1" d="M2835.595,3482.952v-541.401c0-2.777,1.688-5.029,3.77-5.029
		s3.771,2.252,3.771,5.029v541.401c0,2.778-1.688,5.029-3.771,5.029S2835.595,3485.73,2835.595,3482.952z"/>
	<path fill="none" stroke="#000000" stroke-width="0.1" d="M2856.655,3482.952v-541.401c0-2.777,1.688-5.029,3.77-5.029
		s3.771,2.252,3.771,5.029v541.401c0,2.778-1.688,5.029-3.771,5.029S2856.655,3485.73,2856.655,3482.952z"/>
	<rect x="2605.112" y="2409.859" fill="none" stroke="#000000" stroke-width="0.1" width="12.756" height="61.495"/>
	<rect x="2605.112" y="2530.049" fill="none" stroke="#000000" stroke-width="0.1" width="12.756" height="61.494"/>
	<circle fill="none" stroke="#000000" stroke-width="0.1" cx="3509.924" cy="3087.654" r="4.678"/>
	<circle fill="none" stroke="#000000" stroke-width="0.1" cx="3298.176" cy="3087.654" r="4.678"/>
	<circle fill="none" stroke="#000000" stroke-width="0.1" cx="3509.924" cy="2798.384" r="4.678"/>
	<circle fill="none" stroke="#000000" stroke-width="0.1" cx="3298.175" cy="2798.384" r="4.678"/>
	<path fill="none" stroke="#000000" stroke-width="0.1" d="M3528.732,2765.563"/>
	<line fill="none" stroke="#000000" stroke-width="0.1" x1="3357.06" y1="2765.563" x2="3450.571" y2="2765.563"/>
	<polyline fill="none" stroke="#000000" stroke-width="0.1" points="3528.732,2765.563 3528.732,3170.284 3278.9,3170.284 
		3278.9,2765.563 	"/>
	<circle fill="none" stroke="#000000" stroke-width="0.1" cx="3206.886" cy="3087.654" r="4.678"/>
	<circle fill="none" stroke="#000000" stroke-width="0.1" cx="2995.138" cy="3087.654" r="4.678"/>
	<circle fill="none" stroke="#000000" stroke-width="0.1" cx="3206.886" cy="2798.384" r="4.678"/>
	<circle fill="none" stroke="#000000" stroke-width="0.1" cx="2995.137" cy="2798.384" r="4.678"/>
	<rect x="2975.862" y="2765.563" fill="none" stroke="#000000" stroke-width="0.1" width="249.832" height="404.721"/>
	<polyline fill="none" stroke="#000000" stroke-width="0.1" points="3528.732,2765.563 3541.297,2765.563 3541.295,2765.358 
		3541.295,2698.815 3541.295,2623.114 3524.816,2623.114 	"/>
	<polyline fill="none" stroke="#000000" stroke-width="0.1" points="3356.211,2765.563 3357.061,2765.204 3357.061,2752.808 
		3450.572,2752.808 3450.572,2765.204 	"/>
	<path fill="none" stroke="#000000" stroke-width="0.1" d="M3356.211,2765.563"/>
	<polyline fill="none" stroke="#000000" stroke-width="0.1" points="3524.816,2622.044 3524.816,2610.366 3450.515,2610.366 
		3450.515,2622.044 3357.059,2622.044 3357.059,2610.366 3282.757,2610.366 3282.757,2622.044 3266.336,2622.044 3266.336,2624.114 
		3266.336,2694.815 3266.336,2765.358 3266.336,2765.563 3278.899,2765.563 	"/>
</g>
<g id="Blocks" display="none">
	
		<rect x="2071.633" y="1632.985" display="inline" fill="none" stroke="#000000" stroke-width="0.1" width="184.252" height="340.157"/>
	
		<rect x="2050.373" y="2151.227" display="inline" fill="none" stroke="#000000" stroke-width="0.1" width="411.023" height="127.559"/>
	<rect x="2461.396" y="2195.912" display="inline" fill="none" stroke="#000000" stroke-width="0.1" width="284.034" height="38"/>
	<rect x="2321" y="1522" display="inline" fill="none" stroke="#000000" stroke-width="0.1" width="226.771" height="99.213"/>
	<rect x="2321" y="1632.985" display="inline" fill="none" width="226.771" height="444.126"/>
	
		<rect x="2071.633" y="1814.402" display="inline" fill="none" stroke="#000000" stroke-width="0.1" width="56.693" height="141.732"/>
	
		<rect x="2071.633" y="1956.135" display="inline" fill="none" stroke="#000000" stroke-width="0.1" width="56.692" height="17.008"/>
	<line display="inline" fill="none" stroke="#000000" stroke-width="0.1" x1="2617.868" y1="2066.464" x2="2617.868" y2="2338.59"/>
	
		<rect x="2050.373" y="2376.252" display="inline" fill="none" stroke="#000000" stroke-width="0.1" width="404.721" height="249.832"/>
</g>
<g id="Raster">
	<text transform="matrix(-1 0 0 1 2434.3867 2195.9121)"><tspan x="0" y="0" fill="#FF0000" font-family="'MyriadPro-Bold'" font-size="40">Pneumatic Cylinder</tspan><tspan x="0" y="28.8" fill="#FF0000" font-family="'MyriadPro-Bold'" font-size="24">XCPC DNC 32X50-S</tspan><tspan x="0" y="57.6" fill="#FF0000" font-family="'MyriadPro-Bold'" font-size="24">Pressure 0.05-1.0MPa</tspan></text>
	<text transform="matrix(0 1 1 0 2450.228 1658.3853)"><tspan x="0" y="0" fill="#FF0000" font-family="'MyriadPro-Bold'" font-size="40">Arduino Controler</tspan><tspan x="0" y="28.8" fill="#FF0000" font-family="'MyriadPro-Bold'" font-size="24">5VDC  Multicomp </tspan><tspan x="0" y="57.6" fill="#FF0000" font-family="'MyriadPro-Bold'" font-size="24">24VDC Relay 1A</tspan></text>
	<text transform="matrix(0 1 1 0 2149.9146 1658.3853)"><tspan x="0" y="0" fill="#FF0000" font-family="'MyriadPro-Bold'" font-size="40">SOLENOID VALVE</tspan><tspan x="0" y="28.8" fill="#FF0000" font-family="'MyriadPro-Bold'" font-size="24">XCPC 4V210-06</tspan><tspan x="0" y="57.6" fill="#FF0000" font-family="'MyriadPro-Bold'" font-size="24">0.15-0.8MPa ISO9001</tspan><tspan x="0" y="86.4" fill="#FF0000" font-family="'MyriadPro-Bold'" font-size="24">24V DC 4.8W 120mA IP65</tspan></text>
	<text transform="matrix(-1 0 0 1 3164.9932 1909.3623)"><tspan x="0" y="0" fill="#FF0000" font-family="'MyriadPro-Bold'" font-size="48">WARNING</tspan><tspan x="29.219" y="28.8" fill="#FF0000" font-family="'MyriadPro-Bold'" font-size="24"> DO NOT LOOK</tspan><tspan x="12.588" y="57.6" fill="#FF0000" font-family="'MyriadPro-Bold'" font-size="24"> DIRECTLY IN  THE</tspan><tspan x="75.778" y="86.4" fill="#FF0000" font-family="'MyriadPro-Bold'" font-size="24"> HOLE</tspan><tspan x="7.308" y="115.2" fill="#FF0000" font-family="'MyriadPro-Bold'" font-size="24">DO NOT COVER OR</tspan><tspan x="9.156" y="144" fill="#FF0000" font-family="'MyriadPro-Bold'" font-size="24">PLACE OBJECTS IN</tspan><tspan x="54.526" y="172.8" fill="#FF0000" font-family="'MyriadPro-Bold'" font-size="24">THE HOLE</tspan></text>
	<text transform="matrix(-1 0 0 1 3171.7607 1718.7637)"><tspan x="0" y="0" fill="#FF0000" font-family="'MyriadPro-Bold'" font-size="48">LOAD HERE</tspan><tspan x="41.101" y="28.8" fill="#FF0000" font-family="'MyriadPro-Bold'" font-size="24"> PLEASE PLACE </tspan><tspan x="45.804" y="57.6" fill="#FF0000" font-family="'MyriadPro-Bold'" font-size="24">AMMUNITION </tspan><tspan x="15.036" y="86.4" fill="#FF0000" font-family="'MyriadPro-Bold'" font-size="24">IN THE DESIGNATED</tspan><tspan x="53.712" y="115.2" fill="#FF0000" font-family="'MyriadPro-Bold'" font-size="24">AREA ABOVE</tspan></text>
	<g>
		<path fill="none" d="M2342.154,2966.413c0-401.902,0-803.805,0-1205.707c412.891,0,825.781,0,1238.672,0
			c0,401.902,0,803.805,0,1205.707C3167.936,2966.413,2755.045,2966.413,2342.154,2966.413z M3552.945,2573.894
			c0.667-1.146,1.333-2.293,2-3.439c-0.283-0.173-0.567-0.348-0.852-0.521c-0.726,0.983-1.451,1.968-2.178,2.952
			c-0.673,0.99-1.346,1.982-2.021,2.973c-16.585,18.955-37.181,31.988-60.521,40.949c-25.061,9.622-51.138,14.527-77.843,15.861
			c-13.441,0.672-26.94,0.2-40.413,0.201c-87.548,0.008-175.098,0.006-262.646,0.006c-1.936,0-3.871,0-6.19,0
			c0-28.805,0-56.981,0-85.159c-0.265-0.093-0.529-0.187-0.793-0.279c-52.491,69.483-104.982,138.966-157.404,208.36
			c5.98,9.736,155.305,206.616,158.594,208.873c0-19.68,0-39.062,0-58.614c1.554-0.132,2.695-0.276,3.842-0.318
			c29.105-1.083,58.215-2.024,87.312-3.267c25.594-1.094,51.242-1.145,76.763-3.864c22.377-2.386,44.415-6.424,65.851-13.32
			c20.367-6.552,39.684-15.292,56.621-28.663c8.571-6.769,15.608-14.675,20.847-24.468c35.433-66.249,71.126-132.358,106.71-198.528
			c10.152-18.878,20.223-37.801,30.332-56.705C3551.619,2575.913,3552.283,2574.903,3552.945,2573.894z M2511.043,2800.535
			c-0.315-0.378-0.632-0.755-0.946-1.132c-0.17-1.645-0.141-3.34-0.538-4.926c-4.896-19.514-4.926-39.182-1.974-58.95
			c3.467-23.208,11.039-45.126,20.829-66.354c7.33-15.896,16.707-30.6,25.803-45.512c44.674-73.251,89.055-146.683,133.543-220.05
			c2.407-3.969,4.852-7.916,7.516-12.264c24.455,14.825,48.689,29.516,72.927,44.208c0.231-0.149,0.466-0.298,0.698-0.447
			c-32.214-80.939-64.428-161.877-96.818-243.263c-86.858,8.891-173.575,17.766-260.29,26.642c-0.056,0.304-0.112,0.608-0.17,0.912
			c16.564,10.054,33.127,20.106,49.882,30.275c-1.056,2.03-1.928,3.805-2.886,5.533c-22.251,40.125-44.592,80.201-66.738,120.384
			c-12.628,22.917-22.99,46.843-30.271,72.009c-7.025,24.284-11.303,48.938-8.464,74.36c1.245,11.148,4.048,21.692,9.891,31.576
			c49.04,82.991,97.867,166.109,146.759,249.187c0.838,1.551,1.677,3.103,2.515,4.653c0.654,1.096,1.308,2.191,1.961,3.289
			c0.264-0.137,0.53-0.271,0.795-0.408c-0.614-1.29-1.229-2.58-1.845-3.87C2512.494,2804.436,2511.768,2802.484,2511.043,2800.535
			L2511.043,2800.535z M3014.746,2195.298c-0.007,0.314-0.013,0.627-0.02,0.941c86.23,13.191,172.461,26.384,258.491,39.544
			c9.586-18.126,107.917-234.7,108.256-238.485c-17.143,9.231-34.2,18.415-51.389,27.67c-1.074-1.704-1.896-2.935-2.647-4.207
			c-14.447-24.488-28.81-49.027-43.353-73.458c-12.416-20.858-24.571-41.893-37.687-62.306
			c-16.082-25.027-35.12-47.688-58.033-66.872c-12.687-10.624-26.381-19.677-41.747-26.012c-9.308-3.838-18.867-5.854-29.086-5.827
			c-96.875,0.262-193.753,0.3-290.63,0.402c-1.834,0.002-3.669,0-5.502,0c0.594,0.886,1.207,0.891,1.808,0.979
			c0.819,0.122,1.633,0.299,2.444,0.467c19.182,3.959,36.515,12.082,52.44,23.348c23,16.27,41.306,37.015,57.199,60.055
			c9.558,13.856,17.18,28.806,25.13,43.607c42.074,78.352,84.424,156.556,126.67,234.816c0.839,1.553,1.571,3.164,2.43,4.905
			C3064.377,2168.463,3039.561,2181.88,3014.746,2195.298z M2588.297,2623.72c-19.112,25.955-35.726,52.889-47.82,82.514
			c-10.271,25.16-14.321,51.092-11.234,78.111c0.339,2.976,0.553,5.971,1.012,8.927c4.217,27.167,17.247,49.318,38.246,66.876
			c16.028,13.401,34.319,22.721,54.029,29.306c13.887,4.64,27.895,8.733,42.787,8.741c15.645,0.008,31.291,0.344,46.935,0.601
			c33.617,0.552,67.234,1.148,100.851,1.711c1.745,0.028,3.491-0.089,5.27-0.138c1.688-90.879,3.363-181.144,5.041-271.545
			C2744.705,2627.114,2666.67,2625.42,2588.297,2623.72z M3356.488,2603.563c0.711,0.159,1.188,0.318,1.674,0.369
			c20.74,2.169,41.537,2.561,62.342,1.486c15.801-0.813,31.474-2.838,46.855-6.676c13.756-3.432,27.136-7.914,39.178-15.623
			c6.435-4.119,12.781-8.393,18.986-12.846c17.653-12.67,30.401-29.136,37.87-49.604c4.663-12.781,6.854-26.035,7.264-39.574
			c0.577-19.111-2.121-37.853-7.521-56.146c-2.39-8.094-4.628-16.535-8.775-23.76c-25.661-44.708-51.846-89.117-77.869-133.617
			c-0.722-1.235-1.58-2.391-2.511-3.786c-78.445,45.566-156.592,90.958-234.822,136.399
			C3278.384,2468.179,3317.354,2535.729,3356.488,2603.563z M2588.113,2003.271c77.446,47.406,154.528,94.59,231.837,141.912
			c41.361-67.093,82.439-133.725,123.407-200.179c-10.076-23.583-21.398-45.943-35.419-66.883
			c-8.82-13.174-18.554-25.599-29.957-36.654c-7.671-7.438-15.895-14.179-25.362-19.251c-3.069-1.645-6.344-2.927-9.336-4.693
			c-31.669-18.686-64.611-21.058-98.61-7.389c-27.108,10.899-49.271,28.727-68.534,50.375c-2.307,2.592-4.347,5.477-6.164,8.438
			c-11.915,19.418-23.731,38.898-35.583,58.355C2619.082,1952.437,2603.769,1977.571,2588.113,2003.271z"/>
		<path fill-rule="evenodd" clip-rule="evenodd" fill="#FF0101" d="M2519.708,2769.13c1.746-3.268,3.487-6.538,5.243-9.802
			c6.152-11.438,12.322-22.868,18.446-34.321c0.906-1.693,2.124-3.059,3.605-4.229c2.928-2.313,6.267-3.822,9.788-4.956
			c3.705-1.192,7.516-1.891,11.383-2.303c4.413-0.469,8.847-0.479,13.271-0.667c5.031-0.215,10.062-0.377,15.095-0.565
			c0.197-0.007,0.396-0.032,0.665-0.055c0-3.381,0-6.731,0-10.133c0.567,0.391,26.382,34.426,27.417,36.109
			c-9.063,11.996-18.138,24.009-27.212,36.021c-0.046-0.017-0.093-0.032-0.138-0.05c0-4.87,0-9.742,0-14.721
			c-0.401,0-0.734,0-1.07,0c-15.135,0-30.27,0-45.404,0c-2.329,0-4.662-0.08-6.986,0.036c-4.617,0.229-9.125,1.077-13.457,2.741
			c-4.035,1.549-7.596,3.803-10.463,7.079C2519.83,2769.253,2519.768,2769.192,2519.708,2769.13z"/>
		<path fill-rule="evenodd" clip-rule="evenodd" fill="#FF0101" d="M2699.699,2730.095c8.451,14.363,16.893,28.731,25.37,43.078
			c1.011,1.709,1.494,3.532,1.71,5.46c0.491,4.395-0.25,8.657-1.464,12.854c-1.258,4.351-3.05,8.487-5.231,12.449
			c-3.83,6.947-7.691,13.875-11.539,20.811c-0.165,0.299-0.316,0.606-0.498,0.957c2.897,1.757,5.76,3.495,8.623,5.233
			c-0.01,0.053-0.02,0.106-0.029,0.157c-14.991,1.535-29.981,3.068-44.998,4.607c-5.601-14.072-11.168-28.062-16.736-42.056
			c0.039-0.026,0.08-0.051,0.12-0.078c4.189,2.541,8.38,5.081,12.606,7.644c0.461-0.752,0.883-1.434,1.3-2.12
			c7.691-12.683,15.363-25.378,23.087-38.042c1.572-2.577,3.192-5.119,4.461-7.867c1.691-3.671,3.001-7.459,3.6-11.471
			c0.512-3.418,0.506-6.817-0.34-10.191c-0.07-0.273-0.063-0.568-0.094-0.852c-0.055-0.064-0.109-0.131-0.163-0.195l0,0
			C2699.555,2730.348,2699.626,2730.221,2699.699,2730.095z"/>
		<path fill-rule="evenodd" clip-rule="evenodd" fill="#FF0101" d="M2612.404,2835.104c-4.289,2.319-8.579,4.639-12.926,6.989
			c0.147,0.3,0.274,0.579,0.42,0.848c7.303,13.528,14.624,27.048,21.897,40.594c1.374,2.559,2.692,5.144,4.345,7.538
			c2.748,3.983,5.912,7.57,9.889,10.383c2.753,1.947,5.75,3.352,9.065,4.035c0.141,0.03,0.281,0.061,0.422,0.081
			c0.104,0.015,0.21,0.017,0.313,0.169c-0.318,0-0.635,0-0.952,0c-16.747,0.018-33.495,0.025-50.242,0.07
			c-1.766,0.004-3.419-0.345-5.028-1.007c-2.656-1.096-5.023-2.659-7.218-4.497c-3.961-3.316-7.251-7.234-10.031-11.561
			c-2.269-3.529-4.368-7.166-6.515-10.771c-2.515-4.223-4.998-8.465-7.495-12.697c-0.13-0.221-0.271-0.435-0.458-0.729
			c-2.972,1.6-5.921,3.188-8.884,4.783c0.059-0.654,17.058-38.094,18.714-41.227c14.873,2.273,29.781,4.555,44.688,6.836
			C2612.407,2834.995,2612.405,2835.05,2612.404,2835.104z"/>
		<path fill-rule="evenodd" clip-rule="evenodd" fill="#FF0101" d="M2686.127,2761.041c-13.548-0.296-27.039-0.587-40.645-0.883
			c0.289-15.628,0.578-31.233,0.87-46.943c0.308-0.009,0.609-0.028,0.911-0.022c5.812,0.098,11.623,0.199,17.436,0.295
			c2.704,0.043,5.409,0.101,8.113,0.104c2.575,0.001,4.996,0.709,7.396,1.512c3.408,1.139,6.569,2.75,9.34,5.064
			c3.631,3.036,5.885,6.867,6.612,11.562c0.08,0.511,0.117,1.028,0.176,1.543c0.533,4.67-0.167,9.154-1.942,13.504
			C2692.304,2751.897,2689.432,2756.553,2686.127,2761.041z"/>
		<path fill-rule="evenodd" clip-rule="evenodd" fill="#FF0101" d="M2553.326,2764.524c6.766,11.728,13.501,23.406,20.283,35.159
			c-13.523,7.856-27.033,15.702-40.596,23.581c-0.16-0.242-0.308-0.441-0.434-0.654c-4.498-7.694-9.025-15.371-13.461-23.1
			c-0.717-1.25-1.104-2.708-1.517-4.107c-0.934-3.163-1.401-6.404-1.301-9.706c0.071-2.341,0.45-4.634,1.256-6.841
			c1.291-3.539,3.495-6.387,6.547-8.577c1.072-0.769,2.17-1.509,3.281-2.22c2.082-1.332,4.396-2.107,6.773-2.701
			c2.659-0.663,5.368-1.013,8.101-1.154c3.597-0.184,7.191-0.118,10.777,0.258
			C2553.121,2764.47,2553.203,2764.497,2553.326,2764.524z"/>
		<path fill-rule="evenodd" clip-rule="evenodd" fill="#FF0101" d="M2686.16,2868.3c-2.708,4.443-5.355,8.789-8.002,13.135
			c-2.049,3.363-4.092,6.73-6.15,10.088c-0.314,0.512-0.667,1.01-1.065,1.46c-3.331,3.741-7.163,6.822-11.849,8.708
			c-5.877,2.362-11.573,1.953-17.047-1.277c-0.518-0.307-1.083-0.528-1.614-0.812c-1.637-0.878-3.058-2.044-4.385-3.329
			c-1.971-1.911-3.654-4.059-5.179-6.337c-2.424-3.62-4.381-7.485-6.122-11.562c7.081-11.488,14.183-23.008,21.333-34.606
			C2659.445,2851.948,2672.771,2860.105,2686.16,2868.3z"/>
		<path fill-rule="evenodd" clip-rule="evenodd" fill="#424242" d="M2509.794,2802.723c0.416-0.729,0.832-1.459,1.249-2.188
			c0.725,1.949,1.451,3.9,2.177,5.852c-0.304,0.331-0.606,0.659-0.911,0.989C2511.471,2805.825,2510.632,2804.273,2509.794,2802.723
			z"/>
		<path fill-rule="evenodd" clip-rule="evenodd" fill="#4C4444" d="M3550.957,2576.923c-0.354-0.354-0.708-0.709-1.062-1.064
			c0.675-0.99,1.348-1.982,2.021-2.973c0.344,0.335,0.688,0.67,1.029,1.008C3552.283,2574.903,3551.619,2575.913,3550.957,2576.923z
			"/>
		<path fill-rule="evenodd" clip-rule="evenodd" fill="#838484" d="M2512.309,2807.376c0.305-0.33,0.607-0.658,0.911-0.989
			c0.615,1.29,1.23,2.58,1.845,3.87c-0.265,0.137-0.531,0.271-0.795,0.408C2513.616,2809.567,2512.963,2808.472,2512.309,2807.376z"
			/>
		<path fill-rule="evenodd" clip-rule="evenodd" fill="#9D9898" d="M3552.945,2573.894c-0.342-0.338-0.686-0.673-1.029-1.008
			c0.727-0.984,1.452-1.969,2.178-2.952c0.284,0.173,0.568,0.348,0.852,0.521
			C3554.278,2571.601,3553.612,2572.747,3552.945,2573.894z"/>
		<path fill-rule="evenodd" clip-rule="evenodd" fill="#424242" d="M2511.043,2800.535c-0.315-0.378-0.632-0.755-0.946-1.132
			C2510.411,2799.78,2510.728,2800.157,2511.043,2800.535z"/>
	</g>
	<g>
		<path fill="none" d="M3011.459,1503.94c27.785,0,55.571,0,83.357,0c-0.776,0.57-1.619,1.07-2.316,1.725
			c-1.487,1.396-2.899,2.87-4.342,4.312c-8.208,8.206-16.416,16.413-24.623,24.62c-1.115,1.116-1.914,2.365-1.271,4.008
			c0.669,1.709,2.165,1.843,3.729,1.839c5.264-0.014,10.529-0.007,15.793-0.002c0.478,0,0.955,0.039,1.399,0.059
			c0.077,0.279,0.145,0.407,0.145,0.535c-0.01,8.441,0.188,16.889-0.11,25.32c-0.224,6.312-3.102,11.524-8.045,15.576
			c-4.447,3.645-9.53,6.202-14.72,8.811c0.268,0.16,0.444,0.29,0.64,0.377c8.35,3.731,16.684,7.494,24.555,12.196
			c0.323,0.193,1.078,0.091,1.378-0.168c3.014-2.594,6.044-5.177,8.934-7.905c4.734-4.469,7.753-10.093,9.448-16.243
			c1.23-4.461,1.867-9.175,2.079-13.808c0.351-7.653,0.145-15.332,0.173-23c0.002-0.53,0-1.06,0-1.751c0.647,0,1.133,0,1.619,0
			c5.354,0,10.71,0.008,16.064-0.005c1.99-0.005,3.154-0.811,3.525-2.338c0.361-1.489-0.408-2.502-1.377-3.469
			c-8.21-8.201-16.4-16.421-24.624-24.608c-2.088-2.078-4.275-4.056-6.417-6.08c13.885,0,27.771,0,41.667,0
			c0,56.843,0,113.687,0,170.529c-10.806,0-21.605,0-32.405,0c1.132-0.832,1.972-1.81,1.951-3.34
			c-0.12-8.8,0.037-17.613-0.408-26.396c-0.355-7.03-2.839-13.584-6.729-19.442c-4.059-6.111-9.542-10.89-15.567-14.997
			c-9.297-6.337-19.675-10.567-29.868-15.171c-6.391-2.887-12.68-6.012-18.904-9.244c-3.718-1.93-6.941-4.65-9.588-7.91
			c-3.133-3.86-4.2-8.466-4.206-13.356c-0.01-7.625-0.006-15.251-0.002-22.876c0.001-0.393,0.055-0.786,0.093-1.296
			c0.594,0,1.084,0,1.574,0c5.174,0,10.349,0.001,15.523-0.003c0.498,0,1.004,0.007,1.492-0.074
			c2.455-0.406,3.449-3.048,1.851-4.959c-0.608-0.728-1.317-1.374-1.99-2.047c-7.854-7.853-15.708-15.705-23.566-23.554
			C3015.405,1507.843,3013.429,1505.895,3011.459,1503.94z"/>
		<path fill-rule="evenodd" clip-rule="evenodd" fill="none" d="M3085.282,1674.47c-21.521,0-43.041,0-64.562,0
			c1.662-1.407,1.701-3.289,1.689-5.271c-0.039-6.762-0.112-13.528,0.068-20.286c0.14-5.202,2.097-9.792,5.69-13.61
			c3.462-3.679,7.721-6.243,12.147-8.561c1.606-0.842,3.218-1.675,5.046-2.625c-3.265-1.453-6.256-2.636-9.11-4.087
			c-5.321-2.706-10.572-5.55-15.827-8.386c-0.697-0.376-1.208-0.456-1.799,0.085c-3.135,2.868-6.503,5.521-9.372,8.633
			c-7.373,7.999-10.924,17.627-11.117,28.459c-0.131,7.305-0.027,14.614-0.075,21.921c-0.011,1.64,0.597,2.856,1.956,3.727
			c-10.8,0-21.6,0-32.405,0c0-56.843,0-113.687,0-170.529c13.987,0,27.964,0,41.939,0c-0.745,0.541-1.57,1-2.222,1.637
			c-3.015,2.949-5.98,5.947-8.964,8.929c-6.702,6.699-13.405,13.397-20.104,20.1c-1.113,1.114-1.917,2.367-1.262,4.01
			c0.678,1.702,2.174,1.834,3.736,1.83c5.312-0.014,10.624,0.032,15.935-0.031c1.165-0.014,1.437,0.353,1.43,1.459
			c-0.046,6.945,0.018,13.892-0.035,20.837c-0.046,5.848,0.551,11.575,2.476,17.144c1.765,5.103,4.113,9.866,7.756,13.889
			c5.361,5.921,11.475,10.978,18.566,14.654c7.23,3.748,14.598,7.246,22.012,10.619c7.295,3.318,14.741,6.314,21.569,10.573
			c3.518,2.194,6.743,4.759,9.217,8.129c2.829,3.857,3.683,8.307,3.681,12.986c-0.004,6.492,0.039,12.984-0.025,19.476
			C3083.298,1671.988,3083.697,1673.464,3085.282,1674.47z"/>
		<path fill-rule="evenodd" clip-rule="evenodd" fill="#FF0000" d="M3085.282,1674.47c-1.585-1.005-1.984-2.482-1.966-4.29
			c0.064-6.491,0.021-12.983,0.025-19.476c0.002-4.679-0.852-9.129-3.681-12.986c-2.474-3.371-5.699-5.936-9.217-8.129
			c-6.828-4.259-14.274-7.254-21.569-10.573c-7.414-3.373-14.781-6.871-22.012-10.619c-7.092-3.676-13.205-8.732-18.566-14.654
			c-3.643-4.023-5.991-8.787-7.756-13.889c-1.925-5.568-2.521-11.296-2.476-17.144c0.053-6.946-0.011-13.892,0.035-20.837
			c0.007-1.107-0.265-1.473-1.43-1.459c-5.311,0.063-10.622,0.018-15.935,0.031c-1.562,0.004-3.059-0.128-3.736-1.83
			c-0.655-1.644,0.148-2.896,1.262-4.01c6.699-6.702,13.402-13.4,20.104-20.1c2.983-2.981,5.949-5.979,8.964-8.929
			c0.651-0.637,1.477-1.096,2.222-1.637c0.636,0,1.271,0,1.907,0c1.97,1.954,3.946,3.902,5.909,5.863
			c7.858,7.849,15.712,15.701,23.566,23.554c0.673,0.673,1.382,1.319,1.99,2.047c1.599,1.911,0.604,4.553-1.851,4.959
			c-0.488,0.081-0.994,0.073-1.492,0.074c-5.175,0.005-10.35,0.003-15.523,0.003c-0.49,0-0.98,0-1.574,0
			c-0.038,0.51-0.092,0.903-0.093,1.296c-0.004,7.625-0.008,15.251,0.002,22.876c0.006,4.89,1.073,9.496,4.206,13.356
			c2.646,3.26,5.87,5.98,9.588,7.91c6.225,3.231,12.514,6.357,18.904,9.244c10.193,4.604,20.571,8.834,29.868,15.171
			c6.025,4.107,11.509,8.886,15.567,14.997c3.89,5.858,6.373,12.413,6.729,19.442c0.445,8.783,0.288,17.596,0.408,26.396
			c0.021,1.53-0.819,2.508-1.951,3.34C3098.902,1674.47,3092.093,1674.47,3085.282,1674.47z"/>
		<path fill-rule="evenodd" clip-rule="evenodd" fill="#FF0000" d="M3096.451,1503.94c2.142,2.024,4.329,4.002,6.417,6.08
			c8.224,8.187,16.414,16.407,24.624,24.608c0.969,0.967,1.738,1.98,1.377,3.469c-0.371,1.528-1.535,2.333-3.525,2.338
			c-5.354,0.013-10.71,0.005-16.064,0.005c-0.486,0-0.972,0-1.619,0c0,0.691,0.002,1.221,0,1.751
			c-0.028,7.668,0.178,15.347-0.173,23c-0.212,4.633-0.849,9.347-2.079,13.808c-1.695,6.15-4.714,11.774-9.448,16.243
			c-2.89,2.729-5.92,5.311-8.934,7.905c-0.3,0.259-1.055,0.361-1.378,0.168c-7.871-4.702-16.205-8.465-24.555-12.196
			c-0.195-0.087-0.372-0.218-0.64-0.377c5.189-2.608,10.272-5.166,14.72-8.811c4.943-4.051,7.821-9.264,8.045-15.576
			c0.299-8.431,0.101-16.879,0.11-25.32c0-0.128-0.067-0.256-0.145-0.535c-0.444-0.02-0.922-0.058-1.399-0.059
			c-5.264-0.004-10.529-0.011-15.793,0.002c-1.563,0.004-3.06-0.13-3.729-1.839c-0.643-1.644,0.156-2.893,1.271-4.008
			c8.207-8.208,16.415-16.414,24.623-24.62c1.442-1.442,2.854-2.917,4.342-4.312c0.697-0.654,1.54-1.154,2.316-1.725
			C3095.361,1503.94,3095.906,1503.94,3096.451,1503.94z"/>
		<path fill-rule="evenodd" clip-rule="evenodd" fill="#FF0000" d="M3000.018,1674.47c-1.359-0.871-1.967-2.087-1.956-3.727
			c0.048-7.307-0.056-14.616,0.075-21.921c0.193-10.833,3.744-20.46,11.117-28.459c2.869-3.112,6.237-5.765,9.372-8.633
			c0.591-0.541,1.102-0.461,1.799-0.085c5.255,2.835,10.506,5.68,15.827,8.386c2.854,1.451,5.846,2.634,9.11,4.087
			c-1.828,0.95-3.439,1.783-5.046,2.625c-4.427,2.318-8.686,4.882-12.147,8.561c-3.594,3.818-5.551,8.408-5.69,13.61
			c-0.181,6.758-0.107,13.524-0.068,20.286c0.012,1.981-0.027,3.864-1.689,5.271
			C3013.819,1674.47,3006.919,1674.47,3000.018,1674.47z"/>
	</g>
	<text transform="matrix(1 0 0 -1 2503.6299 2677.4971)" fill="#FF0000" font-family="'MyriadPro-Bold'" font-size="33.307">PLEASE RECYCLE</text>
	<g transform="translate(2191.0057385, 22.5000185) ">
		<polyline fill="none" stroke="#000000" stroke-width="0.1" points="-310.288,2316.09 -335.942,2316.09 -335.942,2328.846 
			-396.036,2328.846 -396.036,2316.09 -456.13,2316.09 -456.13,2245.934 -443.375,2245.934 -443.375,2208.869 -384.981,2208.869 
			-384.981,2212.412 -377.894,2212.412 -377.894,2208.869 -370.808,2208.869 -370.808,2200.082 -377.894,2200.082 
			-377.894,2196.539 -384.981,2196.539 -384.981,2200.082 -443.375,2200.082 -443.375,2163.02 -456.13,2163.02 -456.13,2103.492 
			-443.375,2103.492 -443.375,2043.965 -456.13,2043.965 -456.13,1984.437 -443.375,1984.437 -443.375,1924.909 -456.13,1924.909 
			-456.13,1865.381 -443.375,1865.381 -443.375,1805.854 -456.13,1805.854 -456.13,1746.327 -443.375,1746.327 -443.375,1686.798 
			-456.13,1686.798 -456.13,1627.271 -443.375,1627.271 -443.375,1590.208 -384.981,1590.208 -384.981,1593.751 -377.894,1593.751 
			-377.894,1590.208 -370.808,1590.208 -370.808,1581.42 -377.894,1581.42 -377.894,1577.877 -384.981,1577.877 -384.981,1581.42 
			-443.375,1581.42 -443.375,1544.358 -456.13,1544.358 -456.13,1474.201 -396.036,1474.201 -396.036,1461.445 -335.942,1461.445 
			-335.942,1474.201 -310.288,1474.201 -310.288,1532.594 -313.831,1532.594 -313.831,1539.681 -310.288,1539.681 
			-310.288,1546.767 -301.501,1546.767 -301.501,1539.681 -297.958,1539.681 -297.958,1532.594 -301.501,1532.594 
			-301.501,1474.201 -275.847,1474.201 -275.847,1461.445 -215.753,1461.445 -215.753,1474.201 -155.657,1474.201 
			-155.657,1544.358 -168.413,1544.358 -168.413,1581.42 -226.808,1581.42 -226.808,1577.877 -233.894,1577.877 -233.894,1581.42 
			-240.981,1581.42 -240.981,1590.208 -233.894,1590.208 -233.894,1593.751 -226.808,1593.751 -226.808,1590.208 -168.413,1590.208 
			-168.413,1627.271 -155.657,1627.271 -155.657,1686.798 -168.413,1686.798 -168.413,1746.327 -155.657,1746.327 
			-155.657,1805.854 -168.413,1805.854 -168.413,1865.381 -155.657,1865.381 -155.657,1924.909 -168.413,1924.909 
			-168.413,1984.437 -155.657,1984.437 -155.657,2043.965 -168.413,2043.965 -168.413,2103.492 -155.657,2103.492 -155.657,2163.02 
			-168.413,2163.02 -168.413,2200.082 -226.808,2200.082 -226.808,2196.539 -233.894,2196.539 -233.894,2200.082 -240.981,2200.082 
			-240.981,2208.869 -233.894,2208.869 -233.894,2212.412 -226.808,2212.412 -226.808,2208.869 -168.413,2208.869 
			-168.413,2245.934 -155.657,2245.934 -155.657,2316.09 -215.753,2316.09 -215.753,2328.846 -275.847,2328.846 -275.847,2316.09 
			-301.501,2316.09 		"/>
		<path fill="none" stroke="#000000" stroke-width="0.1" d="M-310.288,2316.09"/>
		<path fill="none" stroke="#000000" stroke-width="0.1" d="M-301.501,2316.09"/>
	</g>
	<circle fill="none" stroke="#000000" stroke-width="0.1" cx="1885.093" cy="2212.507" r="42.52"/>
	<circle fill="none" stroke="#000000" stroke-width="0.1" cx="1931.868" cy="2260.507" r="11.338"/>
	<circle fill="none" stroke="#000000" stroke-width="0.1" cx="1931.868" cy="2169.507" r="11.338"/>
	<circle fill="none" stroke="#000000" stroke-width="0.1" cx="1838.355" cy="2169.507" r="11.339"/>
	<circle fill="none" stroke="#000000" stroke-width="0.1" cx="1838.355" cy="2260.507" r="11.339"/>
	<line fill="none" stroke="#000000" stroke-width="0.1" x1="2015.999" y1="1930.635" x2="2015.999" y2="1839.736"/>
	<line fill="none" stroke="#000000" stroke-width="0.1" x1="1964.999" y1="1839.736" x2="1964.999" y2="1930.635"/>
	<path fill="none" stroke="#000000" stroke-width="0.1" d="M1965.167,1839.735c0-13.991,11.342-25.333,25.332-25.333
		c13.992,0,25.334,11.342,25.334,25.333"/>
	<path fill="none" stroke="#000000" stroke-width="0.1" d="M1964.999,1930.635c0,14.083,11.418,25.5,25.5,25.5
		c14.084,0,25.5-11.417,25.5-25.5"/>
	<path fill="none" stroke="#000000" stroke-width="0.1" d="M1774,1721.966v370.87c0,1.902-1.791,3.445-4,3.445s-4-1.543-4-3.445
		v-370.87c0-1.903,1.791-3.445,4-3.445S1774,1720.063,1774,1721.966z"/>
	<path fill="none" stroke="#000000" stroke-width="0.1" d="M1790.125,1721.966v370.87c0,1.902-1.791,3.445-4,3.445s-4-1.543-4-3.445
		v-370.87c0-1.903,1.791-3.445,4-3.445S1790.125,1720.063,1790.125,1721.966z"/>
	<path fill="none" stroke="#000000" stroke-width="0.1" d="M1808.125,1721.966v370.87c0,1.902-1.791,3.445-4,3.445s-4-1.543-4-3.445
		v-370.87c0-1.903,1.791-3.445,4-3.445S1808.125,1720.063,1808.125,1721.966z"/>
	<path fill="none" stroke="#000000" stroke-width="0.1" d="M1823.64,1721.966v370.87c0,1.902-1.791,3.445-4,3.445s-4-1.543-4-3.445
		v-370.87c0-1.903,1.791-3.445,4-3.445S1823.64,1720.063,1823.64,1721.966z"/>
	<line fill="none" stroke="#000000" stroke-width="0.1" x1="1880.718" y1="2338.59" x2="1889.505" y2="2338.59"/>
	<text transform="matrix(0 1 1 0 1906.6099 1718.7637)"><tspan x="0" y="0" fill="#FF0000" font-family="'MyriadPro-Bold'" font-size="40">INPUT VALVE</tspan><tspan x="0" y="28.8" fill="#FF0000" font-family="'MyriadPro-Bold'" font-size="24">Release Valve Silencer</tspan></text>
	<g>
		<path fill="none" d="M1887.45,1686.256c0-33.374,0-66.748,0-100.121c37.848,0,75.695,0,113.543,0c0,33.435,0,66.868,0,100.303
			c-0.219-0.509-0.402-1.038-0.662-1.525c-1.008-1.886-2.008-3.777-3.066-5.634c-3.135-5.504-6.291-10.996-9.447-16.488
			c-2.824-4.914-5.664-9.82-8.488-14.733c-3.473-6.038-6.932-12.083-10.404-18.12c-4.525-7.869-9.049-15.739-13.588-23.6
			c-2.064-3.575-4.1-7.172-6.277-10.676c-1.211-1.946-2.914-3.341-5.451-2.996c-1.959,0.267-3.27,1.545-4.246,3.107
			c-1.76,2.81-3.414,5.687-5.076,8.557c-2.824,4.879-5.617,9.775-8.426,14.663c-3.2,5.567-6.398,11.136-9.605,16.699
			c-2.862,4.964-5.738,9.919-8.602,14.882c-2.107,3.657-4.2,7.322-6.304,10.98c-1.774,3.086-3.555,6.169-5.333,9.253
			c-2.197,3.814-4.416,7.615-6.582,11.448C1888.704,1683.549,1888.108,1684.92,1887.45,1686.256z"/>
		<path fill-rule="evenodd" clip-rule="evenodd" fill="#FF0000" d="M1828.065,1681.464c0.658-1.336,1.254-2.707,1.985-4.001
			c2.165-3.832,4.384-7.634,6.583-11.448c1.777-3.083,3.558-6.166,5.332-9.252c2.104-3.659,4.196-7.324,6.304-10.98
			c2.862-4.964,5.739-9.918,8.601-14.883c3.207-5.563,6.406-11.132,9.605-16.699c2.809-4.888,5.603-9.784,8.427-14.663
			c1.661-2.871,3.316-5.747,5.075-8.557c0.977-1.562,2.287-2.841,4.247-3.107c2.537-0.345,4.241,1.049,5.451,2.996
			c2.179,3.505,4.212,7.102,6.276,10.676c4.54,7.861,9.064,15.731,13.59,23.601c3.471,6.038,6.931,12.082,10.402,18.12
			c2.824,4.914,5.664,9.82,8.489,14.734c3.155,5.492,6.312,10.983,9.446,16.487c1.059,1.858,2.061,3.748,3.066,5.635
			c0.26,0.487,0.443,1.015,0.662,1.524c0,0.967,0,1.935,0,2.902c-0.146,0.205-0.277,0.424-0.443,0.611
			c-0.67,0.752-1.244,1.648-2.053,2.206c-1.469,1.018-3.24,1.03-4.971,1.03c-32.852,0-65.704,0-98.556-0.004
			c-0.724-0.001-1.466,0.028-2.169-0.109c-0.908-0.177-1.817-0.431-2.668-0.791c-1.452-0.615-2.091-1.956-2.684-3.305
			C1828.065,1683.278,1828.065,1682.371,1828.065,1681.464z M1884.853,1680.85c13.875,0,27.75,0.001,41.625-0.003
			c0.543,0,1.09-0.022,1.627-0.092c2.078-0.271,3.055-1.947,2.281-3.903c-0.133-0.335-0.309-0.656-0.488-0.969
			c-2.706-4.707-5.419-9.408-8.123-14.115c-2.824-4.917-5.641-9.838-8.463-14.755c-3.243-5.65-6.486-11.301-9.734-16.949
			c-2.135-3.711-4.283-7.415-6.416-11.126c-2.163-3.764-4.309-7.538-6.479-11.298c-1.144-1.984-2.244-4.001-3.51-5.906
			c-1.241-1.868-3.196-1.843-4.576-0.076c-0.258,0.331-0.484,0.691-0.695,1.055c-1.073,1.852-2.133,3.71-3.202,5.563
			c-3.179,5.511-6.365,11.018-9.54,16.532c-3.146,5.463-6.279,10.933-9.423,16.397c-3.249,5.646-6.501,11.29-9.759,16.931
			c-2.518,4.362-5.051,8.715-7.566,13.078c-1.011,1.751-2.035,3.495-2.973,5.284c-0.836,1.593-0.541,3.135,0.814,3.779
			c0.834,0.396,1.854,0.55,2.793,0.552C1856.98,1680.86,1870.917,1680.85,1884.853,1680.85z"/>
		<path fill-rule="evenodd" clip-rule="evenodd" fill="none" d="M1887.45,1688.977c0.592,1.349,1.23,2.69,2.684,3.305
			c0.85,0.36,1.76,0.614,2.668,0.792c0.703,0.138,1.444,0.108,2.168,0.108c32.852,0.005,65.703,0.004,98.555,0.004
			c1.732,0,3.502-0.013,4.973-1.03c0.807-0.559,1.381-1.455,2.053-2.207c0.166-0.187,0.295-0.406,0.443-0.611
			c0,3.447,0,6.893,0,10.339c-37.848,0-75.695,0-113.543,0C1887.45,1696.111,1887.45,1692.544,1887.45,1688.977z"/>
		<path fill-rule="evenodd" clip-rule="evenodd" fill="none" d="M1944.237,1685.642c-13.938,0-27.873,0.01-41.808-0.023
			c-0.938-0.002-1.959-0.156-2.793-0.552c-1.356-0.644-1.649-2.186-0.814-3.779c0.938-1.789,1.962-3.533,2.972-5.284
			c2.517-4.363,5.05-8.717,7.568-13.079c3.257-5.641,6.51-11.285,9.758-16.931c3.145-5.464,6.277-10.934,9.424-16.397
			c3.174-5.514,6.359-11.021,9.539-16.532c1.068-1.853,2.129-3.711,3.201-5.562c0.211-0.364,0.438-0.724,0.697-1.055
			c1.379-1.767,3.334-1.792,4.576,0.076c1.266,1.905,2.365,3.922,3.51,5.906c2.17,3.76,4.314,7.535,6.479,11.298
			c2.133,3.711,4.279,7.416,6.414,11.126c3.25,5.647,6.492,11.298,9.736,16.948c2.822,4.917,5.639,9.839,8.463,14.755
			c2.703,4.707,5.416,9.409,8.121,14.115c0.18,0.313,0.357,0.633,0.488,0.969c0.773,1.957-0.201,3.632-2.279,3.904
			c-0.537,0.07-1.084,0.091-1.627,0.091C1971.987,1685.643,1958.112,1685.641,1944.237,1685.642z M1944.247,1652.901
			c-0.043,0.458-0.057,0.728-0.098,0.994c-0.721,4.686-1.447,9.372-2.166,14.058c-0.205,1.326-0.197,1.328-1.598,1.328
			c-1.252,0-2.504,0-3.861,0c2.031,4.602,3.98,9.022,5.994,13.585c3.221-4.57,6.346-9.004,9.58-13.593c-2.225,0-4.236,0-6.418,0
			c2.756-9.111,5.475-18.102,8.271-27.35c-5.391,3.223-10.512,6.285-15.633,9.346c-0.055-0.052-0.109-0.104-0.164-0.155
			c3.576-10.079,7.152-20.159,10.754-30.309c-3.01-0.263-5.918-0.516-8.848-0.771c-3.973,13.724-7.922,27.369-11.944,41.267
			C1933.622,1658.433,1938.856,1655.708,1944.247,1652.901z"/>
		<path fill-rule="evenodd" clip-rule="evenodd" fill="#FF0000" d="M1884.863,1648.109c-5.391,2.807-10.624,5.532-16.13,8.399
			c4.022-13.898,7.972-27.543,11.943-41.267c2.932,0.255,5.838,0.509,8.85,0.771c-3.602,10.149-7.178,20.229-10.756,30.309
			c0.055,0.052,0.109,0.104,0.164,0.156c5.122-3.062,10.244-6.125,15.634-9.347c-2.797,9.247-5.517,18.238-8.272,27.35
			c2.183,0,4.195,0,6.419,0c-3.233,4.588-6.36,9.023-9.581,13.593c-2.013-4.562-3.963-8.983-5.993-13.585c1.356,0,2.608,0,3.861,0
			c1.4,0,1.393-0.001,1.597-1.327c0.721-4.687,1.447-9.372,2.167-14.058C1884.808,1648.837,1884.819,1648.567,1884.863,1648.109z"/>
	</g>
	<text transform="matrix(0 -1 -1 0 1842.5732 2099.5312)" fill="#FF0000" font-family="'MyriadPro-Bold'" font-size="40">INPUT POWER 24VDC</text>
	<rect x="1967" y="1651.476" fill="none" stroke="#000000" stroke-width="0.1" width="31.182" height="31.181"/>
	<text transform="matrix(-1 0 0 1 1998.1797 1645.3828)" fill="#FF0000" font-family="'MyriadPro-Bold'" font-size="14">DIAG</text>
	<circle fill="none" stroke="#000000" stroke-width="0.1" cx="1918.663" cy="2071.759" r="24.095"/>
	<text transform="matrix(-1 0 0 1 1965 2117.8228)" fill="#FF0000" font-family="'MyriadPro-Bold'" font-size="14">MANUAL OVERRIDE</text>
	<text transform="matrix(-1 0 0 1 1965 2016.9058)"><tspan x="0" y="0" fill="#FF0000" font-family="'MyriadPro-Bold'" font-size="14">CHARGE PORT</tspan><tspan x="0" y="14.4" fill="#FF0000" font-family="'MyriadPro-Bold'" font-size="12">26.4 ~ 27.4 VDC</tspan></text>
	<text transform="matrix(-1 0 0 1 2001.832 1740.061)" fill="#FF0000" font-family="'MyriadPro-Bold'" font-size="14">POWER</text>
	<rect x="1952.581" y="1748.612" fill="none" stroke="#000000" stroke-width="0.1" width="53.858" height="19.843"/>
	<circle fill="none" stroke="#000000" stroke-width="0.1" cx="1900.59" cy="1988.015" r="8.504"/>
	<circle fill="none" stroke="#000000" stroke-width="0.1" cx="1936.737" cy="1988.015" r="8.504"/>
	<rect x="2035.349" y="1424.922" fill="#FFFFFF" stroke="#231F20" stroke-miterlimit="10" width="867.401" height="22.012"/>
	<rect x="2902.75" y="1424.922" fill="#FFFFFF" stroke="#231F20" stroke-miterlimit="10" width="299.458" height="22.134"/>
	<rect x="3819.951" y="1496.213" fill="#FFFFFF" stroke="#231F20" stroke-miterlimit="10" width="29.59" height="441.644"/>
	<rect x="3909.961" y="2086.945" fill="#FFFFFF" stroke="#231F20" stroke-miterlimit="10" width="18.039" height="264.22"/>
	<rect x="3245.823" y="1424.922" fill="#FFFFFF" stroke="#231F20" stroke-miterlimit="10" width="304.072" height="22.134"/>
	<rect x="1734.875" y="1424.922" fill="#FFFFFF" stroke="#231F20" stroke-miterlimit="10" width="300.473" height="22.134"/>
	<rect x="2645.078" y="3519.039" fill="#FFFFFF" stroke="#231F20" stroke-miterlimit="10" width="23.654" height="300.472"/>
	<rect x="2939.601" y="2215.007" fill="#FFFFFF" stroke="#231F20" stroke-miterlimit="10" width="226.476" height="16.363"/>
	<rect x="3354.146" y="2207.071" fill="#FFFFFF" stroke="#231F20" stroke-miterlimit="10" width="83.828" height="10.473"/>
	<rect x="1842.573" y="2208" fill="#FFFFFF" stroke="#231F20" stroke-miterlimit="10" width="85.039" height="9.014"/>
	<rect x="3667.673" y="2207.071" fill="#FFFFFF" stroke="#231F20" stroke-miterlimit="10" width="87.874" height="12.872"/>
	<text transform="matrix(1 0 0 1 3941 2222.5786)" font-family="'MyriadPro-Regular'" font-size="12">95mm</text>
	<text transform="matrix(1 0 0 1 3698 2202.6216)" font-family="'MyriadPro-Regular'" font-size="12">30mm</text>
	<text transform="matrix(1 0 0 1 3380 2202.6216)" font-family="'MyriadPro-Regular'" font-size="12">30mm</text>
	<text transform="matrix(1 0 0 1 3035 2207.0713)" font-family="'MyriadPro-Regular'" font-size="12">80mm</text>
	<text transform="matrix(1 0 0 1 2686.1602 3682.6895)" font-family="'MyriadPro-Regular'" font-size="12">105mm</text>
	<rect x="2035.349" y="3828" fill="none" stroke="#231F20" stroke-miterlimit="10" width="582.52" height="15"/>
	<text transform="matrix(1 0 0 1 2310.1602 3862.6895)" font-family="'MyriadPro-Regular'" font-size="12">205mm</text>
	<text transform="matrix(1 0 0 1 2450.228 1408.6743)" font-family="'MyriadPro-Regular'" font-size="12">305mm</text>
	<text transform="matrix(1 0 0 1 1868.7334 1415.689)" font-family="'MyriadPro-Regular'" font-size="12">105mm</text>
	<text transform="matrix(1 0 0 1 3026.4473 1411.689)" font-family="'MyriadPro-Regular'" font-size="12">105mm</text>
	<text transform="matrix(1 0 0 1 3372.1602 1415.689)" font-family="'MyriadPro-Regular'" font-size="12">105mm</text>
	<text transform="matrix(1 0 0 1 3867.1602 1708.689)" font-family="'MyriadPro-Regular'" font-size="12">155mm</text>
	<text transform="matrix(1 0 0 1 1868.7334 2202.6216)" font-family="'MyriadPro-Regular'" font-size="12">30mm</text>
	<text transform="matrix(1 0 0 1 1945.2412 2158.168)" font-family="'MyriadPro-Regular'" font-size="12">M6 BOLT x4</text>
	<text transform="matrix(1 0 0 1 3603.5166 1415.689)"><tspan x="0" y="0" font-family="'MyriadPro-Regular'" font-size="12">All tabs and cutouts to the same as the thickness of the material using, </tspan><tspan x="0" y="14.4" font-family="'MyriadPro-Regular'" font-size="12">with the compensating values in flushing - user choice</tspan></text>
	<rect x="1545" y="2351.166" fill="none" stroke="#231F20" stroke-miterlimit="10" width="20" height="300.471"/>
	<rect x="1580.637" y="2384.021" fill="none" stroke="#231F20" stroke-miterlimit="10" width="16.5" height="249.832"/>
	<text transform="matrix(1 0 0 1 1620.7407 2501)" font-family="'MyriadPro-Regular'" font-size="12">88mm</text>
	<text transform="matrix(1 0 0 1 1490.7446 2493.063)" font-family="'MyriadPro-Regular'" font-size="12">105mm</text>
</g>
</svg>
